<svg width="125" height="46" viewBox="0 0 125 46" fill="none" xmlns="http://www.w3.org/2000/svg">
<path d="M70.7294 1.25297C71.1947 0.735469 71.884 0.407715 72.6424 0.407715C74.0556 0.407715 75.193 1.52897 75.193 2.92623C75.193 3.66799 74.8656 4.34074 74.3313 4.8065L51.5304 27.6974C51.0823 28.2322 50.3929 28.5599 49.6346 28.5599C48.2559 28.5599 47.1529 27.4559 47.1529 26.1104C47.1529 26.0242 47.4287 17.4336 47.4287 17.4336C47.4287 17.4336 36.3815 28.4909 36.347 28.5254C35.8645 28.9739 35.2268 29.2499 34.503 29.2499C33.0208 29.2499 31.8317 28.0769 31.8317 26.6279C31.8317 26.5417 31.8317 26.4554 31.8489 26.3692C31.8834 25.2651 32.0212 21.8496 32.0212 21.8496L29.867 24.0059C29.3844 24.5751 28.6433 24.9546 27.8161 24.9546C26.3512 24.9546 25.162 23.7816 25.162 22.3326V22.2636C25.162 21.3321 25.5756 12.7761 25.5756 12.7761L4.63601 33.3727C4.56708 33.4417 4.51537 33.5107 4.44644 33.5625C3.96388 33.9765 3.34344 34.2352 2.67131 34.2352C1.18916 34.2352 0 33.0622 0 31.6132C0 30.8369 0.344685 30.1469 0.896181 29.6639C1.8613 28.6807 27.0061 3.94399 27.0061 3.94399C27.4542 3.44374 28.1091 3.13324 28.8329 3.13324C30.1772 3.13324 31.2802 4.20274 31.2802 5.531C31.2802 5.60001 31.2802 5.669 31.2629 5.73801C31.2629 5.77251 31.2629 5.82426 31.2629 5.87601C31.2629 6.53151 30.9872 16.4676 30.9872 16.4676L33.693 13.8283C34.1238 13.3971 34.7442 13.1211 35.3991 13.1211C36.7434 13.1211 37.8119 14.1906 37.8119 15.5016C37.8119 15.5706 37.8119 15.6396 37.7947 15.7258L37.7258 19.9004L48.4972 9.36053C48.9625 8.84303 49.6519 8.51527 50.4102 8.51527C51.8061 8.51527 52.9436 9.63653 52.9436 11.0165L52.6851 19.0724L70.7294 1.25297Z" fill="url(#paint0_linear_6325_1961)"/>
<path d="M85.7402 25.3341C85.7402 26.2656 84.7751 27.1798 82.8276 28.0941C80.8629 29.0256 78.9499 29.4741 77.0714 29.4741C74.8999 29.4741 73.142 28.8704 71.8149 27.6629C70.5051 26.4553 69.8502 24.8166 69.833 22.7983C69.833 20.1073 70.8498 17.7958 72.8835 15.881C74.9343 13.9663 77.3988 13.0002 80.3114 13.0002C82.1727 13.0002 83.6376 13.328 84.7234 14.0008C85.7919 14.6563 86.3262 15.605 86.3262 16.8298C86.3262 18.3478 85.6885 19.5035 84.396 20.2798C82.8104 21.2286 79.8289 21.9703 75.4169 22.5223C75.3652 22.8328 75.348 23.0916 75.348 23.2986C75.348 24.2646 75.6065 25.0753 76.1235 25.7136C76.7267 26.4898 77.5884 26.8693 78.6914 26.8521C79.8633 26.8521 81.087 26.5071 82.3623 25.8171C83.4998 25.0581 84.1202 24.6441 84.2581 24.5578C84.5166 24.4716 84.7234 24.4198 84.8957 24.4198C85.1887 24.4198 85.3955 24.5233 85.5334 24.7476C85.6713 24.9546 85.7402 25.1616 85.7402 25.3341ZM75.4858 20.3315C77.6574 20.021 79.2601 19.4518 80.2942 18.5893C81.1042 17.9338 81.5006 17.2093 81.5006 16.3985C81.5006 16.019 81.3283 15.6913 81.018 15.4498C80.6906 15.191 80.2942 15.0703 79.8461 15.0703C78.881 15.0703 78.0365 15.5188 77.2954 16.3985C76.5544 17.2955 75.9512 18.5893 75.4858 20.3315Z" fill="#605858"/>
<path d="M111.419 28.9051C112.47 28.9051 112.729 28.3186 112.901 27.3698C113.177 25.9381 113.625 23.4195 113.625 23.4195L114.435 18.8655C114.521 18.4343 114.555 17.9858 114.555 17.4855C114.555 15.9675 114.09 14.8117 113.159 13.9837C112.332 13.242 111.281 12.8797 109.988 12.8797C108.592 12.8797 107.386 13.3455 106.369 14.277C105.507 15.036 104.663 16.278 103.836 17.9858C103.853 17.7788 103.905 17.4855 103.974 17.106V16.3297C103.974 15.1567 103.681 14.2942 103.112 13.7422C102.526 13.173 101.578 12.897 100.234 12.897C98.924 12.897 97.7865 13.3627 96.8042 14.2942C96.0286 15.0015 95.2358 16.1745 94.4086 17.796C94.6843 16.347 94.8394 15.588 94.9773 14.4667C95.0463 13.8975 95.0118 12.8452 93.6675 12.8452C93.3228 12.8452 92.9782 12.8625 92.3577 12.8625C91.8752 12.8625 90.7722 12.8797 90.5137 14.3115C90.2379 15.864 89.807 18.3653 89.7381 18.6413L88.48 26.3348C88.2043 28.0426 88.3421 29.0086 89.7726 28.9741H92.4611C93.3401 28.9741 93.7364 28.4911 94.0294 26.9041L94.6326 22.9538C95.0463 20.004 95.6839 17.9685 96.5456 16.83C97.0971 16.1055 97.7693 15.7432 98.5793 15.7432C99.0101 15.7432 99.3031 15.933 99.4927 16.2952C99.6823 16.6575 99.7857 17.1232 99.7857 17.7097C99.7857 18.0548 99.7512 18.417 99.6823 18.7965L98.3035 26.3866C98.0106 28.2496 98.2691 28.9396 99.2514 28.9568H101.802C102.853 28.9568 103.215 28.2668 103.422 27.0593L104.318 21.5393C104.611 19.8488 105.094 18.486 105.766 17.4337C106.455 16.3815 107.196 15.864 107.989 15.864C108.523 15.864 108.92 16.0537 109.161 16.4677C109.351 16.761 109.437 17.1922 109.437 17.7442V18.486C109.437 18.486 108.179 25.9726 108.11 26.3866C107.834 28.1806 108.006 28.9396 109.092 28.9396C109.092 28.9051 110.867 28.9051 111.419 28.9051Z" fill="#605858"/>
<path d="M121.983 12.7761C121.173 12.7761 120.863 12.7761 120.622 12.7761C119.864 12.7761 118.864 13.1039 118.623 14.4839C118.054 17.8132 117.278 22.2464 116.589 26.628C116.296 28.4737 116.555 28.905 117.434 28.8877C118.106 28.8877 118.485 28.8877 119.777 28.8877C121.07 28.8877 121.277 28.3012 121.38 27.5422C122.156 22.6949 122.914 18.8827 123.586 14.9151C123.845 13.3281 123.155 12.7761 121.983 12.7761Z" fill="#605858"/>
<path d="M124.879 8.60156C124.879 10.1368 123.639 11.3961 122.105 11.3961C120.571 11.3961 119.33 10.1368 119.33 8.60156C119.33 7.04905 120.554 5.78979 122.105 5.78979C123.639 5.78979 124.879 7.04905 124.879 8.60156Z" fill="#605858"/>
<path d="M24.0759 38.6513H24.6102L23.8863 42.1013C23.7312 42.8258 23.7657 43.3261 23.9553 43.6538C24.1621 43.9643 24.5585 44.1196 25.1444 44.1196C25.4546 44.1196 25.7132 44.0678 25.9544 43.9988C26.1785 43.9126 26.3853 43.7918 26.5576 43.6193C26.73 43.4468 26.8678 43.2398 26.9713 42.9811C27.0747 42.7223 27.1781 42.4291 27.247 42.0841L27.9708 38.634H28.5051L27.764 42.2393C27.6089 42.9983 27.2987 43.5676 26.8506 43.9816C26.4025 44.3783 25.7993 44.5853 25.0583 44.5853C24.3172 44.5853 23.8002 44.3783 23.5072 43.9816C23.2314 43.5676 23.1625 42.9983 23.3176 42.2566L24.0759 38.6513Z" fill="#605858"/>
<path d="M28.8322 44.4129H28.3496L29.2113 40.2556H29.6939L29.5732 40.8421C29.7973 40.6351 30.0386 40.4799 30.2626 40.3419C30.4867 40.2039 30.7452 40.1521 31.0382 40.1521C31.2967 40.1521 31.5207 40.1866 31.7103 40.2901C31.9171 40.3764 32.055 40.5316 32.1584 40.7559C32.2273 40.9111 32.2618 41.0664 32.2445 41.2216C32.2273 41.3769 32.2101 41.5494 32.1756 41.7219L31.6069 44.4474H31.1243L31.6931 41.7391C31.7792 41.3596 31.7448 41.0836 31.6241 40.8939C31.5035 40.7041 31.245 40.6179 30.8658 40.6179C30.7107 40.6179 30.5728 40.6351 30.4522 40.6869C30.3143 40.7386 30.1937 40.7904 30.073 40.8766C29.9524 40.9456 29.849 41.0319 29.7628 41.1354C29.6766 41.2389 29.5905 41.3424 29.5388 41.4459C29.4698 41.5839 29.4181 41.7046 29.3664 41.8254C29.332 41.9461 29.2975 42.0841 29.263 42.2221L28.8322 44.4129Z" fill="#605858"/>
<path d="M34.968 41.9805C35.0541 41.9633 35.1748 41.946 35.2954 41.9288C35.4333 41.9115 35.5367 41.877 35.6229 41.8425C35.709 41.808 35.778 41.739 35.8124 41.6528C35.8469 41.5665 35.8641 41.4803 35.8814 41.4113C35.8986 41.2905 35.9158 41.1698 35.8986 41.0663C35.8814 40.9628 35.8469 40.8765 35.778 40.8075C35.709 40.7385 35.6229 40.6695 35.5022 40.635C35.3816 40.5833 35.2265 40.566 35.0369 40.566C34.7094 40.566 34.4165 40.635 34.1752 40.773C33.9339 40.911 33.7443 41.1525 33.6409 41.5148H33.1583C33.2273 41.2733 33.3307 41.049 33.4513 40.8938C33.572 40.7213 33.7271 40.5833 33.9167 40.4625C34.089 40.359 34.2786 40.2728 34.4854 40.221C34.6922 40.1693 34.9162 40.1348 35.1403 40.1348C35.3471 40.1348 35.5367 40.152 35.709 40.2038C35.8814 40.2555 36.0192 40.3245 36.1399 40.428C36.2605 40.5315 36.3295 40.6523 36.3812 40.8248C36.4329 40.9973 36.4156 41.187 36.3812 41.4285L35.9158 43.6883C35.8814 43.878 35.8814 43.9988 35.9331 44.0505C35.9848 44.1023 36.1227 44.085 36.3467 44.016L36.2605 44.3955C36.2261 44.4128 36.1744 44.43 36.0882 44.4473C36.0192 44.4645 35.9331 44.4818 35.8641 44.4818C35.7952 44.4818 35.7263 44.4818 35.6573 44.4645C35.5022 44.43 35.416 44.361 35.3988 44.2403C35.3816 44.1195 35.3816 43.9815 35.3988 43.8435C35.1575 44.0678 34.8818 44.2403 34.606 44.361C34.3303 44.4818 34.0373 44.5335 33.7271 44.5335C33.5375 44.5335 33.3824 44.5163 33.2273 44.4645C33.0722 44.4128 32.9343 44.3438 32.8309 44.2403C32.7275 44.1368 32.6586 44.016 32.6069 43.8608C32.5724 43.7055 32.5551 43.533 32.6069 43.326C32.7447 42.6188 33.3135 42.2048 34.313 42.0668L34.968 41.9805ZM35.7263 42.222C35.5022 42.3083 35.2782 42.36 35.0714 42.3945C34.8645 42.429 34.6577 42.4463 34.4337 42.4635C34.0545 42.498 33.7616 42.567 33.5203 42.7223C33.279 42.8603 33.1411 43.0673 33.0894 43.3605C33.0549 43.4813 33.0722 43.602 33.0894 43.6883C33.1239 43.7745 33.1756 43.8608 33.2445 43.9298C33.3135 43.9815 33.3996 44.0333 33.503 44.0678C33.6064 44.1023 33.7098 44.1195 33.8305 44.1023C34.0201 44.1023 34.2096 44.085 34.3992 44.0333C34.5888 43.9815 34.7611 43.9125 34.9163 43.809C35.0714 43.7055 35.2092 43.5848 35.3299 43.4295C35.4505 43.2743 35.5367 43.1018 35.5712 42.8775L35.7263 42.222Z" fill="#605858"/>
<path d="M39.518 42.429C39.4663 42.6533 39.4491 42.8603 39.4663 43.0673C39.4835 43.2743 39.5353 43.4468 39.6214 43.5848C39.7076 43.74 39.8282 43.8435 39.9833 43.9298C40.1385 44.016 40.328 44.0678 40.5693 44.0678C40.8795 44.0678 41.1725 43.9815 41.431 43.809C41.6895 43.6365 41.8791 43.4123 42.017 43.1018H42.5512C42.4478 43.2915 42.3272 43.4813 42.2066 43.6538C42.0687 43.8263 41.9308 43.9643 41.7585 44.1023C41.5861 44.223 41.3966 44.3265 41.1897 44.3955C40.9829 44.4645 40.7416 44.499 40.4831 44.499C40.1557 44.499 39.8799 44.4473 39.6731 44.3265C39.4663 44.223 39.294 44.0678 39.1733 43.8608C39.0527 43.671 39.001 43.4295 38.9838 43.1708C38.9665 42.912 38.9838 42.6188 39.0527 42.3083C39.1216 41.9978 39.225 41.7218 39.3629 41.4458C39.5008 41.1698 39.6731 40.9455 39.8799 40.7385C40.0867 40.5315 40.3108 40.3763 40.5693 40.2555C40.8278 40.1348 41.1036 40.083 41.3966 40.083C41.9653 40.083 42.3617 40.2728 42.6202 40.6695C42.8615 41.0663 42.8959 41.6355 42.7408 42.3773L39.518 42.429ZM42.2927 42.015C42.3272 41.808 42.3444 41.6183 42.3272 41.4458C42.31 41.2733 42.2583 41.118 42.1721 40.98C42.0859 40.8593 41.9825 40.7385 41.8274 40.6695C41.6723 40.6005 41.5 40.5488 41.2931 40.5488C41.0863 40.5488 40.8795 40.5833 40.7072 40.6695C40.5348 40.7558 40.3625 40.8593 40.2246 40.9973C40.0867 41.1353 39.9661 41.2905 39.8455 41.463C39.7421 41.6355 39.6559 41.8253 39.587 42.0323L42.2927 42.015Z" fill="#605858"/>
<path d="M43.464 44.3784H42.9814L43.8432 40.2211H44.3257L44.2051 40.8421H44.2223C44.3947 40.6006 44.6015 40.4108 44.86 40.2901C45.1185 40.1693 45.377 40.1003 45.6528 40.1003C45.8423 40.1003 45.9974 40.1176 46.1353 40.1693C46.256 40.2211 46.3594 40.2728 46.4455 40.3418C46.5145 40.4108 46.5834 40.4971 46.6179 40.5833C46.6523 40.6868 46.6868 40.7903 46.704 40.8938C46.8936 40.6178 47.1177 40.4108 47.3762 40.2901C47.6347 40.1521 47.9104 40.1003 48.2034 40.1003C48.4792 40.1003 48.7032 40.1521 48.8411 40.2383C48.9962 40.3246 49.0996 40.4626 49.1513 40.6006C49.203 40.7558 49.2375 40.9283 49.2202 41.1353C49.203 41.3251 49.1858 41.5321 49.1341 41.7391L48.5826 44.3611H48.1L48.7032 41.4804C48.7377 41.3251 48.7549 41.2044 48.7377 41.0836C48.7377 40.9628 48.7032 40.8593 48.6515 40.7903C48.5998 40.7041 48.5309 40.6351 48.4275 40.6006C48.3241 40.5488 48.1862 40.5316 48.0138 40.5316C47.8415 40.5316 47.6692 40.5661 47.4796 40.6523C47.29 40.7386 47.1349 40.8593 46.9798 41.0146C46.9109 41.0836 46.8592 41.1699 46.8074 41.2561C46.7557 41.3596 46.704 41.4458 46.6696 41.5494C46.6351 41.6529 46.5834 41.7564 46.5662 41.8599C46.5317 41.9634 46.5145 42.0496 46.4972 42.1359L46.0319 44.3784H45.5493L46.1525 41.4976C46.187 41.3424 46.2042 41.2043 46.2042 41.1008C46.2042 40.9801 46.1698 40.8766 46.1181 40.7903C46.0664 40.7041 45.9974 40.6523 45.894 40.6006C45.7906 40.5488 45.6528 40.5316 45.4804 40.5316C45.3081 40.5316 45.1357 40.5661 44.9461 40.6523C44.7566 40.7386 44.6015 40.8593 44.4464 41.0146C44.3774 41.0836 44.3257 41.1699 44.274 41.2561C44.2223 41.3424 44.1706 41.4458 44.1361 41.5494C44.1017 41.6529 44.05 41.7564 44.0327 41.8599C43.9983 41.9634 43.981 42.0496 43.9638 42.1359L43.464 44.3784Z" fill="#605858"/>
<path d="M49.6691 45.9999H49.1865L50.3929 40.2038H50.8755L50.7204 40.9283H50.7376C50.841 40.7903 50.9444 40.6696 51.0823 40.5661C51.2202 40.4626 51.358 40.3763 51.4959 40.3073C51.6338 40.2383 51.7889 40.1866 51.9268 40.1521C52.0646 40.1176 52.2198 40.1003 52.3404 40.1003C52.6679 40.1003 52.9436 40.1521 53.1676 40.2728C53.3745 40.3763 53.5468 40.5316 53.6502 40.7386C53.7536 40.9283 53.8225 41.1698 53.8225 41.4286C53.8398 41.6874 53.8053 41.9806 53.7536 42.2911C53.6847 42.5844 53.5985 42.8604 53.4606 43.1364C53.34 43.4124 53.1676 43.6366 52.9781 43.8436C52.7885 44.0506 52.5644 44.2059 52.3059 44.3266C52.0474 44.4474 51.7717 44.5164 51.4442 44.5164C51.1512 44.5164 50.8927 44.4474 50.6514 44.3266C50.4102 44.1886 50.2378 43.9989 50.1516 43.7401L49.6691 45.9999ZM50.4446 42.3084C50.3929 42.5499 50.3757 42.7741 50.4102 42.9811C50.4274 43.1881 50.4791 43.3779 50.5653 43.5331C50.6514 43.6884 50.7721 43.8091 50.9272 43.9126C51.0823 43.9989 51.2546 44.0506 51.4787 44.0506C51.72 44.0506 51.944 43.9989 52.1508 43.8954C52.3576 43.7919 52.53 43.6539 52.6851 43.4814C52.8402 43.3089 52.9608 43.1191 53.0642 42.8776C53.1676 42.6534 53.2366 42.4119 53.271 42.1358C53.3745 41.6183 53.3228 41.2043 53.1159 40.9283C52.9091 40.6523 52.6161 40.5143 52.2025 40.5143C51.9785 40.5143 51.7717 40.5661 51.5821 40.6523C51.3925 40.7386 51.2202 40.8593 51.0651 41.0318C50.91 41.1871 50.7893 41.3769 50.6859 41.6011C50.5653 41.8081 50.4963 42.0496 50.4446 42.3084Z" fill="#605858"/>
<path d="M54.6496 44.361H54.167L55.0287 40.2038H55.5113L55.3389 40.98H55.3562C55.563 40.6523 55.7698 40.4108 56.0111 40.29C56.2523 40.152 56.5453 40.083 56.89 40.083L56.7866 40.6005C56.5281 40.6005 56.2868 40.635 56.0972 40.7213C55.9077 40.8075 55.7353 40.9455 55.5974 41.1008C55.4596 41.256 55.3562 41.4458 55.27 41.6528C55.1838 41.8598 55.1149 42.084 55.0632 42.3083L54.6496 44.361Z" fill="#605858"/>
<path d="M57.1489 42.3773C57.0972 42.6015 57.0799 42.8085 57.0972 43.0155C57.1144 43.2225 57.1661 43.395 57.2523 43.533C57.3385 43.6883 57.4591 43.7918 57.6142 43.878C57.7693 43.9643 57.9589 44.016 58.2002 44.016C58.5104 44.016 58.8034 43.9298 59.0619 43.7573C59.3204 43.5848 59.51 43.3605 59.6478 43.05H60.1821C60.0787 43.2398 59.9753 43.4295 59.8374 43.602C59.6995 43.7745 59.5617 43.9125 59.3893 44.0505C59.217 44.1713 59.0274 44.2748 58.8206 44.3438C58.6138 44.4128 58.3725 44.4473 58.114 44.4473C57.7865 44.4473 57.5108 44.3955 57.304 44.2748C57.0972 44.1713 56.9248 44.016 56.8042 43.809C56.6836 43.6193 56.6318 43.3778 56.6146 43.119C56.5974 42.8603 56.6146 42.567 56.6836 42.2565C56.7525 41.946 56.8559 41.67 56.9938 41.394C57.1316 41.118 57.304 40.8938 57.5108 40.6868C57.7176 40.4798 57.9417 40.3245 58.2002 40.2038C58.4587 40.083 58.7344 40.0312 59.0274 40.0312C59.5961 40.0312 59.9925 40.221 60.251 40.6178C60.4923 41.0145 60.5268 41.5838 60.3717 42.3255L57.1489 42.3773ZM59.9236 41.9805C59.9581 41.7735 59.9753 41.5838 59.958 41.4113C59.9408 41.2388 59.8891 41.0835 59.8029 40.9455C59.7168 40.8075 59.6134 40.704 59.4583 40.635C59.3032 40.5488 59.1308 40.5143 58.9068 40.5143C58.7 40.5143 58.4931 40.5488 58.3208 40.635C58.1485 40.7213 57.9761 40.8248 57.8382 40.9628C57.7004 41.1008 57.5797 41.256 57.4591 41.4285C57.3557 41.601 57.2695 41.7908 57.2006 41.9978L59.9236 41.9805Z" fill="#605858"/>
<path d="M61.2155 43.0329C61.2155 43.3951 61.3017 43.6366 61.474 43.7919C61.6291 43.9471 61.9049 44.0161 62.2668 44.0161C62.4391 44.0161 62.5942 43.9989 62.7321 43.9471C62.87 43.8954 62.9906 43.8436 63.0768 43.7746C63.1802 43.7056 63.2491 43.6194 63.3181 43.5331C63.3698 43.4469 63.4215 43.3434 63.4387 43.2399C63.4732 43.0329 63.4387 42.8776 63.3353 42.7914C63.2319 42.6879 63.0768 42.6189 62.8872 42.5499C62.6976 42.4981 62.4908 42.4464 62.284 42.4119C62.06 42.3774 61.8704 42.3083 61.6808 42.2393C61.4912 42.1531 61.3534 42.0496 61.2672 41.8943C61.1638 41.7391 61.1466 41.5321 61.1983 41.2561C61.2672 40.9111 61.4568 40.6178 61.7498 40.3936C62.0427 40.1693 62.4219 40.0486 62.8872 40.0486C63.3353 40.0486 63.68 40.1521 63.904 40.3418C64.1453 40.5488 64.2315 40.8766 64.197 41.3423H63.7145C63.7317 41.0146 63.6628 40.7903 63.4904 40.6696C63.3181 40.5488 63.094 40.4798 62.7838 40.4798C62.4736 40.4798 62.2323 40.5488 62.0427 40.6696C61.8532 40.8076 61.7325 40.9801 61.6981 41.1871C61.6636 41.3251 61.6808 41.4458 61.7325 41.5321C61.7842 41.6183 61.8704 41.7046 61.991 41.7563C62.0945 41.8081 62.2323 41.8598 62.3874 41.9116C62.5425 41.9461 62.6804 41.9979 62.8528 42.0324C63.0079 42.0669 63.163 42.1186 63.3008 42.1703C63.4387 42.2221 63.5766 42.2911 63.68 42.3774C63.7834 42.4636 63.8696 42.5844 63.904 42.7051C63.9557 42.8431 63.9557 42.9984 63.9213 43.2054C63.8868 43.4124 63.8006 43.5849 63.68 43.7401C63.5594 43.8954 63.4215 44.0161 63.2491 44.1196C63.0768 44.2231 62.8872 44.2921 62.6632 44.3439C62.4564 44.3956 62.2151 44.4129 61.9738 44.4129C61.7325 44.4129 61.5257 44.3784 61.3534 44.3094C61.181 44.2404 61.0432 44.1369 60.9398 44.0161C60.8364 43.8781 60.7502 43.7401 60.7157 43.5676C60.6812 43.3951 60.664 43.2054 60.6985 43.0156H61.2155V43.0329Z" fill="#605858"/>
<path d="M66.8517 41.8942C66.9379 41.8769 67.0585 41.8597 67.1791 41.8424C67.317 41.8252 67.4204 41.7907 67.5066 41.7562C67.5928 41.7217 67.6617 41.6527 67.6962 41.5664C67.7306 41.4802 67.7479 41.3939 67.7651 41.3249C67.7996 41.2042 67.7996 41.0834 67.7823 40.9799C67.7651 40.8764 67.7306 40.7902 67.6617 40.7212C67.5928 40.6522 67.5066 40.5832 67.386 40.5487C67.2653 40.4969 67.1102 40.4797 66.9206 40.4797C66.5932 40.4797 66.3002 40.5487 66.0589 40.6867C65.8176 40.8247 65.6281 41.0662 65.5246 41.4284H65.0421C65.111 41.1869 65.2144 40.9799 65.3351 40.8074C65.4557 40.6349 65.6108 40.4969 65.7832 40.3762C65.9555 40.2727 66.1451 40.1864 66.3519 40.1347C66.5587 40.0829 66.7827 40.0657 67.0068 40.0657C67.2136 40.0657 67.4032 40.0829 67.5755 40.1347C67.7479 40.1864 67.8857 40.2554 68.0064 40.3417C68.127 40.4452 68.196 40.5659 68.2477 40.7384C68.2821 40.9109 68.2821 41.1007 68.2477 41.3422L67.7823 43.6019C67.7479 43.7917 67.7479 43.9124 67.7996 43.9642C67.8513 44.0159 67.9892 43.9987 68.2132 43.9297L68.127 44.3092C68.0926 44.3264 68.0236 44.3264 67.9547 44.361C67.8857 44.3782 67.7996 44.3954 67.7306 44.3954C67.6617 44.3954 67.5928 44.3954 67.5238 44.3782C67.3687 44.3437 67.2825 44.2747 67.2653 44.1539C67.2481 44.0332 67.2481 43.8952 67.2653 43.7572C67.024 43.9814 66.7483 44.1539 66.4725 44.2747C66.1968 44.3955 65.8866 44.4472 65.5936 44.4472C65.4212 44.4472 65.2489 44.4299 65.0938 44.3782C64.9387 44.3264 64.8008 44.2574 64.6974 44.1539C64.594 44.0504 64.5251 43.9297 64.4733 43.7744C64.4216 43.6192 64.4216 43.4467 64.4733 43.2397C64.6112 42.5324 65.18 42.1184 66.1795 41.9804L66.8517 41.8942ZM67.61 42.1357C67.386 42.2219 67.1619 42.2737 66.9551 42.3082C66.7483 42.3427 66.5415 42.3599 66.3174 42.3772C65.9383 42.4117 65.6453 42.4979 65.404 42.6359C65.1627 42.7739 65.0248 42.9809 64.9559 43.2742C64.9214 43.3949 64.9387 43.5157 64.9559 43.6019C64.9904 43.6882 65.0421 43.7744 65.111 43.8434C65.18 43.9124 65.2661 43.9469 65.3695 43.9814C65.4729 44.0159 65.5763 44.0332 65.6798 44.0332C65.8693 44.0332 66.0589 43.9987 66.2485 43.9642C66.4381 43.9124 66.6104 43.8434 66.7655 43.7399C66.9206 43.6364 67.0585 43.5157 67.1791 43.3604C67.2998 43.2052 67.386 43.0327 67.4204 42.8084L67.61 42.1357Z" fill="#605858"/>
<path d="M75.0896 38.5305H75.5722L74.3658 44.3266H73.8832L74.0383 43.6021H74.0211C73.9177 43.7401 73.8143 43.8608 73.6764 43.9643C73.5385 44.0678 73.4006 44.1541 73.2628 44.2231C73.1249 44.2921 72.9698 44.3438 72.8319 44.3783C72.6768 44.4128 72.5389 44.4301 72.4183 44.4301C72.0908 44.4301 71.8151 44.3783 71.591 44.2576C71.3842 44.1368 71.2119 43.9988 71.1085 43.7918C71.0051 43.6021 70.9361 43.3606 70.9361 43.1018C70.9189 42.8258 70.9534 42.5498 71.0051 42.2393C71.074 41.946 71.1602 41.67 71.2808 41.394C71.4015 41.118 71.5738 40.8938 71.7634 40.6868C71.9529 40.4798 72.177 40.3245 72.4355 40.2038C72.694 40.083 72.9698 40.014 73.2972 40.014C73.5902 40.014 73.8487 40.083 74.09 40.2038C74.3313 40.3418 74.5036 40.5315 74.5898 40.7903L75.0896 38.5305ZM74.3141 42.2048C74.3658 41.9633 74.383 41.7563 74.3485 41.532C74.3313 41.325 74.2796 41.1353 74.1934 40.98C74.1072 40.8248 73.9866 40.704 73.8315 40.6005C73.6764 40.5143 73.504 40.4625 73.28 40.4625C73.0215 40.4625 72.7974 40.5143 72.6079 40.6178C72.401 40.7213 72.2287 40.8593 72.0736 41.0145C71.9185 41.187 71.7978 41.394 71.6944 41.6183C71.591 41.8425 71.5221 42.084 71.4876 42.36C71.4359 42.6188 71.4187 42.8603 71.4532 43.0501C71.4876 43.2571 71.5393 43.4296 71.6427 43.5676C71.7461 43.7056 71.8668 43.8091 72.0219 43.8781C72.177 43.9471 72.3493 43.9816 72.5562 43.9816C72.7802 43.9816 72.987 43.9298 73.1766 43.8436C73.3662 43.7573 73.5385 43.6193 73.6936 43.4641C73.8487 43.3088 73.9694 43.1191 74.0728 42.8948C74.1934 42.6878 74.2624 42.4635 74.3141 42.2048Z" fill="#605858"/>
<path d="M76.0717 42.3254C76.02 42.5497 76.0028 42.7567 76.02 42.9637C76.0373 43.1707 76.089 43.3432 76.1751 43.4812C76.2613 43.6364 76.3819 43.7399 76.537 43.8434C76.6922 43.9297 76.8817 43.9814 77.123 43.9814C77.4332 43.9814 77.7262 43.8952 77.9847 43.7399C78.2432 43.5674 78.4328 43.3432 78.5707 43.0327H79.1049C79.0015 43.2397 78.8981 43.4122 78.7603 43.5847C78.6396 43.7572 78.4845 43.8952 78.3122 44.0332C78.1398 44.1539 77.9502 44.2574 77.7434 44.3264C77.5366 44.3954 77.2953 44.4299 77.0368 44.4299C76.7094 44.4299 76.4336 44.3782 76.2268 44.2574C76.0028 44.1367 75.8477 43.9987 75.727 43.7917C75.6064 43.6019 75.5547 43.3604 75.5375 43.1017C75.5202 42.8429 75.5375 42.5497 75.6064 42.2392C75.6753 41.9287 75.7787 41.6527 75.9166 41.3767C76.0545 41.1007 76.2268 40.8764 76.4336 40.6694C76.6405 40.4624 76.8645 40.3072 77.123 40.1864C77.3815 40.0657 77.6573 40.0139 77.9502 40.0139C78.519 40.0139 78.9154 40.2037 79.1739 40.6004C79.4151 40.9972 79.4496 41.5664 79.2945 42.3082L76.0717 42.3254ZM78.8464 41.9287C78.8809 41.7217 78.8981 41.5319 78.8809 41.3594C78.8637 41.1869 78.812 41.0317 78.7258 40.8937C78.6396 40.7557 78.5362 40.6522 78.3811 40.5832C78.226 40.5142 78.0537 40.4624 77.8468 40.4624C77.64 40.4624 77.4332 40.4969 77.2609 40.5832C77.0885 40.6694 76.9162 40.7729 76.7783 40.9109C76.6405 41.0489 76.5198 41.2042 76.3992 41.3767C76.2958 41.5492 76.2096 41.7389 76.1407 41.9459L78.8464 41.9287Z" fill="#605858"/>
<path d="M79.6562 44.292L80.8626 38.5132H81.3452L80.1388 44.292H79.6562Z" fill="#605858"/>
<path d="M86.2058 41.7563L86.3092 41.2905H88.7565L88.136 44.2748H87.6707L87.8775 43.2915C87.6018 43.6365 87.2916 43.9125 86.9124 44.1195C86.5332 44.3265 86.0679 44.43 85.4992 44.43C85.1373 44.43 84.8271 44.361 84.5341 44.2403C84.2583 44.1195 84.0343 43.9125 83.8619 43.671C83.6896 43.4123 83.5862 43.1018 83.5345 42.705C83.4828 42.3255 83.5173 41.877 83.6207 41.3595C83.7068 40.9282 83.8447 40.5487 84.0343 40.1692C84.2239 39.807 84.4479 39.4792 84.7237 39.2032C84.9994 38.9272 85.3269 38.7202 85.6888 38.565C86.0507 38.4097 86.4643 38.3235 86.9124 38.3235C87.2226 38.3235 87.4984 38.358 87.7396 38.427C87.9809 38.496 88.205 38.6167 88.3773 38.772C88.5497 38.9272 88.6875 39.117 88.7909 39.3412C88.8943 39.5655 88.9288 39.8415 88.9288 40.152H88.3773C88.3773 39.9277 88.3428 39.738 88.2567 39.5655C88.1705 39.393 88.0671 39.255 87.9292 39.1342C87.7914 39.0135 87.6362 38.9272 87.4467 38.8755C87.2571 38.8065 87.0675 38.7892 86.8607 38.7892C86.4815 38.7892 86.1541 38.8582 85.8439 38.9962C85.5509 39.1342 85.2752 39.324 85.0511 39.5655C84.8271 39.807 84.6375 40.1002 84.4824 40.4452C84.3273 40.7903 84.2066 41.1698 84.1205 41.5665C84.0515 41.8943 84.0343 42.1875 84.0688 42.4808C84.1032 42.774 84.1894 43.0328 84.31 43.2398C84.4479 43.464 84.6202 43.6365 84.8443 43.7573C85.0683 43.878 85.3441 43.947 85.6715 43.947C85.8266 43.947 85.9818 43.9298 86.1541 43.8953C86.3264 43.8608 86.4988 43.809 86.6711 43.7228C86.8435 43.6365 86.9986 43.533 87.1709 43.4123C87.326 43.2915 87.4811 43.119 87.619 42.9293C87.7569 42.7568 87.8603 42.5498 87.9292 42.36C87.9982 42.153 88.0671 41.946 88.1188 41.739L86.2058 41.7563Z" fill="#605858"/>
<path d="M89.6691 44.2749H89.1865L90.0482 40.1176H90.5308L90.3585 40.8938H90.3757C90.5825 40.5661 90.7893 40.3246 91.0306 40.2038C91.2719 40.0658 91.5649 40.0141 91.9096 39.9968L91.8062 40.5143C91.5476 40.5143 91.3064 40.5488 91.1168 40.6523C90.9272 40.7386 90.7549 40.8593 90.617 41.0146C90.4791 41.1698 90.3757 41.3596 90.2895 41.5666C90.2034 41.7736 90.1344 41.9978 90.0827 42.2221L89.6691 44.2749Z" fill="#605858"/>
<path d="M95.2874 40.1003H95.7699L94.9082 44.2576H94.4256L94.5463 43.6711C94.4601 43.7401 94.3739 43.8264 94.2878 43.9126C94.1844 43.9989 94.081 44.0679 93.9603 44.1369C93.8397 44.2059 93.7018 44.2576 93.5639 44.3094C93.4261 44.3611 93.2537 44.3784 93.0814 44.3784C92.8056 44.3784 92.5816 44.3439 92.4092 44.2576C92.2369 44.1886 92.1162 44.0679 92.0301 43.9299C91.9439 43.7919 91.8922 43.6366 91.8922 43.4469C91.875 43.2571 91.8922 43.0674 91.9439 42.8431L92.5126 40.1003H92.9952L92.4265 42.8259C92.3575 43.1881 92.3748 43.4641 92.4954 43.6539C92.616 43.8436 92.8746 43.9471 93.2537 43.9471C93.4433 43.9471 93.6329 43.9126 93.8052 43.8264C93.9775 43.7401 94.1327 43.6366 94.2705 43.4986C94.4084 43.3606 94.529 43.1881 94.6152 42.9984C94.7186 42.8086 94.7876 42.6016 94.8393 42.3601L95.2874 40.1003Z" fill="#605858"/>
<path d="M96.046 45.8964H95.5635L96.7699 40.1003H97.2524L97.0973 40.8248H97.1146C97.218 40.6868 97.3214 40.5661 97.4592 40.4626C97.5971 40.3591 97.735 40.2728 97.8729 40.2038C98.0107 40.1348 98.1658 40.0831 98.3037 40.0486C98.4416 40.0141 98.5967 39.9968 98.7173 39.9968C99.0448 39.9968 99.3205 40.0486 99.5446 40.1693C99.7514 40.2728 99.9237 40.4281 100.027 40.6351C100.131 40.8248 100.199 41.0663 100.199 41.3251C100.217 41.6011 100.182 41.8771 100.131 42.1876C100.062 42.4808 99.9754 42.7568 99.8376 43.0156C99.7169 43.2916 99.5446 43.5159 99.355 43.7229C99.1654 43.9299 98.9414 44.0851 98.6829 44.2059C98.4244 44.3266 98.1486 44.3956 97.8212 44.3956C97.5282 44.3956 97.2697 44.3266 97.0284 44.2059C96.7871 44.0679 96.6148 43.8781 96.5286 43.6194L96.046 45.8964ZM96.8216 42.1876C96.7699 42.4118 96.7526 42.6533 96.7699 42.8603C96.7871 43.0674 96.8388 43.2571 96.925 43.4124C97.0112 43.5676 97.1318 43.6884 97.2869 43.7919C97.442 43.8781 97.6144 43.9299 97.8384 43.9299C98.0797 43.9299 98.3037 43.8781 98.5105 43.7746C98.7173 43.6711 98.8897 43.5331 99.0448 43.3779C99.1999 43.2054 99.3205 42.9984 99.4239 42.7741C99.5274 42.5498 99.5963 42.3083 99.6308 42.0323C99.7342 41.5148 99.6825 41.1008 99.4756 40.8248C99.2688 40.5488 98.9586 40.4108 98.5622 40.4108C98.3382 40.4108 98.1314 40.4626 97.9418 40.5488C97.7522 40.6351 97.5799 40.7731 97.4248 40.9283C97.2697 41.0836 97.149 41.2733 97.0456 41.4976C96.9422 41.7046 96.8733 41.9288 96.8216 42.1876Z" fill="#605858"/>
<path d="M102.129 44.361C101.871 44.361 101.63 44.3093 101.423 44.223C101.216 44.1368 101.044 43.9988 100.906 43.809C100.768 43.6365 100.682 43.395 100.63 43.119C100.595 42.843 100.595 42.5325 100.682 42.1703C100.751 41.8598 100.837 41.5838 100.975 41.3078C101.112 41.049 101.285 40.8075 101.474 40.6177C101.681 40.4107 101.905 40.2555 102.164 40.152C102.422 40.0312 102.715 39.9795 103.043 39.9795C103.37 39.9795 103.629 40.0312 103.853 40.152C104.077 40.2727 104.232 40.428 104.353 40.6177C104.473 40.8075 104.542 41.049 104.559 41.3078C104.577 41.5838 104.559 41.8598 104.49 42.1703C104.421 42.498 104.318 42.8085 104.163 43.0673C104.008 43.3433 103.836 43.5675 103.629 43.7573C103.422 43.947 103.198 44.1023 102.939 44.2058C102.698 44.292 102.422 44.3438 102.129 44.361ZM103.991 42.153C104.042 41.9115 104.06 41.67 104.06 41.463C104.06 41.256 104.008 41.0663 103.939 40.911C103.87 40.7558 103.749 40.635 103.594 40.5315C103.439 40.4452 103.232 40.3935 102.974 40.3935C102.733 40.3935 102.508 40.4452 102.302 40.5487C102.095 40.6522 101.922 40.773 101.785 40.9455C101.63 41.118 101.509 41.3078 101.423 41.5148C101.337 41.7218 101.25 41.946 101.216 42.1703C101.164 42.429 101.147 42.6705 101.164 42.8775C101.181 43.1018 101.233 43.2743 101.319 43.4295C101.405 43.5848 101.526 43.7055 101.681 43.7918C101.836 43.878 102.026 43.9125 102.267 43.9125C102.508 43.9125 102.733 43.8608 102.939 43.7573C103.146 43.6538 103.318 43.533 103.456 43.3605C103.594 43.188 103.715 43.0155 103.818 42.7913C103.87 42.6015 103.939 42.3773 103.991 42.153Z" fill="#605858"/>
<path d="M106.766 44.223L107.972 38.4443L111.66 38.427L111.574 38.8928H108.42L107.972 40.98H110.833L110.73 41.4458H107.869L107.3 44.2058L106.766 44.223Z" fill="#605858"/>
<path d="M113.384 41.7907C113.47 41.7734 113.59 41.7562 113.711 41.7389C113.849 41.7217 113.952 41.6872 114.039 41.6527C114.125 41.6182 114.194 41.5492 114.228 41.4629C114.263 41.3767 114.28 41.2904 114.297 41.2214C114.314 41.1007 114.331 40.9799 114.314 40.8937C114.297 40.7902 114.263 40.7039 114.194 40.6349C114.125 40.5659 114.039 40.4969 113.918 40.4624C113.797 40.4279 113.642 40.3934 113.47 40.3934C113.142 40.3934 112.849 40.4624 112.608 40.6004C112.367 40.7384 112.177 40.9799 112.074 41.3422H111.591C111.66 41.1007 111.764 40.8937 111.884 40.7039C112.022 40.5314 112.16 40.3934 112.332 40.2727C112.505 40.1692 112.694 40.0829 112.918 40.0312C113.125 39.9794 113.349 39.9622 113.573 39.9622C113.78 39.9622 113.97 39.9794 114.142 40.0312C114.314 40.0829 114.452 40.1519 114.573 40.2382C114.693 40.3417 114.762 40.4624 114.814 40.6349C114.849 40.8074 114.849 40.9972 114.814 41.2387L114.349 43.4984C114.314 43.6882 114.314 43.8089 114.366 43.8607C114.418 43.9124 114.556 43.8952 114.78 43.8262L114.693 44.2057C114.659 44.2057 114.59 44.2402 114.521 44.2574C114.452 44.2747 114.366 44.2919 114.297 44.2919C114.228 44.2919 114.159 44.2919 114.09 44.2747C113.935 44.2402 113.849 44.1712 113.832 44.0504C113.814 43.9297 113.814 43.7917 113.832 43.6537C113.59 43.8779 113.315 44.0504 113.039 44.1712C112.763 44.2919 112.47 44.3437 112.16 44.3437C111.97 44.3437 111.815 44.3264 111.66 44.2747C111.505 44.2229 111.367 44.1539 111.264 44.0504C111.16 43.9469 111.091 43.8262 111.04 43.6709C110.988 43.5157 110.988 43.3432 111.04 43.1362C111.178 42.4289 111.746 42.0149 112.746 41.8769L113.384 41.7907ZM114.142 42.0322C113.918 42.1184 113.711 42.1702 113.487 42.2047C113.28 42.2392 113.073 42.2564 112.849 42.2737C112.487 42.3082 112.177 42.3772 111.936 42.5324C111.695 42.6704 111.557 42.8774 111.505 43.1707C111.471 43.3087 111.488 43.4122 111.505 43.4984C111.54 43.5847 111.591 43.6709 111.66 43.7227C111.729 43.7744 111.815 43.8262 111.919 43.8607C112.022 43.8952 112.126 43.8952 112.246 43.8952C112.436 43.8952 112.625 43.8779 112.815 43.8262C113.004 43.7744 113.177 43.7054 113.332 43.6019C113.487 43.4984 113.625 43.3777 113.746 43.2224C113.866 43.0672 113.952 42.8947 113.987 42.6877L114.142 42.0322Z" fill="#605858"/>
<path d="M115.279 44.2058L116.486 38.427H116.968L115.762 44.2058H115.279Z" fill="#605858"/>
<path d="M120.295 41.3423C120.278 41.0318 120.192 40.7903 120.019 40.6178C119.847 40.4453 119.606 40.3591 119.278 40.3591C119.037 40.3591 118.813 40.4108 118.623 40.5143C118.434 40.6178 118.261 40.7558 118.106 40.9283C117.951 41.1008 117.83 41.2906 117.744 41.4976C117.658 41.7046 117.572 41.9288 117.537 42.1358C117.486 42.3601 117.469 42.5671 117.486 42.7741C117.503 42.9811 117.537 43.1708 117.606 43.3433C117.693 43.5158 117.796 43.6366 117.951 43.7401C118.106 43.8436 118.313 43.8953 118.554 43.8953C118.916 43.8953 119.209 43.7918 119.468 43.6021C119.726 43.3951 119.916 43.1363 120.036 42.7741H120.553C120.467 42.9983 120.347 43.2226 120.226 43.4123C120.088 43.6021 119.933 43.7746 119.761 43.9126C119.588 44.0506 119.382 44.1541 119.175 44.2231C118.951 44.2921 118.709 44.3438 118.451 44.3438C118.123 44.3438 117.848 44.2921 117.641 44.1713C117.417 44.0678 117.262 43.9126 117.141 43.7056C117.02 43.5158 116.969 43.2743 116.952 43.0156C116.934 42.7568 116.952 42.4636 117.02 42.1531C117.072 41.8598 117.176 41.5838 117.313 41.3251C117.451 41.0491 117.624 40.8248 117.813 40.6178C118.02 40.4108 118.244 40.2556 118.503 40.1348C118.761 40.0141 119.054 39.9451 119.364 39.9451C119.847 39.9451 120.209 40.0486 120.45 40.2901C120.691 40.5143 120.812 40.8766 120.778 41.3596H120.295V41.3423Z" fill="#605858"/>
<path d="M120.967 44.1884L122.173 38.4097H122.656L121.915 42.0149L124.345 40.0312H125L123.138 41.5319L124.31 44.1884H123.776L122.707 41.8769L121.777 42.6187L121.449 44.1884H120.967Z" fill="#605858"/>
<defs>
<linearGradient id="paint0_linear_6325_1961" x1="0" y1="17.3182" x2="75.1781" y2="17.3182" gradientUnits="userSpaceOnUse">
<stop offset="0.00561798" stop-color="#ED0605"/>
<stop offset="0.0519288" stop-color="#ED0D05"/>
<stop offset="0.1158" stop-color="#EF1904"/>
<stop offset="0.1899" stop-color="#F13604"/>
<stop offset="0.271" stop-color="#F45E03"/>
<stop offset="0.3315" stop-color="#F68002"/>
<stop offset="0.4494" stop-color="#F9BD07"/>
<stop offset="0.573" stop-color="#87BA1A"/>
<stop offset="0.7809" stop-color="#448CBF"/>
<stop offset="0.9067" stop-color="#233985"/>
<stop offset="1" stop-color="#0E0B63"/>
</linearGradient>
</defs>
</svg>
