<svg width="43" height="42" viewBox="0 0 43 42" fill="none" xmlns="http://www.w3.org/2000/svg">
<circle cx="21.5526" cy="20.9735" r="20.7509" fill="#F2F8FB"/>
<path d="M25.1771 21.8966C26.0596 21.2022 26.7037 20.2501 27.0199 19.1726C27.3361 18.0952 27.3086 16.946 26.9412 15.8849C26.5738 14.8238 25.8848 13.9036 24.9701 13.2523C24.0554 12.601 22.9604 12.251 21.8375 12.251C20.7146 12.251 19.6196 12.601 18.7049 13.2523C17.7902 13.9036 17.1012 14.8238 16.7338 15.8849C16.3664 16.946 16.3389 18.0952 16.6551 19.1726C16.9713 20.2501 17.6154 21.2022 18.4979 21.8966C16.9857 22.5024 15.6663 23.5072 14.6803 24.804C13.6943 26.1007 13.0786 27.6407 12.899 29.2598C12.886 29.378 12.8964 29.4976 12.9296 29.6118C12.9628 29.726 13.0182 29.8325 13.0926 29.9253C13.2429 30.1127 13.4614 30.2327 13.7001 30.259C13.9389 30.2852 14.1782 30.2156 14.3656 30.0653C14.553 29.9151 14.673 29.6966 14.6993 29.4578C14.8969 27.6982 15.736 26.0731 17.0561 24.893C18.3762 23.7129 20.0848 23.0605 21.8555 23.0605C23.6262 23.0605 25.3348 23.7129 26.6549 24.893C27.975 26.0731 28.8141 27.6982 29.0117 29.4578C29.0362 29.679 29.1417 29.8833 29.308 30.0312C29.4742 30.1792 29.6893 30.2603 29.9119 30.259H30.0109C30.2468 30.2318 30.4625 30.1125 30.6109 29.927C30.7593 29.7416 30.8283 29.505 30.803 29.2688C30.6225 27.6451 30.0036 26.1012 29.0125 24.8024C28.0214 23.5037 26.6955 22.4992 25.1771 21.8966ZM21.8375 21.2574C21.1254 21.2574 20.4292 21.0463 19.8371 20.6506C19.245 20.255 18.7835 19.6927 18.511 19.0347C18.2384 18.3768 18.1671 17.6528 18.3061 16.9544C18.445 16.2559 18.7879 15.6144 19.2915 15.1108C19.795 14.6073 20.4366 14.2643 21.1351 14.1254C21.8335 13.9865 22.5575 14.0578 23.2154 14.3303C23.8733 14.6028 24.4357 15.0643 24.8313 15.6564C25.2269 16.2486 25.4381 16.9447 25.4381 17.6568C25.4381 18.6118 25.0588 19.5276 24.3835 20.2029C23.7083 20.8781 22.7924 21.2574 21.8375 21.2574Z" fill="#006AB2"/>
</svg>
