<svg width="15" height="15" viewBox="0 0 15 15" fill="none" xmlns="http://www.w3.org/2000/svg">
<path d="M8.5917 7.51049L14.7565 1.37253C15.0521 1.07963 15.0521 0.605477 14.7565 0.313324C14.4617 0.0204233 13.9828 0.0204233 13.688 0.313324L7.52852 6.44605L1.31204 0.221917C1.01722 -0.0739723 0.538373 -0.0739723 0.243562 0.221917C-0.0512499 0.518553 -0.0512499 0.998688 0.243562 1.29458L6.4555 7.51423L0.221109 13.7211C-0.0737029 14.014 -0.0737029 14.4882 0.221109 14.7803C0.51592 15.0732 0.994771 15.0732 1.28958 14.7803L7.51869 8.57867L13.7104 14.7781C14.0052 15.074 14.4841 15.074 14.7789 14.7781C15.0737 14.4814 15.0737 14.0013 14.7789 13.7054L8.5917 7.51049Z" fill="#CCCCCC"/>
</svg>
