<svg width="59" height="59" viewBox="0 0 59 59" fill="none" xmlns="http://www.w3.org/2000/svg">
<rect x="0.794922" y="0.137756" width="58" height="58" rx="29" fill="#F3F3F3" fill-opacity="0.4"/>
<g clip-path="url(#clip0_6478_2113)">
<path d="M37.7554 31.6427C37.7382 31.215 37.6813 30.7899 37.5854 30.3727C37.5248 30.0321 37.4345 29.6975 37.3154 29.3727C37.1567 28.9587 36.973 28.5546 36.7654 28.1627C36.3447 27.3617 35.7784 26.6462 35.0954 26.0527C34.6475 25.6614 34.154 25.3256 33.6254 25.0527L33.4154 24.9327H33.3654L33.2354 24.8627L32.5554 24.5827L32.3654 24.5127L32.0054 24.3827C31.8744 24.3433 31.7407 24.3132 31.6054 24.2927H31.4854C30.376 24.0429 29.2249 24.0429 28.1154 24.2927H27.9854L27.5954 24.3827L27.2354 24.5127L27.0354 24.5827L26.3554 24.8627L26.2354 24.9327H26.1754C26.1066 24.969 26.0399 25.0091 25.9754 25.0527C24.6328 25.7484 23.534 26.8368 22.8254 28.1727C22.6179 28.5646 22.4342 28.9687 22.2754 29.3827C22.1597 29.7078 22.0727 30.0424 22.0154 30.3827C21.9184 30.7969 21.8549 31.2183 21.8254 31.6427C21.8254 33.4527 21.8254 35.2527 21.8254 37.0627C21.8227 37.1703 21.8418 37.2773 21.8814 37.3774C21.921 37.4774 21.9804 37.5684 22.0561 37.645C22.1317 37.7215 22.222 37.7821 22.3215 37.8229C22.4211 37.8638 22.5278 37.8841 22.6354 37.8827H25.3454C25.4754 37.8827 25.5354 37.9327 25.5354 38.0627C25.5354 38.5827 25.6254 39.0627 25.6654 39.6227C25.7054 40.1827 25.7354 40.4227 25.7654 40.8327C25.7654 40.9927 25.7654 41.1527 25.7654 41.3127L25.8254 41.6427C25.8254 41.9727 25.8254 42.3027 25.9054 42.6427C25.9054 42.7927 25.9054 42.9227 25.9054 43.0727C25.9054 43.2227 25.9054 43.4227 25.9054 43.6027C25.9054 43.7827 25.9054 43.7627 25.9054 43.8527C25.9054 43.9427 25.9054 44.0027 25.9054 44.0827C25.9054 44.7027 26.0054 45.3127 26.0354 45.9327C26.0514 46.064 26.0957 46.1903 26.1654 46.3027V46.3627C26.2054 46.4276 26.2578 46.4839 26.3196 46.5285C26.3813 46.5732 26.4513 46.6052 26.5254 46.6227C26.5254 46.6227 26.5254 46.6227 26.5254 46.6727H32.8254L32.8754 46.6227C33.0215 46.5849 33.147 46.4916 33.2254 46.3627V46.3027C33.2965 46.1917 33.3378 46.0643 33.3454 45.9327C33.3454 45.3127 33.4354 44.7027 33.4754 44.0827C33.4799 44.0061 33.4799 43.9293 33.4754 43.8527V43.6027C33.4754 43.4227 33.4754 43.2427 33.4754 43.0727V42.6427L33.5654 41.6427C33.5654 41.5427 33.5654 41.4427 33.5654 41.3427C33.5654 41.2427 33.5654 41.0227 33.5654 40.8627C33.5654 40.4527 33.6354 40.0527 33.6654 39.6527C33.6954 39.2527 33.7554 38.6527 33.7954 38.0927C33.7954 37.9627 33.8554 37.9127 33.9854 37.9127H36.7054C36.8126 37.9142 36.9189 37.8938 37.018 37.8528C37.117 37.8119 37.2067 37.7512 37.2815 37.6745C37.3563 37.5978 37.4148 37.5066 37.4533 37.4066C37.4918 37.3066 37.5095 37.1998 37.5054 37.0927C37.7554 35.2627 37.8254 33.4627 37.7554 31.6427ZM36.3454 36.3027C36.3454 36.4027 36.3454 36.4527 36.2054 36.4427H33.3554C33.286 36.445 33.2178 36.4621 33.1554 36.4927C33.0171 36.5516 32.8985 36.6488 32.8135 36.7728C32.7284 36.8968 32.6806 37.0425 32.6754 37.1927C32.6754 37.4327 32.6754 37.6827 32.6754 37.9327C32.4854 39.9327 32.3354 41.9327 32.1854 43.8827V44.3427C32.1854 44.5527 32.1854 44.7627 32.1854 44.9827C32.1874 45.0073 32.1837 45.0321 32.1746 45.055C32.1654 45.0779 32.1511 45.0984 32.1327 45.1149C32.1143 45.1314 32.0923 45.1433 32.0685 45.1499C32.0447 45.1565 32.0197 45.1574 31.9954 45.1527C30.6154 45.1527 29.2354 45.1527 27.8554 45.1527C27.7254 45.1527 27.6854 45.0927 27.6754 44.9827L27.6154 44.3327C27.6154 44.1827 27.6154 44.0327 27.6154 43.8827C27.4554 41.8827 27.3054 39.8827 27.1154 37.9327V37.8827C27.1154 37.6427 27.1154 37.3927 27.1154 37.1527C27.1103 37.0025 27.0625 36.8568 26.9774 36.7328C26.8924 36.6088 26.7738 36.5116 26.6354 36.4527C26.5734 36.4211 26.505 36.404 26.4354 36.4027H26.1554C25.2354 36.4027 24.2954 36.3327 23.3854 36.4027C23.2854 36.4027 23.2554 36.4027 23.2554 36.2627V32.4227C23.2554 32.4227 23.3354 31.5727 23.3754 31.1127C23.3817 30.9533 23.4086 30.7953 23.4554 30.6427C23.5854 30.2227 23.7154 29.7927 23.8754 29.3927C24.4574 28.0881 25.4547 27.0127 26.712 26.3344C27.9692 25.656 29.4155 25.4128 30.8254 25.6427C32.3487 25.9081 33.7315 26.6968 34.7354 27.8727C35.1571 28.3305 35.4956 28.8584 35.7354 29.4327C35.8916 29.8292 36.0285 30.233 36.1454 30.6427C36.189 30.7957 36.2125 30.9537 36.2154 31.1127C36.2154 31.5727 36.3454 34.3027 36.3454 35.2327C36.3454 35.6427 36.3354 35.9527 36.3454 36.3127V36.3027Z" fill="#FF1E2D"/>
<path d="M35.4059 16.4027C35.3269 15.9424 35.1856 15.495 34.9859 15.0727C34.7573 14.5547 34.4541 14.0729 34.0859 13.6427C33.6074 13.0944 33.0309 12.64 32.3859 12.3027C32.0056 12.11 31.607 11.9559 31.1959 11.8427C30.9254 11.7783 30.6517 11.7282 30.3759 11.6927C30.3432 11.7017 30.3086 11.7017 30.2759 11.6927H29.2159C29.2159 11.6927 29.2159 11.7427 29.1459 11.7427C28.8859 11.7927 28.6159 11.8227 28.3659 11.8827C28.1152 11.9199 27.8677 11.9768 27.6259 12.0527C27.1995 12.2234 26.7936 12.4414 26.4159 12.7027C25.8307 13.111 25.3285 13.6269 24.9359 14.2227C24.5865 14.7146 24.3321 15.2674 24.1859 15.8527C24.0838 16.2165 24.0102 16.5876 23.9659 16.9627C23.9411 17.3457 23.9411 17.7298 23.9659 18.1127C23.9989 18.5249 24.0829 18.9313 24.2159 19.3227C24.3825 19.8275 24.6145 20.3082 24.9059 20.7527C25.2647 21.2812 25.7111 21.7446 26.2259 22.1227C26.8221 22.5816 27.5011 22.9211 28.2259 23.1227C28.6845 23.2406 29.1533 23.3143 29.6259 23.3427C29.7686 23.3621 29.9132 23.3621 30.0559 23.3427C30.3916 23.3199 30.7255 23.2765 31.0559 23.2127C31.4634 23.1141 31.8616 22.9803 32.2459 22.8127C33.1218 22.3906 33.8792 21.7576 34.45 20.9704C35.0207 20.1832 35.387 19.2665 35.5159 18.3027C35.5875 17.6678 35.5503 17.0252 35.4059 16.4027ZM29.7259 21.8427C28.8571 21.8487 28.0061 21.5961 27.2813 21.1171C26.5564 20.6381 25.9904 19.9544 25.6552 19.1528C25.3199 18.3513 25.2307 17.4681 25.3987 16.6157C25.5668 15.7633 25.9845 14.9801 26.5989 14.3657C27.2132 13.7514 27.9964 13.3336 28.8488 13.1656C29.7013 12.9975 30.5844 13.0868 31.386 13.422C32.1875 13.7572 32.8713 14.3233 33.3503 15.0481C33.8292 15.773 34.0818 16.6239 34.0759 17.4927C34.0733 18.6456 33.6141 19.7505 32.7989 20.5657C31.9837 21.381 30.8788 21.8401 29.7259 21.8427Z" fill="#FF1E2D"/>
</g>
<defs>
<clipPath id="clip0_6478_2113">
<rect width="15.94" height="34.99" fill="white" transform="translate(21.8252 11.6428)"/>
</clipPath>
</defs>
</svg>
