<svg width="132" height="37" viewBox="0 0 132 37" fill="none" xmlns="http://www.w3.org/2000/svg">
<path fill-rule="evenodd" clip-rule="evenodd" d="M131.489 23.482L130.557 29.0166C130.494 29.3476 130.32 29.6472 130.064 29.8662C129.808 30.0852 129.484 30.2106 129.148 30.2217H126.977C126.311 30.2217 125.863 29.9186 125.975 29.0166C125.975 29.0166 127.194 21.8085 127.3 20.3555C127.319 20.1277 127.458 18.3918 126.157 18.3918C124.856 18.3918 124.196 19.494 124.196 19.494C123.484 20.4765 123.004 21.6067 122.79 22.8004C122.347 25.2234 121.698 29.0203 121.698 29.0203C121.635 29.35 121.463 29.6487 121.208 29.8678C120.954 30.087 120.633 30.2136 120.297 30.2272H118.07C117.908 30.2239 117.75 30.1864 117.604 30.1172C117.458 30.0479 117.329 29.9485 117.225 29.8255C117.12 29.7025 117.044 29.5588 116.999 29.4038C116.955 29.2488 116.944 29.0862 116.967 28.9266C116.967 28.9266 118.049 22.9107 118.329 21.4301C118.608 19.9495 118.625 18.412 117.63 18.2908C116.744 18.1806 116.193 18.5094 115.482 19.325C114.638 20.2967 114.089 22.975 113.986 23.5187L113.092 28.8458C113.019 29.2275 112.818 29.5729 112.522 29.8255C112.227 30.0781 111.854 30.223 111.466 30.2364H109.141C108.966 30.2421 108.792 30.2079 108.633 30.1364C108.474 30.065 108.333 29.9581 108.221 29.824C108.11 29.6899 108.03 29.532 107.989 29.3625C107.947 29.193 107.945 29.0163 107.983 28.8458L108.87 23.5664C108.872 23.5134 108.878 23.4605 108.889 23.4085L109.992 16.8616C110.054 16.5306 110.228 16.2308 110.484 16.0115C110.74 15.7922 111.063 15.6664 111.399 15.6548H113.094C113.245 15.6502 113.396 15.6801 113.534 15.7423C113.672 15.8045 113.794 15.8972 113.89 16.0136C113.987 16.1299 114.056 16.2667 114.092 16.4137C114.128 16.5606 114.13 16.7138 114.098 16.8616L113.546 20.1902C115.568 16.2995 117.176 15.8366 118.568 15.7466C120.005 15.6548 121.141 15.8219 121.922 17.0031C122.444 17.8003 122.371 19.2901 122.268 20.1736C122.595 19.5583 123.284 18.3367 124.019 17.4954C125.036 16.3363 126.078 15.7172 128.247 15.7172C130.416 15.7172 131.77 17.5541 131.973 18.8712C132.11 19.8632 131.693 22.3578 131.489 23.482Z" fill="#717274"/>
<path fill-rule="evenodd" clip-rule="evenodd" d="M89.2091 15.6419H86.7388C86.4349 15.652 86.1414 15.755 85.8979 15.9369C85.6543 16.1189 85.4725 16.3711 85.3768 16.6596C85.3225 16.7764 85.2842 16.8999 85.2628 17.0269L84.3696 22.5506C84.3703 22.5598 84.3703 22.569 84.3696 22.5782C84.3696 22.6027 84.364 22.6302 84.353 22.6608C84.3162 22.8739 84.2795 23.0796 84.2427 23.2762C83.9854 24.6741 83.4542 25.7855 83.037 26.2594C83.037 26.2594 82.0408 27.5048 80.4968 27.446C79.1624 27.3928 79.2764 25.7267 79.2948 25.4971C79.4014 24.0459 80.6218 16.8359 80.6218 16.8359C80.7321 15.9358 80.2818 15.6309 79.6182 15.6309H77.4457C77.109 15.6424 76.7863 15.7679 76.5305 15.9869C76.2747 16.2059 76.1009 16.5052 76.0377 16.8359L75.1077 22.3724C74.9018 23.4966 74.4846 25.9912 74.639 26.996C74.843 28.3131 76.1995 30.15 78.3629 30.15C80.5262 30.15 82.0591 29.6945 83.1417 28.3645C83.888 27.446 84.3365 26.7829 84.671 26.0757L84.2629 29.0038C84.2301 29.1515 84.2314 29.3048 84.2669 29.4519C84.3025 29.599 84.3712 29.7361 84.4679 29.8525C84.5646 29.969 84.6866 30.0619 84.8247 30.1239C84.9629 30.186 85.1133 30.2156 85.2647 30.2106H86.9612C87.298 30.1987 87.6207 30.0728 87.8765 29.8535C88.1323 29.6342 88.306 29.3346 88.3691 29.0038L89.472 22.6774C89.4809 22.6251 89.4864 22.5723 89.4885 22.5194L90.3763 17.0214C90.4118 16.851 90.4081 16.6746 90.3653 16.5058C90.3225 16.337 90.2418 16.1802 90.1293 16.0472C90.0168 15.9142 89.8755 15.8086 89.716 15.7384C89.5566 15.6681 89.3832 15.6351 89.2091 15.6419Z" fill="#717274"/>
<path fill-rule="evenodd" clip-rule="evenodd" d="M96.8111 22.1117L96.8699 21.7443C97.5224 18.8878 99.2208 18.12 99.2208 18.12C100.563 17.2603 102.437 17.8389 102.437 17.8389L102.47 17.85C102.942 17.9791 103.383 18.2001 103.768 18.5002C104.731 19.224 105.023 19.1983 105.404 19.134C105.69 19.0963 105.957 18.9712 106.169 18.7759C106.382 18.5806 106.528 18.3246 106.589 18.0428C106.67 17.6332 106.472 17.0435 105.705 16.5145C105.705 16.5145 103.549 14.9366 99.4855 15.5226C97.732 15.8367 95.6403 16.7294 93.6681 18.908C89.9626 23.0007 91.7565 30.7783 98.379 30.4587C98.379 30.4587 103.299 30.5818 105.983 27.4259C105.983 27.4259 106.433 26.7867 106.062 26.2025C105.691 25.6184 104.959 25.8847 104.737 26.0427C104.514 26.2007 102.114 28.1956 99.7556 28.0633C98.1418 27.9733 97.2228 27.1228 96.8644 25.927V25.9086C96.846 25.8517 96.8368 25.8168 96.8203 25.7525C96.7553 25.4787 96.7153 25.1995 96.7008 24.9185C96.625 24.2113 96.6287 23.4977 96.7119 22.7913V22.7583C96.7358 22.5342 96.7707 22.3174 96.8111 22.1117Z" fill="#717274"/>
<path d="M75.1113 0.900544C75.4776 0.492796 75.9589 0.205461 76.4917 0.0763649C77.0246 -0.0527315 77.5841 -0.017538 78.0966 0.17731C78.6091 0.372159 79.0505 0.717525 79.3628 1.16796C79.675 1.61839 79.8435 2.15276 79.846 2.70074C79.8466 3.08369 79.7649 3.46229 79.6063 3.81091C79.4478 4.15953 79.2161 4.47003 78.927 4.72137L54.7219 29.3364C54.3719 29.7432 53.9059 30.0336 53.3863 30.1687C52.8668 30.3039 52.3183 30.2773 51.8142 30.0926C51.3101 29.9079 50.8744 29.5738 50.5654 29.1351C50.2563 28.6963 50.0886 28.1738 50.0846 27.6372C50.0846 27.549 50.3842 18.3055 50.3842 18.3055C50.3842 18.3055 38.6575 30.1942 38.6097 30.2456C38.207 30.6219 37.7033 30.8729 37.1601 30.9679C36.617 31.0629 36.058 30.9979 35.5513 30.7807C35.0445 30.5635 34.612 30.2036 34.3065 29.7449C34.001 29.2862 33.8357 28.7485 33.8309 28.1975C33.8295 28.1022 33.8356 28.007 33.8492 27.9127C33.8786 26.7279 34.033 23.0577 34.033 23.0577L31.7373 25.3833C31.3681 25.83 30.87 26.1521 30.3109 26.3056C29.7519 26.459 29.159 26.4363 28.6133 26.2407C28.0676 26.045 27.5955 25.6859 27.2615 25.2122C26.9276 24.7386 26.7479 24.1735 26.7471 23.5941V23.5133C26.7471 22.5158 27.1864 13.3127 27.1864 13.3127L4.9149 35.4479C4.84689 35.5177 4.78072 35.593 4.7072 35.6554C4.30157 36.0176 3.79994 36.2551 3.26257 36.3393C2.72519 36.4235 2.17491 36.3508 1.67783 36.1301C1.18076 35.9093 0.758026 35.5499 0.460395 35.0948C0.162764 34.6398 0.00289811 34.1086 1.77743e-07 33.565C-0.000141169 33.1689 0.0840215 32.7774 0.246907 32.4163C0.409793 32.0553 0.647678 31.733 0.944752 31.4709C1.9667 30.411 28.6678 3.81393 28.6678 3.81393C29.0158 3.42079 29.4752 3.14263 29.985 3.01627C30.4948 2.88992 31.0309 2.92136 31.5224 3.10641C32.014 3.29146 32.4376 3.6214 32.7373 4.0525C33.0369 4.48361 33.1984 4.99553 33.2004 5.52044C33.1998 5.59409 33.1955 5.66767 33.1875 5.74088C33.1906 5.79043 33.1906 5.84012 33.1875 5.88967C33.1875 6.59322 32.8898 17.2787 32.8898 17.2787L35.7626 14.4296C36.1221 14.0689 36.5806 13.8229 37.0801 13.7228C37.5795 13.6227 38.0975 13.673 38.5683 13.8674C39.0392 14.0617 39.4417 14.3914 39.7249 14.8145C40.0081 15.2377 40.1592 15.7354 40.1592 16.2445C40.1592 16.3235 40.1592 16.4006 40.1482 16.4778L40.0802 20.9746L51.5201 9.63886C51.8833 9.23026 52.362 8.94141 52.8929 8.81049C53.4238 8.67957 53.982 8.71274 54.4937 8.90562C55.0054 9.0985 55.4464 9.44202 55.7586 9.89075C56.0707 10.3395 56.2393 10.8723 56.242 11.4189L55.9663 20.0837L75.1113 0.900544Z" fill="url(#paint0_linear_2516_1)"/>
<defs>
<linearGradient id="paint0_linear_2516_1" x1="1.77734e-07" y1="18.1861" x2="79.846" y2="18.1861" gradientUnits="userSpaceOnUse">
<stop offset="0.01" stop-color="#D91F26"/>
<stop offset="0.05" stop-color="#DA2526"/>
<stop offset="0.12" stop-color="#DD3725"/>
<stop offset="0.2" stop-color="#E25424"/>
<stop offset="0.28" stop-color="#EA7D22"/>
<stop offset="0.33" stop-color="#EE9621"/>
<stop offset="0.45" stop-color="#F7C314"/>
<stop offset="0.57" stop-color="#9EBA3B"/>
<stop offset="0.78" stop-color="#249AD1"/>
<stop offset="0.84" stop-color="#247EB6"/>
<stop offset="1" stop-color="#25356F"/>
</linearGradient>
</defs>
</svg>
