<?xml version="1.0" encoding="UTF-8"?>
<svg id="Layer_23" data-name="Layer 23" xmlns="http://www.w3.org/2000/svg" viewBox="0 0 1805.91 1080">
  <defs>
    <style>
      .cls-1 {
        fill: none;
      }

      .cls-2 {
        fill: #ff1e2d;
      }

      .cls-3 {
        fill: #6d6e71;
        fill-rule: evenodd;
      }
    </style>
  </defs>
  <g>
    <g>
      <g>
        <path class="cls-2" d="M1104.19,828.6h53.43l-62.95-166.28h-58.21l-62.95,166.28h52.82l9.83-29.11h58.2l9.83,29.11Zm-20.08-65.72h-37.62l18.7-51.15,18.92,51.15Z"/>
        <path class="cls-2" d="M859.32,828.6h50.69v-55.91h62.67l16.06-41.47h-78.74v-24.87h82.74v-44.02h-133.43v166.28Z"/>
        <path class="cls-2" d="M1168.52,828.6h109.21l17.13-46.08h-75.65v-120.2h-50.69v166.28Z"/>
        <path class="cls-2" d="M1374.6,659.17c-51.24,0-87.02,35.49-87.02,86.29s35.78,86.29,87.02,86.29c32.03,0,58.34-14.33,76.14-41.46l-42.72-26.22c-7,12.45-18.67,19.29-32.94,19.29-17.36,0-34.87-11.72-34.87-37.91,0-21.96,14.51-37.91,34.51-37.91,14.65,0,25.69,6.73,31.98,19.47l43.76-23.18c-14.63-27.99-42.95-44.67-75.87-44.67Z"/>
        <path class="cls-2" d="M1561.7,828.6h61.94l-56.32-84.96,.24-.37,53.89-80.95h-61.8l-35.05,60.4h-10.78v-60.4h-50.69v166.28h50.69v-60.77h11.25l.19,.32,36.44,60.44Z"/>
      </g>
      <g>
        <g>
          <path class="cls-2" d="M667.9,737.93c6.09,.35,12.55,.93,18.72,1.9,18.53-32.5,51.6-43,51.6-43l62.29-139.66s-25.03-2.52-31.2,12.49c-8.56,20.81-45.66,111.66-45.66,111.66,0,0-36.86,15.01-55.75,56.61Z"/>
          <path class="cls-2" d="M480.67,690.85s8.61,26.88,27.41,27.23c2.66,.05,30.55-.04,43.38-.07-3.69-6.61-6.87-13.47-9.71-20.54l-61.08-6.62Z"/>
          <path class="cls-2" d="M565.27,773.42c1.06-.4,14.03-5.53,22.44-9.02-5.45-4.97-10.49-10.4-15.34-16.02l-43.23,11.54s18.93,19.94,36.13,13.5Z"/>
          <path class="cls-2" d="M500.93,728.29s13.88,24.07,33.68,20.48c.85-.16,20.67-3.76,33.12-6.09-4.61-5.81-8.73-11.97-12.62-18.33l-54.18,3.94Z"/>
          <path class="cls-2" d="M469.44,648.02s1.62,30.11,23.18,33.76c1.28,.22,29.75,5.49,46.52,8.77-2.33-7.2-4.54-14.9-6.32-22.58l-63.37-19.95Z"/>
          <path class="cls-2" d="M482.87,639.54c1.23,.54,32.23,14.14,48.68,21.64-1.27-7.6-2.35-16.56-2.56-24.39l-59.61-37.32s-5.8,31.55,13.48,40.07Z"/>
          <path class="cls-2" d="M640,724.54c2.1-6.63,5-13.15,8.07-19.29l-19.01-30.67s-10.74,23.11-1.02,35.39c.45,.57,9.01,10.91,11.96,14.57Z"/>
          <path class="cls-2" d="M651.49,698.95c3.68-6.41,7.83-12.42,12.49-18.11l-17.02-41.4s-15.55,21.1-7.03,36.51c.5,.9,9.27,18.42,11.56,23Z"/>
          <path class="cls-2" d="M668.26,675.83c5.01-5.55,10.49-10.88,16.36-15.53l-9.92-53.91s-21.39,16.1-16.23,35.18c.09,.33,8.27,28.93,9.79,34.26Z"/>
          <path class="cls-2" d="M690.38,655.9c6.12-4.33,12.63-8.48,19.45-11.76l1.98-64.73s-26.37,11.59-25.27,31.01l3.84,45.48Z"/>
          <path class="cls-2" d="M758.77,561.56s-31.15,5.11-33.71,22.53c-.41,2.81-7.37,48.41-8.66,56.99,6.46-2.69,13.16-5.21,20.04-6.9l22.33-72.62Z"/>
          <path class="cls-2" d="M732.91,773.04l-.19-.03,.02-.03c.96-3.76,.15-7.34-2.54-10.53-12.45-14.77-56.35-20.27-82.13-18.72-43.09-36.42-46.97-84.31-46.97-84.31l-121.16-101.84s-12.15,23.02,2.05,34.36c9.04,7.22,96.49,75.4,101.78,79.53,7.11,39.96,27.59,63.47,43.16,78.1,9.45,8.88,13.8,17.61,7.71,24.75-5.79,6.79-19.8,6.85-26.16,6.73-5.65-3.88-10.81-7.95-16.18-12.51l-144.41,70.92s19.48,15.81,36.8,7.57c.3-.14,97.91-51.78,122.3-64.68,7.11,4.64,14.15,8.82,21.92,12.42,20.03,.32,33.96-17.43,26.74-34.44,0,0,51.09,.46,62.01,13.6,.71,.85,.96,1.83,.87,3.18l-17.42-3.52s-2.06,11.03,9.7,12.24c3.97,.41,5.93-1.25,7.19-3.21l6.64,1.08c6.33,.99,7.37,7.09,7.04,9.71-.55,4.32-4.24,8.3-6.06,9.54-.72-5.62-4.72-10.22-10.55-11.65-10.12-2.47-51.59,.56-59.75,6.4-38.36,27.48-41.02,68.56-41.05,68.8,0,0,9.77,22.34,24.71,34.95,8.32,7.03,16.98,8.23,22.93,8.23,6.21,0,11.38-2.53,11.38-2.53,0,0-30.37-20-38.74-47.28,.77-2.69,11.89-32.44,29.74-45.18,7.24-5.17,61.34-11.74,61.34-11.74l9.13,14.81s15.37-10.09,14.33-26.16c-.6-9.27-9.14-17.26-16.16-18.52Z"/>
          <path class="cls-2" d="M603.55,842.55c-3.93-16.07-3.28-24.04-2.68-26.34l-63.88,13.35-43.83,27.73s21.28,13.39,39.6,1.72l44.02-29.45s3.48,19.61,4.99,25.4c5.9,22.05,28.03,12.01,28.03,12.01l-6.24-24.41Z"/>
        </g>
        <path class="cls-2" d="M652.88,839.51s-6.18,10.05-9.63,19.55c0,0,6.51,11.08,16.21,19.95,10.3,9.42,21.2,17.93,34.58,18.45,6.22,.24,15.95-5.4,15.95-5.4l-3.94-2.03c-35.69-18.66-53.17-50.51-53.17-50.51Z"/>
      </g>
    </g>
    <g>
      <path class="cls-3" d="M1617.86,392.99l-10.75,64.66c-1.29,7.78-8.58,14.09-16.28,14.09h-25.07c-7.68,0-12.86-3.54-11.57-14.09,0,0,14.06-84.21,15.31-101.19,.2-2.67,1.83-22.96-13.2-22.96s-22.65,12.82-22.65,12.82c-6.21,8.17-13.28,22.3-16.23,38.65-5.12,28.3-12.61,72.67-12.61,72.67-1.3,7.78-8.59,14.09-16.28,14.09h-25.73c-7.68,0-13.97-7.42-12.69-15.2,0,0,12.5-70.28,15.74-87.6,3.22-17.33,3.4-35.26-8.06-36.68-10.24-1.29-16.6,2.56-24.81,12.09-9.75,11.35-16.08,42.64-17.27,49.01l-10.33,62.15c-1.51,8.97-9.9,16.24-18.78,16.24h-26.79c-8.87,0-14.86-7.27-13.36-16.24l10.25-61.69c.02-.6,.08-1.21,.2-1.84l12.72-76.49c1.28-7.79,8.56-14.1,16.26-14.1h19.56c7.7,0,12.88,6.32,11.6,14.1l-6.48,38.89c23.44-45.47,41.93-50.87,58-51.92,16.6-1.07,29.81,.88,38.71,14.68,6.03,9.31,5.19,26.72,4.01,37.03,3.77-7.17,11.72-21.52,20.23-31.29,11.74-13.53,23.76-20.76,48.75-20.76s40.68,21.47,43.02,36.85c1.78,11.72-3.02,40.87-5.4,54.01Z"/>
      <path class="cls-3" d="M1129.65,301.39h-26.82s-.05,.02-.08,.02h-1.62c-6.95,0-13.57,5.13-15.72,11.88-.62,1.38-1.09,2.85-1.32,4.36l-10.31,64.53c-.03,.1-.03,.22-.06,.33-.05,.28-.12,.61-.2,.98v.06c-.43,2.49-.86,4.89-1.29,7.18-2.95,16.34-9.1,29.32-13.92,34.87,0,0-11.49,14.54-29.32,13.85-15.41-.61-14.08-20.09-13.89-22.77,1.24-16.95,15.32-101.18,15.32-101.18,1.27-10.53-3.91-14.08-11.58-14.08h-25.09c-7.67,0-14.97,6.29-16.25,14.08l-10.74,64.67c-2.37,13.14-7.18,42.29-5.4,54.03,2.35,15.37,18.02,36.84,43,36.84s42.67-5.31,55.13-20.85c8.61-10.79,13.79-18.48,17.66-26.76l-4.73,34.22c-1.3,7.78,3.9,14.1,11.58,14.1h19.57c7.68,0,14.97-6.32,16.26-14.1l12.73-73.93c.1-.63,.17-1.24,.18-1.83l10.25-64.25c1.49-8.97-4.49-16.26-13.35-16.26Z"/>
      <path class="cls-3" d="M1217.44,376.98l.68-4.32c7.53-33.37,27.13-42.35,27.13-42.35,15.5-10.03,37.15-3.28,37.15-3.28l.38,.11c4.92,1.34,9.71,3.62,14.99,7.61,11.12,8.44,14.49,8.16,18.88,7.4,6.93-1.21,12.34-5.93,13.69-12.74,.93-4.78-1.35-11.69-10.2-17.87l-.03,.02s-24.9-18.45-71.82-11.6c-20.23,3.67-44.38,14.11-67.17,39.55-42.79,47.82-22.08,138.69,54.39,134.95,0,0,56.83,1.46,87.81-35.42,0,0,5.2-7.47,.9-14.3-4.28-6.83-12.83-3.72-15.29-1.86-2.46,1.86-30.3,25.16-57.52,23.61-18.64-1.06-29.25-11-33.4-24.96l-.08-.22c-.2-.67-.32-1.08-.5-1.82-.75-3.09-1.2-6.36-1.4-9.75-.92-9.03-.74-17.34,.14-24.85h0s.06-.38,.06-.38c.31-2.6,.73-5.14,1.2-7.54Z"/>
    </g>
    <path class="cls-2" d="M929.26,179.23c4.94-5.44,12.11-8.86,20.12-8.86,14.89,0,26.95,11.85,26.95,26.51,0,7.91-3.49,14.98-9.09,19.81l-240.71,241.6c-4.8,5.56-11.97,9.12-19.98,9.12-14.53,0-26.25-11.57-26.25-25.83,0-.87,2.99-91.58,2.99-91.58,0,0-116.63,116.67-117.11,117.09-5.1,4.74-11.88,7.58-19.41,7.58-15.6,0-28.18-12.42-28.18-27.67,0-.96,.04-1.9,.17-2.81,.3-11.62,1.75-47.64,1.75-47.64l-22.83,22.83c-5.17,6.09-12.89,10.03-21.6,10.03-15.48,0-28.03-12.37-28.03-27.59v-.8c0-9.79,4.38-100.1,4.38-100.1l-221.29,217.29c-.67,.68-1.34,1.41-2.07,2.03-5.14,4.44-11.61,7.06-18.77,7.06-15.47,0-28.04-12.33-28.04-27.56,0-8.16,3.62-15.52,9.39-20.56,10.16-10.39,275.71-271.39,275.71-271.39,4.78-5.27,11.62-8.57,19.31-8.57,14.19,0,25.76,11.29,25.76,25.32,0,.76-.05,1.44-.11,2.18,.04,.43,.06,.92,.06,1.46,0,6.91-2.96,111.7-2.96,111.7l28.5-27.86c4.61-4.57,11.04-7.4,18.11-7.4,14.12,0,25.56,11.29,25.56,25.18,0,.77-.05,1.53-.11,2.28l-.67,44.13,113.76-111.23c4.91-5.46,12.11-8.91,20.14-8.91,14.82,0,26.82,11.76,26.82,26.38l-2.76,85.01,190.48-188.23Z"/>
  </g>
  <rect class="cls-1" width="1805.91" height="1080"/>
</svg>