<svg width="26" height="26" viewBox="0 0 26 26" fill="none" xmlns="http://www.w3.org/2000/svg">
<path fill-rule="evenodd" clip-rule="evenodd" d="M16.2413 24.0766H16.2558C18.5897 25.5632 21.6402 25.2266 23.5988 23.2703L24.4244 22.4447C25.1919 21.6772 25.1919 20.4327 24.4244 19.6627L20.9478 16.1883C20.1803 15.4207 18.9359 15.4207 18.1684 16.1883C17.3985 16.9558 16.1541 16.9558 15.3842 16.1883L9.82068 10.6219C9.05079 9.85195 9.05079 8.60745 9.82068 7.83992C10.5881 7.0724 10.5881 5.82548 9.82068 5.05795L6.34407 1.58109C5.97607 1.21065 5.47491 1 4.94955 1C4.4266 1 3.92303 1.20822 3.55503 1.57867L2.72703 2.4043C0.770831 4.36064 0.439148 7.41379 1.92325 9.74784V9.75995C5.73639 15.4038 10.5978 20.2632 16.2413 24.0766Z" stroke="#FF1E2D" stroke-width="1.5" stroke-linecap="round" stroke-linejoin="round"/>
</svg>
