<svg width="20" height="25" viewBox="0 0 20 25" fill="none" xmlns="http://www.w3.org/2000/svg">
<g clip-path="url(#clip0_2173_7329)">
<path d="M0 25C0 19.5095 4.45644 15.0531 9.95608 15.0531C15.4557 15.0531 19.9122 19.5095 19.9122 25H0Z" fill="#EF9412"/>
<path d="M9.95638 12.8385C13.3172 12.8385 16.0417 10.1182 16.0417 6.76241C16.0417 3.40666 13.3172 0.686279 9.95638 0.686279C6.59557 0.686279 3.87109 3.40666 3.87109 6.76241C3.87109 10.1182 6.59557 12.8385 9.95638 12.8385Z" fill="white"/>
<path d="M9.95617 13.5249C6.22264 13.5249 3.18457 10.4868 3.18457 6.76244C3.18457 3.03807 6.22264 0 9.95617 0C13.6897 0 16.7278 3.03807 16.7278 6.76244C16.7278 10.496 13.6897 13.5249 9.95617 13.5249ZM9.95617 1.37262C6.98215 1.37262 4.55719 3.78843 4.55719 6.76244C4.55719 9.73646 6.98215 12.1523 9.95617 12.1523C12.9302 12.1523 15.3551 9.73646 15.3551 6.76244C15.3551 3.78843 12.9302 1.37262 9.95617 1.37262Z" fill="#046AAF"/>
<path d="M4.71289 3.67864C7.632 6.69841 12.125 7.60434 15.9867 5.93889C14.7422 2.27857 12.8663 0.585669 10.3498 0.869344C7.83332 1.14387 5.9574 2.0864 4.71289 3.67864Z" fill="#046AAF"/>
</g>
<defs>
<clipPath id="clip0_2173_7329">
<rect width="19.9122" height="25" fill="white"/>
</clipPath>
</defs>
</svg>
