<svg width="70" height="58" viewBox="0 0 70 58" fill="none" xmlns="http://www.w3.org/2000/svg">
<g clip-path="url(#clip0_2173_5234)">
<path fill-rule="evenodd" clip-rule="evenodd" d="M69.5 19.46C69.5171 16.9478 69.0393 14.4568 68.0937 12.1293C67.1481 9.80178 65.7533 7.68331 63.989 5.89484C62.2247 4.10637 60.1254 2.68294 57.8109 1.70582C55.4965 0.728691 53.0122 0.217014 50.5 0.2C47.6292 0.19595 44.796 0.852919 42.22 2.12C38.816 0.71985 35.1708 -0.00036054 31.49 1.354e-07C23.8994 0.0396889 16.635 3.0911 11.2929 8.4838C5.95086 13.8765 2.9681 21.1694 3.00001 28.76C3.00271 31.1195 3.29148 33.47 3.86001 35.76C2.63721 36.9431 1.66523 38.3604 1.00205 39.9272C0.338873 41.4941 -0.00191834 43.1785 8.12214e-06 44.88C0.042214 48.3174 1.4442 51.5981 3.89923 54.0045C6.35427 56.4108 9.66246 57.7467 13.1 57.72C15.7977 57.7266 18.4326 56.9064 20.65 55.37C24.3634 56.9019 28.3592 57.6294 32.3742 57.5047C36.3891 57.3801 40.3321 56.406 43.9433 54.6467C47.5544 52.8874 50.7518 50.3829 53.3247 47.2981C55.8975 44.2133 57.7875 40.6183 58.87 36.75C62.0728 35.1396 64.7638 32.669 66.6413 29.6152C68.5188 26.5613 69.5087 23.0448 69.5 19.46Z" fill="#E1F7FF"/>
<path d="M26.9805 19.6801C26.9805 19.139 27.087 18.6033 27.2941 18.1034C27.5011 17.6035 27.8046 17.1494 28.1872 16.7668C28.5698 16.3842 29.024 16.0807 29.5238 15.8737C30.0237 15.6666 30.5594 15.5601 31.1005 15.5601C31.6415 15.5601 32.1773 15.6666 32.6771 15.8737C33.177 16.0807 33.6312 16.3842 34.0137 16.7668C34.3963 17.1494 34.6998 17.6035 34.9069 18.1034C35.1139 18.6033 35.2205 19.139 35.2205 19.6801V21.0501H26.9805V19.6801Z" fill="#F29400"/>
<path d="M22.02 40.33H20.81C20.0682 40.3301 19.3565 40.0368 18.8301 39.5141C18.3037 38.9914 18.0053 38.2818 18 37.54V23.11C18 22.3648 18.2961 21.6501 18.823 21.1231C19.35 20.5961 20.0647 20.3 20.81 20.3H37.29C38.0353 20.3 38.75 20.5961 39.277 21.1231C39.8039 21.6501 40.1 22.3648 40.1 23.11V35.47C40.1 35.669 40.021 35.8597 39.8803 36.0004C39.7397 36.141 39.5489 36.22 39.35 36.22C39.1511 36.22 38.9603 36.141 38.8197 36.0004C38.679 35.8597 38.6 35.669 38.6 35.47V23.11C38.6 22.7626 38.462 22.4294 38.2163 22.1837C37.9706 21.9381 37.6374 21.8 37.29 21.8H20.81C20.4626 21.8 20.1294 21.9381 19.8837 22.1837C19.638 22.4294 19.5 22.7626 19.5 23.11V37.54C19.5 37.7121 19.5339 37.8824 19.5997 38.0414C19.6656 38.2003 19.762 38.3447 19.8837 38.4664C20.0053 38.588 20.1497 38.6845 20.3087 38.7503C20.4676 38.8162 20.638 38.85 20.81 38.85H22.02C22.2189 38.85 22.4097 38.9291 22.5503 39.0697C22.691 39.2104 22.77 39.4011 22.77 39.6C22.77 39.799 22.691 39.9897 22.5503 40.1304C22.4097 40.271 22.2189 40.35 22.02 40.35V40.33Z" fill="#046AAF"/>
<path d="M47.5896 40.3301H43.2896C43.0907 40.3301 42.8999 40.2511 42.7593 40.1104C42.6186 39.9698 42.5396 39.779 42.5396 39.5801C42.5396 39.3812 42.6186 39.1904 42.7593 39.0498C42.8999 38.9091 43.0907 38.8301 43.2896 38.8301H47.5896C47.9319 38.8275 48.2595 38.6911 48.5025 38.45C48.7454 38.2089 48.8844 37.8823 48.8896 37.5401V31.4401C48.89 31.2247 48.8372 31.0126 48.7361 30.8225C48.6349 30.6324 48.4884 30.4701 48.3096 30.3501L46.1396 28.9001C46.0551 28.8442 45.9824 28.7721 45.9258 28.688C45.8691 28.6039 45.8297 28.5095 45.8096 28.4101L45.1696 24.8201C45.093 24.5482 44.9291 24.3089 44.7033 24.1391C44.4775 23.9693 44.2022 23.8783 43.9196 23.8801H40.0996V35.6401C40.0996 35.839 40.0206 36.0298 39.8799 36.1704C39.7393 36.3111 39.5485 36.3901 39.3496 36.3901C39.1507 36.3901 38.9599 36.3111 38.8193 36.1704C38.6786 36.0298 38.5996 35.839 38.5996 35.6401V23.1101C38.5996 22.9112 38.6786 22.7204 38.8193 22.5798C38.9599 22.4391 39.1507 22.3601 39.3496 22.3601H43.9196C44.5531 22.3607 45.1676 22.5768 45.662 22.973C46.1563 23.3693 46.5011 23.9219 46.6396 24.5401L47.2296 27.8601L49.1396 29.1301C49.5231 29.3861 49.8378 29.7326 50.0558 30.1389C50.2738 30.5452 50.3884 30.999 50.3896 31.4601V37.5401C50.3843 38.2802 50.0873 38.9883 49.5631 39.5106C49.0388 40.033 48.3297 40.3275 47.5896 40.3301Z" fill="#046AAF"/>
<path d="M40.3798 42.39C39.6204 42.3919 38.8773 42.1687 38.2448 41.7484C37.6122 41.3281 37.1185 40.7296 36.826 40.0287C36.5335 39.3278 36.4555 38.5559 36.6017 37.8106C36.7479 37.0654 37.1119 36.3802 37.6475 35.8418C38.1831 35.3033 38.8664 34.9358 39.6109 34.7857C40.3554 34.6356 41.1277 34.7097 41.8301 34.9985C42.5325 35.2873 43.1335 35.7779 43.5571 36.4083C43.9807 37.0387 44.2079 37.7805 44.2098 38.54C44.2111 39.0442 44.1131 39.5438 43.9214 40.0102C43.7296 40.4766 43.4478 40.9007 43.0922 41.2582C42.7365 41.6157 42.314 41.8996 41.8486 42.0938C41.3832 42.288 40.8841 42.3887 40.3798 42.39ZM40.3798 36.22C39.9158 36.218 39.4616 36.3541 39.075 36.6109C38.6885 36.8677 38.387 37.2336 38.209 37.6622C38.0309 38.0908 37.9843 38.5626 38.0751 39.0177C38.1659 39.4728 38.39 39.8907 38.7188 40.2181C39.0477 40.5456 39.4665 40.7678 39.922 40.8567C40.3775 40.9455 40.8491 40.8969 41.2769 40.717C41.7047 40.5371 42.0694 40.2341 42.3245 39.8464C42.5797 39.4588 42.7138 39.004 42.7098 38.54C42.7072 37.9237 42.4605 37.3337 42.0239 36.8989C41.5872 36.4641 40.9961 36.22 40.3798 36.22ZM24.9298 42.39C24.1708 42.39 23.4288 42.165 22.7975 41.7435C22.1662 41.322 21.674 40.7229 21.3831 40.0218C21.0922 39.3207 21.0155 38.5491 21.1629 37.8045C21.3103 37.0599 21.675 36.3756 22.211 35.8382C22.7471 35.3008 23.4303 34.9343 24.1746 34.785C24.9188 34.6357 25.6906 34.7103 26.3924 34.9994C27.0943 35.2885 27.6947 35.7791 28.1178 36.4093C28.541 37.0395 28.7679 37.7809 28.7698 38.54C28.7711 39.0451 28.6728 39.5455 28.4804 40.0125C28.288 40.4796 28.0054 40.9041 27.6487 41.2617C27.292 41.6194 26.8682 41.9031 26.4016 42.0967C25.9351 42.2903 25.435 42.39 24.9298 42.39ZM24.9298 36.22C24.4662 36.22 24.013 36.3577 23.6277 36.6158C23.2425 36.8738 22.9426 37.2404 22.7661 37.6692C22.5896 38.0979 22.5444 38.5694 22.6364 39.0239C22.7283 39.4783 22.9531 39.8952 23.2824 40.2217C23.6117 40.5481 24.0305 40.7694 24.4857 40.8574C24.9409 40.9454 25.412 40.8962 25.8393 40.716C26.2665 40.5359 26.6305 40.2328 26.8852 39.8454C27.1399 39.458 27.2738 39.0036 27.2698 38.54C27.2685 38.234 27.207 37.9313 27.0887 37.6491C26.9703 37.3669 26.7976 37.1108 26.5803 36.8953C26.363 36.6799 26.1054 36.5094 25.8222 36.3935C25.5391 36.2776 25.2358 36.2186 24.9298 36.22Z" fill="#046AAF"/>
<path d="M37.4598 40.33H27.8398C27.6409 40.33 27.4502 40.2509 27.3095 40.1103C27.1689 39.9696 27.0898 39.7789 27.0898 39.58C27.0898 39.381 27.1689 39.1903 27.3095 39.0496C27.4502 38.909 27.6409 38.83 27.8398 38.83H37.4598C37.6588 38.83 37.8495 38.909 37.9902 39.0496C38.1308 39.1903 38.2098 39.381 38.2098 39.58C38.2098 39.7789 38.1308 39.9696 37.9902 40.1103C37.8495 40.2509 37.6588 40.33 37.4598 40.33ZM29.0498 33.13C28.8509 33.13 28.6602 33.0509 28.5195 32.9103C28.3789 32.7696 28.2998 32.5789 28.2998 32.38V26.2C28.2998 26.001 28.3789 25.8103 28.5195 25.6696C28.6602 25.529 28.8509 25.45 29.0498 25.45C29.2488 25.45 29.4395 25.529 29.5802 25.6696C29.7208 25.8103 29.7998 26.001 29.7998 26.2V32.38C29.7973 32.5781 29.7174 32.7673 29.5773 32.9074C29.4372 33.0475 29.2479 33.1274 29.0498 33.13Z" fill="#046AAF"/>
<path d="M32.1396 30.04H25.9596C25.7607 30.04 25.57 29.961 25.4293 29.8203C25.2886 29.6797 25.2096 29.4889 25.2096 29.29C25.2096 29.0911 25.2886 28.9003 25.4293 28.7597C25.57 28.619 25.7607 28.54 25.9596 28.54H32.1396C32.3385 28.54 32.5293 28.619 32.67 28.7597C32.8106 28.9003 32.8896 29.0911 32.8896 29.29C32.8896 29.4889 32.8106 29.6797 32.67 29.8203C32.5293 29.961 32.3385 30.04 32.1396 30.04ZM31.1096 13.54C31.0108 13.5413 30.9126 13.5229 30.821 13.4857C30.7294 13.4484 30.6462 13.3932 30.5763 13.3233C30.5064 13.2534 30.4512 13.1702 30.414 13.0786C30.3768 12.987 30.3583 12.8889 30.3596 12.79V10.75C30.3596 10.5511 30.4386 10.3603 30.5793 10.2197C30.72 10.079 30.9107 10 31.1096 10C31.3085 10 31.4993 10.079 31.64 10.2197C31.7806 10.3603 31.8596 10.5511 31.8596 10.75V12.81C31.8544 13.0054 31.7731 13.1911 31.633 13.3274C31.4929 13.4638 31.3051 13.5401 31.1096 13.54ZM25.9596 15.62C25.821 15.6203 25.6849 15.5821 25.5667 15.5097C25.4484 15.4373 25.3525 15.3336 25.2896 15.21L24.2896 13.15C24.2171 13.0638 24.1648 12.9624 24.1368 12.8533C24.1088 12.7442 24.1058 12.6302 24.1279 12.5197C24.15 12.4092 24.1967 12.3052 24.2645 12.2152C24.3323 12.1253 24.4196 12.0518 24.5197 12.0002C24.6198 11.9486 24.7303 11.9202 24.8429 11.9171C24.9555 11.9141 25.0674 11.9364 25.1702 11.9825C25.273 12.0286 25.364 12.0973 25.4367 12.1834C25.5093 12.2695 25.5616 12.3709 25.5896 12.48L26.5896 14.54C26.6342 14.6272 26.6611 14.7224 26.6687 14.8201C26.6762 14.9177 26.6643 15.0159 26.6336 15.109C26.6029 15.202 26.554 15.288 26.4898 15.362C26.4256 15.436 26.3474 15.4965 26.2596 15.54C26.1668 15.5885 26.0643 15.6158 25.9596 15.62ZM36.2596 15.62C36.1413 15.6234 36.0241 15.5958 35.9196 15.54C35.8319 15.4965 35.7536 15.436 35.6894 15.362C35.6252 15.288 35.5764 15.202 35.5457 15.109C35.515 15.0159 35.5031 14.9177 35.5106 14.8201C35.5182 14.7224 35.545 14.6272 35.5896 14.54L36.5896 12.48C36.6778 12.3029 36.8323 12.1678 37.0196 12.1041C37.2069 12.0404 37.4118 12.0533 37.5896 12.14C37.7649 12.2301 37.8983 12.3847 37.9617 12.5713C38.0252 12.7578 38.0137 12.9618 37.9296 13.14L36.9296 15.2C36.8682 15.3255 36.7729 15.4313 36.6545 15.5055C36.5361 15.5797 36.3993 15.6193 36.2596 15.62Z" fill="#046AAF"/>
</g>
<defs>
<clipPath id="clip0_2173_5234">
<rect width="69.5" height="57.72" fill="white"/>
</clipPath>
</defs>
</svg>
