<svg width="70" height="58" viewBox="0 0 70 58" fill="none" xmlns="http://www.w3.org/2000/svg">
<g clip-path="url(#clip0_2173_5265)">
<path fill-rule="evenodd" clip-rule="evenodd" d="M69.5 19.46C69.5171 16.9478 69.0393 14.4568 68.0937 12.1293C67.1481 9.80178 65.7533 7.68331 63.989 5.89484C62.2247 4.10637 60.1254 2.68294 57.8109 1.70582C55.4965 0.728691 53.0122 0.217014 50.5 0.2C47.6292 0.19595 44.796 0.852919 42.22 2.12C38.816 0.71985 35.1708 -0.00036054 31.49 1.354e-07C23.8994 0.0396889 16.635 3.0911 11.2929 8.4838C5.95086 13.8765 2.9681 21.1694 3.00001 28.76C3.00271 31.1195 3.29148 33.47 3.86001 35.76C2.63721 36.9431 1.66523 38.3604 1.00205 39.9272C0.338873 41.4941 -0.00191834 43.1785 8.12214e-06 44.88C0.042214 48.3174 1.4442 51.5981 3.89923 54.0045C6.35427 56.4108 9.66246 57.7467 13.1 57.72C15.7977 57.7266 18.4326 56.9064 20.65 55.37C24.3634 56.9019 28.3592 57.6294 32.3742 57.5047C36.3891 57.3801 40.3321 56.406 43.9433 54.6467C47.5544 52.8874 50.7518 50.3829 53.3247 47.2981C55.8975 44.2133 57.7875 40.6183 58.87 36.75C62.0728 35.1396 64.7638 32.669 66.6413 29.6152C68.5188 26.5613 69.5087 23.0448 69.5 19.46Z" fill="#E1F7FF"/>
<path d="M49.2901 43.7897L49.4201 42.3697C49.4929 41.452 49.2283 40.5393 48.676 39.8028C48.1236 39.0663 47.3215 38.5568 46.4201 38.3697L41.8101 37.3697V30.0497C41.8101 29.4211 41.5605 28.8183 41.116 28.3738C40.6715 27.9294 40.0687 27.6797 39.4401 27.6797C38.8116 27.6797 38.2088 27.9294 37.7643 28.3738C37.3198 28.8183 37.0701 29.4211 37.0701 30.0497V41.6697L35.2101 40.2697C34.834 40.0076 34.3773 39.8872 33.9209 39.9298C33.4644 39.9724 33.0379 40.1753 32.7167 40.5024C32.3956 40.8295 32.2007 41.2598 32.1665 41.7169C32.1324 42.174 32.2612 42.6285 32.5301 42.9997L33.1301 43.7997" stroke="#046AAF" stroke-width="1.5" stroke-linecap="round" stroke-linejoin="round"/>
<path d="M47.54 34.3096V17.2496C47.54 16.7457 47.3398 16.2624 46.9835 15.9061C46.6272 15.5498 46.1439 15.3496 45.64 15.3496H22.9C22.3961 15.3496 21.9128 15.5498 21.5565 15.9061C21.2002 16.2624 21 16.7457 21 17.2496V38.0996C21 38.6035 21.2002 39.0868 21.5565 39.4431C21.9128 39.7994 22.3961 39.9996 22.9 39.9996H28.58" stroke="#046AAF" stroke-width="1.5" stroke-linecap="round" stroke-linejoin="round"/>
<path d="M21 20.9995H47.54" stroke="#046AAF" stroke-width="1.5" stroke-linecap="round" stroke-linejoin="round"/>
<path d="M24.79 25.7795C24.7897 25.5228 24.8882 25.2757 25.065 25.0895C25.2419 24.9034 25.4836 24.7924 25.74 24.7795H31.43C31.6865 24.7924 31.9282 24.9034 32.105 25.0895C32.2819 25.2757 32.3804 25.5228 32.38 25.7795V31.4695C32.3655 31.7158 32.2605 31.948 32.0851 32.1215C31.9098 32.2951 31.6765 32.3976 31.43 32.4095H25.74C25.4936 32.3976 25.2603 32.2951 25.085 32.1215C24.9096 31.948 24.8046 31.7158 24.79 31.4695V25.7795Z" fill="#F29400"/>
<path d="M24.79 36.2097H32.38" stroke="#046AAF" stroke-width="1.5" stroke-linecap="round" stroke-linejoin="round"/>
<path d="M36.1699 24.8296H43.7399" stroke="#046AAF" stroke-width="1.5" stroke-linecap="round" stroke-linejoin="round"/>
</g>
<defs>
<clipPath id="clip0_2173_5265">
<rect width="69.5" height="57.72" fill="white"/>
</clipPath>
</defs>
</svg>
