<svg width="70" height="60" viewBox="0 0 70 60" fill="none" xmlns="http://www.w3.org/2000/svg">
<path d="M32.0402 59.5702C47.83 59.5702 60.6302 46.3312 60.6302 30.0002C60.6302 13.6691 47.83 0.430176 32.0402 0.430176C16.2504 0.430176 3.4502 13.6691 3.4502 30.0002C3.4502 46.3312 16.2504 59.5702 32.0402 59.5702Z" fill="#E1F7FF"/>
<path d="M50.2801 40.8399C60.895 40.8399 69.5001 32.0155 69.5001 21.1299C69.5001 10.2444 60.895 1.41992 50.2801 1.41992C39.6651 1.41992 31.0601 10.2444 31.0601 21.1299C31.0601 32.0155 39.6651 40.8399 50.2801 40.8399Z" fill="#E1F7FF"/>
<path d="M12.82 58.58C19.6241 58.58 25.14 52.8447 25.14 45.77C25.14 38.6952 19.6241 32.96 12.82 32.96C6.01585 32.96 0.5 38.6952 0.5 45.77C0.5 52.8447 6.01585 58.58 12.82 58.58Z" fill="#E1F7FF"/>
<path d="M17 24V20C17 19.4696 17.2107 18.9609 17.5858 18.5858C17.9609 18.2107 18.4696 18 19 18H45C45.5304 18 46.0391 18.2107 46.4142 18.5858C46.7893 18.9609 47 19.4696 47 20V24" fill="#F29400"/>
<path d="M45 42.73H19C18.2776 42.7248 17.5862 42.4355 17.0754 41.9246C16.5646 41.4138 16.2753 40.7224 16.27 40V20C16.2753 19.2776 16.5646 18.5862 17.0754 18.0754C17.5862 17.5646 18.2776 17.2753 19 17.27H45C45.7224 17.2753 46.4138 17.5646 46.9246 18.0754C47.4355 18.5862 47.7248 19.2776 47.73 20V40C47.7248 40.7224 47.4355 41.4138 46.9246 41.9246C46.4138 42.4355 45.7224 42.7248 45 42.73ZM19 18.73C18.8359 18.7326 18.6738 18.7675 18.5232 18.8328C18.3725 18.898 18.2362 18.9923 18.1219 19.1102C18.0077 19.2282 17.9179 19.3674 17.8575 19.5201C17.7971 19.6728 17.7674 19.8359 17.77 20V40C17.7752 40.3246 17.9064 40.6345 18.136 40.8641C18.3655 41.0936 18.6754 41.2249 19 41.23H45C45.3246 41.2249 45.6345 41.0936 45.8641 40.8641C46.0936 40.6345 46.2249 40.3246 46.23 40V20C46.2249 19.6754 46.0936 19.3655 45.8641 19.136C45.6345 18.9064 45.3246 18.7752 45 18.77L19 18.73Z" fill="#046AAF"/>
<path d="M47 24.7603H17C16.8011 24.7603 16.6103 24.6812 16.4697 24.5406C16.329 24.3999 16.25 24.2092 16.25 24.0103C16.25 23.8113 16.329 23.6206 16.4697 23.4799C16.6103 23.3393 16.8011 23.2603 17 23.2603H47C47.1989 23.2603 47.3897 23.3393 47.5303 23.4799C47.671 23.6206 47.75 23.8113 47.75 24.0103C47.75 24.2092 47.671 24.3999 47.5303 24.5406C47.3897 24.6812 47.1989 24.7603 47 24.7603ZM43 30.7503H35C34.8011 30.7503 34.6103 30.6712 34.4697 30.5306C34.329 30.3899 34.25 30.1992 34.25 30.0003C34.25 29.8013 34.329 29.6106 34.4697 29.4699C34.6103 29.3293 34.8011 29.2503 35 29.2503H43C43.1989 29.2503 43.3897 29.3293 43.5303 29.4699C43.671 29.6106 43.75 29.8013 43.75 30.0003C43.75 30.1992 43.671 30.3899 43.5303 30.5306C43.3897 30.6712 43.1989 30.7503 43 30.7503ZM39 36.7403H35C34.8011 36.7403 34.6103 36.6612 34.4697 36.5206C34.329 36.3799 34.25 36.1892 34.25 35.9903C34.25 35.7913 34.329 35.6006 34.4697 35.4599C34.6103 35.3193 34.8011 35.2403 35 35.2403H39C39.1989 35.2403 39.3897 35.3193 39.5303 35.4599C39.671 35.6006 39.75 35.7913 39.75 35.9903C39.75 36.1892 39.671 36.3799 39.5303 36.5206C39.3897 36.6612 39.1989 36.7403 39 36.7403ZM24.13 36.5903C23.7327 36.5877 23.3523 36.4298 23.07 36.1503L21.35 34.4303C21.2175 34.2881 21.1454 34.1 21.1488 33.9057C21.1523 33.7114 21.231 33.526 21.3684 33.3886C21.5058 33.2512 21.6912 33.1725 21.8855 33.1691C22.0798 33.1656 22.2678 33.2378 22.41 33.3703L24.13 35.0903L29.6 29.6203C29.7406 29.4798 29.9312 29.4009 30.13 29.4009C30.3287 29.4009 30.5194 29.4798 30.66 29.6203C30.7308 29.6892 30.787 29.7716 30.8254 29.8626C30.8638 29.9537 30.8836 30.0515 30.8836 30.1503C30.8836 30.249 30.8638 30.3468 30.8254 30.4379C30.787 30.5289 30.7308 30.6113 30.66 30.6803L25.2 36.1503C24.9153 36.4322 24.5307 36.5904 24.13 36.5903Z" fill="#046AAF"/>
</svg>
