<svg width="26" height="26" viewBox="0 0 26 26" fill="none" xmlns="http://www.w3.org/2000/svg">
<path d="M19.6286 26.0004C18.378 26.0004 17.1273 25.6451 16.0083 24.9346L15.982 24.9214C10.0711 20.9346 5.05543 15.9214 1.07973 10.0267C-0.644823 7.31617 -0.263051 3.88196 1.97492 1.63196L2.81746 0.789859C3.85746 -0.249614 5.56885 -0.249614 6.60885 0.789859L10.1896 4.36881C10.6899 4.86881 10.9795 5.55302 10.9795 6.26354C10.9795 6.97407 10.6899 7.65828 10.1896 8.15828C9.66302 8.6846 9.66302 9.55302 10.1896 10.0925L15.9162 15.8162C16.4296 16.3293 17.338 16.3293 17.8514 15.8162C18.865 14.803 20.6291 14.803 21.6428 15.8162L25.2235 19.3951C26.2635 20.4346 26.2635 22.1451 25.2235 23.1846L24.3678 24.0267C23.0645 25.3293 21.3531 26.0004 19.6286 26.0004ZM16.6929 23.8162C18.865 25.1978 21.6296 24.8951 23.4331 23.0793L24.2888 22.2372C24.8154 21.7109 24.8154 20.8425 24.2888 20.303L20.7081 16.7241C20.1947 16.2109 19.2995 16.2109 18.7729 16.7241C17.7724 17.7241 15.982 17.7241 14.9815 16.7241L9.26809 11.0135C8.76783 10.5135 8.47821 9.82933 8.47821 9.11881C8.47821 8.40828 8.75467 7.72407 9.26809 7.22407C9.51821 6.97407 9.66302 6.61881 9.66302 6.26354C9.66302 5.89512 9.51821 5.55302 9.26809 5.30302L5.68733 1.71091C5.16075 1.17144 4.29188 1.1846 3.75214 1.71091L2.90961 2.56617C1.10606 4.36881 0.803278 7.14512 2.17239 9.30302C6.05594 15.0399 10.94 19.9214 16.6929 23.8162Z" fill="#666666"/>
</svg>
