<svg width="16" height="28" viewBox="0 0 16 28" fill="none" xmlns="http://www.w3.org/2000/svg">
<path d="M12.2227 1H3.58984C2.15951 1 1 2.16406 1 3.6V24.4C1 25.8359 2.15951 27 3.58984 27H12.2227C13.653 27 14.8125 25.8359 14.8125 24.4V3.6C14.8125 2.16406 13.653 1 12.2227 1Z" stroke="#046AAF" stroke-linecap="round" stroke-linejoin="round"/>
<path d="M3.4375 1H4.77813C4.89664 1 5.01031 1.05707 5.09411 1.15865C5.17792 1.26023 5.225 1.39801 5.225 1.54167C5.225 1.82898 5.31916 2.10453 5.48677 2.3077C5.65438 2.51086 5.88171 2.625 6.11875 2.625H9.69375C9.93079 2.625 10.1581 2.51086 10.3257 2.3077C10.4933 2.10453 10.5875 1.82898 10.5875 1.54167C10.5875 1.39801 10.6346 1.26023 10.7184 1.15865C10.8022 1.05707 10.9159 1 11.0344 1H12.375" stroke="#046AAF" stroke-linecap="round" stroke-linejoin="round"/>
</svg>
