<svg width="35" height="34" viewBox="0 0 35 34" fill="none" xmlns="http://www.w3.org/2000/svg">
<path fill-rule="evenodd" clip-rule="evenodd" d="M6.92325 3.1875L6.92627 3.1875H27.1138V4.25L27.1168 3.1875C28.3829 3.19111 29.5962 3.69568 30.4915 4.59099C31.3868 5.4863 31.8914 6.69957 31.895 7.96573L31.895 7.96875V20.7188L31.895 20.7218C31.8914 21.9879 31.3868 23.2012 30.4915 24.0965C29.5962 24.9918 28.3829 25.4964 27.1168 25.5L27.1138 25.5H16.3391L10.2629 30.5661C9.94624 30.8301 9.50539 30.8871 9.13198 30.7122C8.75856 30.5374 8.52002 30.1623 8.52002 29.75V25.5H6.92627L6.92325 25.5C5.65709 25.4964 4.44382 24.9918 3.54851 24.0965C2.6532 23.2012 2.14863 21.9879 2.14502 20.7218L2.14502 20.7188V7.96875L2.14502 7.96573C2.14863 6.69957 2.6532 5.4863 3.54851 4.59099C4.44382 3.69568 5.65709 3.19111 6.92325 3.1875ZM16.4872 25.3765C16.487 25.3767 16.4868 25.3769 16.4865 25.3771L16.4872 25.3765ZM27.1121 5.3125H6.92791C6.22374 5.31487 5.54906 5.59564 5.05111 6.09359C4.55316 6.59154 4.27239 7.26622 4.27002 7.97039V20.7171C4.27239 21.4213 4.55316 22.096 5.05111 22.5939C5.54908 23.0919 6.22379 23.3727 6.92798 23.375H9.58252C10.1693 23.375 10.645 23.8507 10.645 24.4375V27.4808L15.125 23.7455C15.1252 23.7453 15.1255 23.7451 15.1257 23.7449C15.4123 23.5059 15.7736 23.375 16.1468 23.375C16.1468 23.375 16.1469 23.375 16.147 23.375H27.1121C27.8162 23.3727 28.491 23.0919 28.9889 22.5939C29.4869 22.0959 29.7677 21.4212 29.77 20.717V7.97046C29.7677 7.26627 29.4869 6.59156 28.9889 6.09359C28.491 5.59564 27.8163 5.31487 27.1121 5.3125Z" fill="#666666"/>
</svg>
