<svg width="27" height="27" viewBox="0 0 27 27" fill="none" xmlns="http://www.w3.org/2000/svg">
<path d="M10.1213 11.3975H13.4719C13.8274 11.3975 14.1683 11.2563 14.4196 11.005C14.671 10.7536 14.8122 10.4127 14.8122 10.0572C14.8122 9.70179 14.671 9.36089 14.4196 9.10954C14.1683 8.8582 13.8274 8.71699 13.4719 8.71699H12.1316V8.04686C12.1316 7.6914 11.9904 7.35051 11.7391 7.09916C11.4878 6.84781 11.1469 6.70661 10.7914 6.70661C10.4359 6.70661 10.095 6.84781 9.84369 7.09916C9.59234 7.35051 9.45114 7.6914 9.45114 8.04686V8.784C8.63683 8.94935 7.91301 9.41138 7.42019 10.0804C6.92737 10.7494 6.70072 11.5776 6.78422 12.4044C6.86773 13.2311 7.25544 13.9973 7.87209 14.5542C8.48874 15.1112 9.29034 15.4191 10.1213 15.4183H11.4615C11.6392 15.4183 11.8097 15.4889 11.9354 15.6145C12.061 15.7402 12.1316 15.9107 12.1316 16.0884C12.1316 16.2661 12.061 16.4366 11.9354 16.5623C11.8097 16.6879 11.6392 16.7585 11.4615 16.7585H8.11088C7.75542 16.7585 7.41453 16.8997 7.16318 17.1511C6.91183 17.4024 6.77063 17.7433 6.77063 18.0988C6.77063 18.4542 6.91183 18.7951 7.16318 19.0465C7.41453 19.2978 7.75542 19.439 8.11088 19.439H9.45114V20.1092C9.45114 20.4646 9.59234 20.8055 9.84369 21.0569C10.095 21.3082 10.4359 21.4494 10.7914 21.4494C11.1469 21.4494 11.4878 21.3082 11.7391 21.0569C11.9904 20.8055 12.1316 20.4646 12.1316 20.1092V19.372C12.946 19.2067 13.6698 18.7447 14.1626 18.0756C14.6554 17.4066 14.8821 16.5784 14.7986 15.7517C14.7151 14.9249 14.3273 14.1587 13.7107 13.6018C13.094 13.0449 12.2924 12.7369 11.4615 12.7378H10.1213C9.94354 12.7378 9.77309 12.6672 9.64741 12.5415C9.52174 12.4158 9.45114 12.2454 9.45114 12.0676C9.45114 11.8899 9.52174 11.7195 9.64741 11.5938C9.77309 11.4681 9.94354 11.3975 10.1213 11.3975ZM25.5342 13.4079H21.5134V1.34558C21.5144 1.10942 21.4529 0.877195 21.3352 0.672434C21.2175 0.467673 21.0478 0.297643 20.8433 0.17956C20.6396 0.0619283 20.4084 0 20.1732 0C19.9379 0 19.7068 0.0619283 19.5031 0.17956L15.4823 2.4848L11.4615 0.17956C11.2578 0.0619283 11.0267 0 10.7914 0C10.5561 0 10.325 0.0619283 10.1213 0.17956L6.1005 2.4848L2.07973 0.17956C1.87599 0.0619283 1.64487 0 1.4096 0C1.17434 0 0.943219 0.0619283 0.739474 0.17956C0.534946 0.297643 0.36525 0.467673 0.247571 0.672434C0.129892 0.877195 0.0684089 1.10942 0.0693465 1.34558V22.7897C0.0693465 23.8561 0.492962 24.8788 1.247 25.6328C2.00104 26.3868 3.02374 26.8104 4.09011 26.8104H22.8537C23.9201 26.8104 24.9428 26.3868 25.6968 25.6328C26.4508 24.8788 26.8745 23.8561 26.8745 22.7897V14.7481C26.8745 14.3927 26.7333 14.0518 26.4819 13.8004C26.2306 13.5491 25.8897 13.4079 25.5342 13.4079ZM4.09011 24.1299C3.73466 24.1299 3.39376 23.9887 3.14241 23.7374C2.89106 23.486 2.74986 23.1451 2.74986 22.7897V3.66423L5.43037 5.19212C5.63722 5.30016 5.86713 5.35658 6.1005 5.35658C6.33387 5.35658 6.56377 5.30016 6.77063 5.19212L10.7914 2.88688L14.8122 5.19212C15.019 5.30016 15.2489 5.35658 15.4823 5.35658C15.7157 5.35658 15.9456 5.30016 16.1524 5.19212L18.8329 3.66423V22.7897C18.8366 23.2469 18.9181 23.7001 19.0742 24.1299H4.09011ZM24.194 22.7897C24.194 23.1451 24.0527 23.486 23.8014 23.7374C23.5501 23.9887 23.2092 24.1299 22.8537 24.1299C22.4982 24.1299 22.1573 23.9887 21.906 23.7374C21.6546 23.486 21.5134 23.1451 21.5134 22.7897V16.0884H24.194V22.7897Z" fill="#FF1E2D"/>
</svg>
