<svg width="18" height="20" viewBox="0 0 18 20" fill="none" xmlns="http://www.w3.org/2000/svg">
<path d="M11.25 5.3125V0H3.4375C2.91797 0 2.5 0.417969 2.5 0.9375V10H0.3125C0.140625 10 0 10.1406 0 10.3125V10.9375C0 11.1094 0.140625 11.25 0.3125 11.25H5.81641C5.93359 11.25 6.04297 11.3164 6.09766 11.4219L6.875 12.9766L9.09375 8.53516C9.20703 8.30469 9.53906 8.30469 9.65234 8.53516L11.0078 11.25H13.75C14.0938 11.25 14.375 11.5312 14.375 11.875C14.375 12.2188 14.0938 12.5 13.75 12.5H10.2383L9.375 10.7734L7.15625 15.2148C7.04297 15.4453 6.71094 15.4453 6.59766 15.2148L5.23828 12.5H2.5V19.0625C2.5 19.582 2.91797 20 3.4375 20H16.5625C17.082 20 17.5 19.582 17.5 19.0625V6.25H12.1875C11.6719 6.25 11.25 5.82812 11.25 5.3125ZM17.2266 4.10156L13.4023 0.273438C13.2266 0.0976562 12.9883 0 12.7383 0H12.5V5H17.5V4.76172C17.5 4.51563 17.4023 4.27734 17.2266 4.10156Z" fill="#CCCCCC"/>
</svg>
