<svg width="132" height="51" viewBox="0 0 132 51" fill="none" xmlns="http://www.w3.org/2000/svg">
<g clip-path="url(#clip0_2742_4753)">
<path fill-rule="evenodd" clip-rule="evenodd" d="M131.387 25.1031L130.456 30.618C130.392 30.9477 130.219 31.2463 129.963 31.4645C129.707 31.6827 129.384 31.8076 129.047 31.8187H126.878C126.213 31.8187 125.765 31.5167 125.877 30.618C125.877 30.618 127.095 23.4356 127.201 21.9878C127.22 21.7609 127.359 20.0312 126.059 20.0312C124.759 20.0312 124.099 21.1294 124.099 21.1294C123.388 22.1084 122.908 23.2345 122.694 24.424C122.252 26.8383 121.603 30.6216 121.603 30.6216C121.54 30.9501 121.368 31.2477 121.114 31.4661C120.86 31.6844 120.539 31.8106 120.204 31.8242H117.978C117.817 31.8209 117.658 31.7835 117.512 31.7145C117.367 31.6455 117.238 31.5465 117.134 31.4239C117.029 31.3014 116.952 31.1581 116.908 31.0037C116.864 30.8493 116.853 30.6872 116.876 30.5283C116.876 30.5283 117.958 24.5338 118.237 23.0586C118.516 21.5833 118.532 20.0513 117.539 19.9305C116.654 19.8207 116.103 20.1483 115.392 20.961C114.549 21.9292 114 24.5979 113.897 25.1397L113.004 30.4477C112.931 30.828 112.73 31.1722 112.435 31.4239C112.14 31.6756 111.767 31.82 111.379 31.8333H109.056C108.881 31.839 108.708 31.8049 108.549 31.7337C108.39 31.6625 108.249 31.556 108.137 31.4224C108.026 31.2888 107.946 31.1315 107.905 30.9626C107.863 30.7937 107.861 30.6176 107.899 30.4477L108.786 25.1873C108.787 25.1344 108.793 25.0817 108.804 25.0299L109.906 18.5065C109.969 18.1767 110.142 17.8779 110.398 17.6594C110.653 17.4409 110.976 17.3155 111.313 17.3039H113.006C113.157 17.2994 113.308 17.3292 113.445 17.3911C113.583 17.4531 113.705 17.5455 113.802 17.6615C113.898 17.7774 113.967 17.9137 114.003 18.0601C114.039 18.2066 114.041 18.3592 114.009 18.5065L113.458 21.8231C115.478 17.9464 117.085 17.4851 118.476 17.3954C119.912 17.3039 121.047 17.4705 121.827 18.6474C122.349 19.4418 122.275 20.9262 122.173 21.8066C122.499 21.1934 123.188 19.9762 123.923 19.1379C124.939 17.983 125.98 17.3662 128.147 17.3662C130.314 17.3662 131.668 19.1965 131.87 20.5089C132.008 21.4973 131.591 23.9829 131.387 25.1031Z" fill="#717274"/>
<path fill-rule="evenodd" clip-rule="evenodd" d="M89.1391 17.2913H86.6707C86.3671 17.3013 86.0738 17.4039 85.8304 17.5852C85.5871 17.7666 85.4054 18.0179 85.3098 18.3053C85.2556 18.4217 85.2173 18.5448 85.1959 18.6714L84.3033 24.1752C84.304 24.1844 84.304 24.1935 84.3033 24.2027C84.3033 24.2271 84.2978 24.2545 84.2868 24.2851C84.2501 24.4974 84.2133 24.7024 84.1766 24.8982C83.9195 26.2911 83.3887 27.3985 82.9718 27.8707C82.9718 27.8707 81.9764 29.1117 80.4336 29.0531C79.1002 29.0001 79.2141 27.3399 79.2325 27.1111C79.339 25.6651 80.5585 18.481 80.5585 18.481C80.6687 17.5841 80.2187 17.2803 79.5557 17.2803H77.3849C77.0485 17.2918 76.726 17.4169 76.4704 17.635C76.2148 17.8532 76.0412 18.1515 75.978 18.481L75.0487 23.9977C74.843 25.1179 74.4261 27.6035 74.5804 28.6047C74.7842 29.9171 76.1396 31.7474 78.3013 31.7474C80.463 31.7474 81.9947 31.2935 83.0765 29.9683C83.8221 29.0531 84.2703 28.3924 84.6045 27.6877L84.1968 30.6053C84.1639 30.7525 84.1653 30.9052 84.2008 31.0518C84.2363 31.1984 84.305 31.335 84.4016 31.451C84.4982 31.5671 84.6202 31.6596 84.7582 31.7214C84.8962 31.7833 85.0465 31.8128 85.1978 31.8078H86.8929C87.2295 31.7959 87.552 31.6704 87.8076 31.452C88.0632 31.2335 88.2367 30.9349 88.2998 30.6053L89.4017 24.3015C89.4107 24.2495 89.4162 24.1969 89.4183 24.1441L90.3053 18.6659C90.3409 18.496 90.3372 18.3203 90.2944 18.1521C90.2517 17.9839 90.171 17.8276 90.0586 17.6951C89.9462 17.5626 89.8049 17.4574 89.6456 17.3874C89.4863 17.3174 89.3131 17.2845 89.1391 17.2913Z" fill="#717274"/>
<path fill-rule="evenodd" clip-rule="evenodd" d="M96.7354 23.7377L96.7942 23.3717C97.4462 20.5255 99.1432 19.7604 99.1432 19.7604C100.484 18.9038 102.357 19.4803 102.357 19.4803L102.39 19.4913C102.861 19.62 103.302 19.8402 103.687 20.1392C104.649 20.8604 104.941 20.8348 105.321 20.7707C105.607 20.7331 105.874 20.6085 106.086 20.4139C106.298 20.2193 106.445 19.9642 106.506 19.6835C106.587 19.2753 106.389 18.6878 105.623 18.1606C105.623 18.1606 103.468 16.5883 99.4077 17.1722C97.6555 17.4852 95.5655 18.3748 93.5948 20.5456C89.8922 24.6236 91.6848 32.3734 98.302 32.0549C98.302 32.0549 103.219 32.1775 105.9 29.033C105.9 29.033 106.35 28.396 105.979 27.814C105.608 27.2319 104.877 27.4973 104.655 27.6547C104.433 27.8121 102.034 29.7999 99.6776 29.6681C98.0651 29.5784 97.1468 28.731 96.7887 27.5394V27.5211C96.7703 27.4643 96.7611 27.4296 96.7446 27.3655C96.6797 27.0927 96.6397 26.8145 96.6252 26.5345C96.5494 25.8298 96.5531 25.1189 96.6362 24.415V24.382C96.6601 24.1587 96.695 23.9427 96.7354 23.7377Z" fill="#717274"/>
<path d="M75.0526 2.60264C75.4186 2.19635 75.8995 1.91005 76.432 1.78141C76.9644 1.65278 77.5235 1.68785 78.0356 1.882C78.5477 2.07615 78.9888 2.42028 79.3008 2.86909C79.6128 3.31791 79.7812 3.85037 79.7837 4.39639C79.7843 4.77796 79.7026 5.15521 79.5441 5.50258C79.3857 5.84995 79.1542 6.15934 78.8654 6.40979L54.6792 30.9366C54.3294 31.342 53.8638 31.6313 53.3446 31.766C52.8255 31.9006 52.2774 31.8742 51.7737 31.6901C51.27 31.5061 50.8347 31.1732 50.5259 30.736C50.217 30.2989 50.0494 29.7782 50.0455 29.2435C50.0455 29.1557 50.3448 19.9453 50.3448 19.9453C50.3448 19.9453 38.6273 31.7914 38.5796 31.8426C38.1771 32.2176 37.6738 32.4677 37.1311 32.5623C36.5884 32.657 36.0298 32.5922 35.5235 32.3758C35.0172 32.1594 34.585 31.8008 34.2797 31.3437C33.9744 30.8866 33.8093 30.3508 33.8044 29.8018C33.803 29.7069 33.8092 29.612 33.8228 29.5181C33.8522 28.3375 34.0065 24.6804 34.0065 24.6804L31.7125 26.9977C31.3436 27.4428 30.8459 27.7638 30.2873 27.9167C29.7286 28.0695 29.1363 28.047 28.591 27.852C28.0457 27.6571 27.574 27.2992 27.2402 26.8273C26.9065 26.3553 26.727 25.7923 26.7262 25.2149V25.1344C26.7262 24.1405 27.1651 14.9704 27.1651 14.9704L4.91106 37.0262C4.84311 37.0958 4.77699 37.1708 4.70353 37.233C4.29821 37.5939 3.79698 37.8305 3.26002 37.9144C2.72306 37.9983 2.17321 37.9259 1.67652 37.706C1.17984 37.486 0.757434 37.1278 0.460035 36.6745C0.162637 36.2211 0.00289584 35.6918 1.77604e-07 35.1501C-0.000141059 34.7555 0.0839559 34.3653 0.246715 34.0056C0.409473 33.6458 0.647172 33.3247 0.944014 33.0635C1.96516 32.0074 28.6454 5.50559 28.6454 5.50559C28.9932 5.11386 29.4522 4.83669 29.9616 4.71079C30.471 4.5849 31.0067 4.61622 31.4978 4.80061C31.9889 4.985 32.4123 5.31375 32.7117 5.74331C33.0111 6.17287 33.1725 6.68296 33.1745 7.20599C33.1739 7.27938 33.1696 7.35269 33.1616 7.42564C33.1646 7.47501 33.1646 7.52452 33.1616 7.5739C33.1616 8.27493 32.8641 18.9221 32.8641 18.9221L35.7347 16.0832C36.0939 15.7238 36.552 15.4787 37.0511 15.3789C37.5502 15.2792 38.0677 15.3294 38.5382 15.523C39.0087 15.7167 39.4109 16.0451 39.6938 16.4668C39.9768 16.8885 40.1279 17.3843 40.1278 17.8916C40.1278 17.9703 40.1278 18.0472 40.1168 18.1241L40.0489 22.6048L51.4799 11.3097C51.8427 10.9025 52.3211 10.6147 52.8516 10.4843C53.3821 10.3538 53.9398 10.3869 54.4511 10.579C54.9624 10.7712 55.4031 11.1135 55.715 11.5606C56.0269 12.0078 56.1954 12.5387 56.1981 13.0833L55.9226 21.7171L75.0526 2.60264Z" fill="url(#paint0_linear_2742_4753)"/>
<path d="M23.396 42.6802H23.9782L23.2087 46.3757C23.0434 47.1462 23.0691 47.6954 23.284 48.0358C23.4989 48.3763 23.9249 48.5446 24.5586 48.541C24.8537 48.5446 25.1474 48.4988 25.4273 48.4055C25.6703 48.3205 25.8907 48.1815 26.0719 47.9992C26.2648 47.8041 26.4188 47.5743 26.5256 47.322C26.6577 47.0145 26.7581 46.6943 26.8249 46.3665L27.5945 42.6692H28.1785L27.3722 46.5367C27.2033 47.347 26.8751 47.9663 26.3878 48.3946C25.9011 48.8247 25.2565 49.037 24.4557 49.0407C23.655 49.0443 23.0966 48.8247 22.8028 48.3909C22.5089 47.9571 22.4355 47.3403 22.6008 46.5496L23.396 42.6802Z" fill="#757471"/>
<path d="M28.5006 48.8649H27.9863L28.9248 44.4062H29.4409L29.3123 45.0267C29.5425 44.8231 29.7937 44.6446 30.0617 44.494C30.3165 44.353 30.604 44.2811 30.8955 44.2854C31.1476 44.2783 31.3982 44.3257 31.6301 44.4245C31.8485 44.5215 32.0218 44.6974 32.115 44.9168C32.1894 45.0711 32.2211 45.2423 32.2068 45.4129C32.1924 45.5909 32.1654 45.7676 32.126 45.9418L31.5163 48.8704H31.0039L31.6136 45.9601C31.6981 45.5575 31.6724 45.2573 31.5383 45.0541C31.4042 44.8509 31.1306 44.7539 30.7192 44.7594C30.565 44.7577 30.4117 44.7818 30.2655 44.8308C30.1244 44.8783 29.9898 44.9435 29.8652 45.0248C29.7462 45.1045 29.6365 45.1972 29.5383 45.3012C29.445 45.4002 29.3642 45.5103 29.2977 45.6288C29.2229 45.7597 29.1614 45.8977 29.114 46.0407C29.0736 46.1743 29.0387 46.3171 29.0038 46.4745L28.5006 48.8649Z" fill="#757471"/>
<path d="M35.1173 46.2513C35.2146 46.2367 35.334 46.222 35.4736 46.1982C35.5952 46.1811 35.7143 46.1492 35.8281 46.103C35.8738 46.0854 35.9152 46.0583 35.9497 46.0236C35.9842 45.9889 36.0109 45.9474 36.0283 45.9017C36.0621 45.8159 36.0897 45.7278 36.1109 45.6381C36.1386 45.5181 36.1435 45.3939 36.1256 45.272C36.1092 45.1671 36.0626 45.0692 35.9915 44.9902C35.9093 44.9043 35.8062 44.8413 35.6922 44.8071C35.5336 44.7548 35.3669 44.7313 35.1999 44.7376C34.88 44.7311 34.5638 44.8068 34.2816 44.9572C34.1374 45.0449 34.0119 45.16 33.9123 45.2959C33.8127 45.4319 33.741 45.5862 33.7013 45.7498H33.1779C33.2412 45.5068 33.3496 45.2777 33.4974 45.0744C33.6316 44.8927 33.7985 44.7375 33.9896 44.6168C34.1806 44.4968 34.3905 44.4096 34.6104 44.3587C34.8387 44.3021 35.073 44.2732 35.3083 44.2727C35.515 44.2699 35.7212 44.2939 35.9217 44.3441C36.0914 44.3855 36.2495 44.4643 36.3846 44.5747C36.511 44.6882 36.5995 44.8377 36.638 45.003C36.6866 45.2181 36.6866 45.4413 36.638 45.6564L36.1293 48.0871C36.0852 48.2885 36.0925 48.4166 36.1531 48.4679C36.2137 48.5191 36.3588 48.51 36.5939 48.4294L36.5094 48.8321C36.469 48.8449 36.4084 48.8632 36.3258 48.8852C36.2496 48.9084 36.1704 48.9207 36.0907 48.9218C36.0159 48.9215 35.9414 48.9129 35.8685 48.8962C35.7013 48.8651 35.6077 48.7882 35.5856 48.6582C35.561 48.5177 35.561 48.3741 35.5856 48.2336C35.3332 48.464 35.0431 48.6497 34.7279 48.7827C34.4286 48.9087 34.1071 48.9741 33.7821 48.9749C33.5955 48.9779 33.4097 48.952 33.2311 48.898C33.0729 48.8531 32.9275 48.7715 32.8069 48.6601C32.693 48.5493 32.6095 48.4113 32.5644 48.2592C32.5182 48.0741 32.5182 47.8806 32.5644 47.6955C32.7175 46.9352 33.3297 46.4862 34.401 46.3483L35.1173 46.2513ZM35.9327 46.5057C35.7083 46.5945 35.474 46.6559 35.2348 46.6888C35.0089 46.718 34.7812 46.7437 34.5516 46.762C34.209 46.7748 33.874 46.8662 33.5727 47.0292C33.4485 47.1017 33.3418 47.2003 33.2599 47.3183C33.1781 47.4362 33.1231 47.5706 33.0989 47.7119C33.0661 47.828 33.0661 47.9509 33.0989 48.067C33.1308 48.1641 33.1886 48.2508 33.266 48.3178C33.348 48.3848 33.443 48.4341 33.5452 48.4624C33.6563 48.4964 33.7724 48.5118 33.8886 48.5081C34.0949 48.5081 34.3004 48.4822 34.5002 48.4313C34.6994 48.3807 34.8896 48.2998 35.064 48.1915C35.2376 48.086 35.3901 47.9495 35.514 47.7888C35.6424 47.6149 35.7325 47.4159 35.7785 47.2049L35.9327 46.5057Z" fill="#757471"/>
<path d="M40.0104 46.7308C39.9621 46.955 39.9454 47.1848 39.9608 47.4135C39.9722 47.6098 40.0287 47.8008 40.1261 47.9718C40.2185 48.1313 40.3532 48.2624 40.5154 48.3507C40.7071 48.4509 40.9218 48.4989 41.1381 48.4898C41.4642 48.4933 41.784 48.3996 42.0564 48.2207C42.3389 48.0365 42.5601 47.7728 42.6918 47.463H43.2667C43.1618 47.6704 43.0389 47.8682 42.8994 48.0542C42.7614 48.2334 42.5988 48.3924 42.4163 48.5264C42.2298 48.6655 42.0212 48.7725 41.7992 48.8431C41.553 48.9219 41.2957 48.9609 41.037 48.9584C40.734 48.9677 40.433 48.9049 40.1591 48.7753C39.9375 48.6652 39.7526 48.4936 39.6265 48.2811C39.4997 48.0569 39.4274 47.8061 39.4153 47.549C39.3982 47.2419 39.4236 46.934 39.4906 46.6338C39.5551 46.3142 39.6665 46.0059 39.8212 45.7186C39.966 45.4412 40.1517 45.187 40.3722 44.9645C40.584 44.7513 40.8329 44.5783 41.1068 44.4539C41.3887 44.3306 41.6935 44.2682 42.0013 44.2708C42.6128 44.2708 43.0481 44.4795 43.3108 44.9023C43.5734 45.3251 43.6138 45.9346 43.4375 46.7327L40.0104 46.7308ZM43.0004 46.2915C43.0437 46.0902 43.0561 45.8834 43.0371 45.6784C43.0208 45.5011 42.9663 45.3294 42.8773 45.175C42.7858 45.0337 42.6593 44.9184 42.51 44.8401C42.3271 44.7561 42.1272 44.7154 41.9259 44.7211C41.7096 44.719 41.4954 44.7633 41.2978 44.851C41.1073 44.9365 40.9323 45.0527 40.7799 45.1952C40.6244 45.3434 40.4891 45.5114 40.3777 45.6949C40.2653 45.8851 40.1741 46.087 40.1059 46.297L43.0004 46.2915Z" fill="#757471"/>
<path d="M44.2496 48.8285H43.7354L44.6665 44.3679H45.1826L45.0448 45.0396H45.0632C45.236 44.7872 45.4714 44.5835 45.7464 44.4484C46.0089 44.3157 46.2988 44.2462 46.5931 44.2452C46.7657 44.2398 46.9381 44.262 47.1037 44.3111C47.2241 44.3491 47.3354 44.4114 47.4306 44.4942C47.5095 44.5705 47.572 44.662 47.6142 44.7632C47.6582 44.872 47.6914 44.9848 47.7134 45.1C47.8897 44.8314 48.131 44.6113 48.415 44.46C48.6991 44.3087 49.0168 44.2311 49.3388 44.2343C49.5798 44.2183 49.8204 44.2703 50.033 44.3844C50.1861 44.4752 50.3044 44.6143 50.3691 44.7797C50.4347 44.96 50.4597 45.1525 50.4426 45.3435C50.4268 45.5629 50.3974 45.7811 50.3544 45.9969L49.7612 48.8138H49.247L49.8971 45.7352C49.9284 45.5933 49.9431 45.4484 49.9412 45.3032C49.9424 45.1908 49.9132 45.0802 49.8567 44.9829C49.7971 44.8897 49.7098 44.8174 49.607 44.7761C49.4665 44.7225 49.3165 44.6982 49.1662 44.7047C48.9685 44.7058 48.7734 44.7482 48.5932 44.8291C48.2846 44.9605 48.0269 45.1878 47.8585 45.4771C47.7988 45.5781 47.7466 45.6833 47.7024 45.7919C47.6565 45.9017 47.6161 46.0115 47.5812 46.1177C47.5507 46.217 47.5255 46.3178 47.5059 46.4197L47.0063 48.823H46.4921L47.1349 45.7388C47.1671 45.5971 47.1831 45.4522 47.1826 45.3069C47.1821 45.193 47.1518 45.0813 47.0945 44.9829C47.0339 44.8921 46.9476 44.8214 46.8465 44.7797C46.7056 44.7253 46.5549 44.7004 46.4039 44.7065C46.2062 44.7087 46.0111 44.7517 45.8309 44.8328C45.6267 44.9241 45.4431 45.0554 45.2909 45.219C45.221 45.2999 45.1595 45.3875 45.1073 45.4807C45.0474 45.5819 44.9946 45.6871 44.9493 45.7956C44.9034 45.9054 44.8649 46.0134 44.83 46.1214C44.7994 46.2206 44.7743 46.3214 44.7547 46.4234L44.2496 48.8285Z" fill="#757471"/>
<path d="M50.9366 50.5671H50.4224L51.7172 44.3439H52.2314L52.0716 45.1273H52.09C52.1943 44.982 52.3178 44.8514 52.4573 44.7392C52.594 44.6274 52.7432 44.5316 52.9018 44.4537C53.0515 44.3813 53.2077 44.3231 53.3683 44.2798C53.5148 44.242 53.6651 44.2212 53.8164 44.2176C54.1214 44.2064 54.4246 44.2692 54.6998 44.4006C54.9174 44.5105 55.0971 44.6825 55.2159 44.8948C55.336 45.1253 55.4019 45.3801 55.4087 45.6398C55.4221 45.9468 55.3962 46.2544 55.3316 46.5549C55.2629 46.8643 55.1601 47.1651 55.0249 47.4518C54.8938 47.7297 54.719 47.985 54.507 48.2078C54.2966 48.424 54.0474 48.5991 53.7723 48.7239C53.4844 48.8559 53.1709 48.9228 52.854 48.9198C52.5537 48.9246 52.2572 48.8528 51.9927 48.7111C51.7362 48.5812 51.5391 48.3586 51.4417 48.0888L50.9366 50.5671ZM51.7668 46.5989C51.7167 46.8339 51.7012 47.075 51.7208 47.3145C51.7348 47.5229 51.7937 47.7258 51.8935 47.9094C51.985 48.0751 52.1178 48.2144 52.2792 48.3139C52.4606 48.4172 52.6672 48.4686 52.8761 48.4622C53.1265 48.4652 53.3743 48.41 53.5997 48.3011C53.8179 48.1953 54.0127 48.0472 54.1727 47.8655C54.34 47.6725 54.4768 47.4552 54.5786 47.2212C54.689 46.9705 54.7662 46.7065 54.8082 46.436C54.9202 45.8741 54.8651 45.4403 54.6447 45.1382C54.5312 44.9885 54.3822 44.8692 54.211 44.7909C54.0399 44.7126 53.8519 44.6779 53.664 44.6898C53.4316 44.6889 53.202 44.7395 52.9918 44.8381C52.7848 44.9373 52.5979 45.0738 52.4408 45.2407C52.2716 45.4192 52.1315 45.623 52.0257 45.8448C51.908 46.0843 51.821 46.3377 51.7668 46.5989Z" fill="#757471"/>
<path d="M56.2896 48.7991H55.7754L56.7084 44.3385H57.2226L57.039 45.175H57.0573C57.2246 44.8684 57.4688 44.6105 57.7663 44.4263C58.0572 44.2771 58.3814 44.2041 58.7084 44.214L58.5891 44.7741C58.3498 44.7591 58.1103 44.7999 57.8897 44.8934C57.6691 44.9868 57.4734 45.1302 57.3181 45.3122C57.1632 45.4867 57.039 45.6859 56.9508 45.9016C56.8566 46.1311 56.784 46.3689 56.7341 46.6118L56.2896 48.7991Z" fill="#757471"/>
<path d="M58.9896 46.6833C58.9398 46.9079 58.9224 47.1384 58.9382 47.3678C58.9501 47.564 59.0067 47.7549 59.1035 47.9261C59.1969 48.0848 59.3314 48.2157 59.4928 48.305C59.6849 48.4041 59.8992 48.4526 60.1154 48.4459C60.441 48.4472 60.76 48.3544 61.0337 48.1787C61.3153 47.9914 61.5366 47.727 61.671 47.4173H62.2441C62.1395 47.6248 62.0165 47.8227 61.8767 48.0085C61.738 48.1858 61.5762 48.344 61.3955 48.4789C61.2094 48.6187 61.0007 48.7257 60.7784 48.7955C60.5322 48.8742 60.2748 48.9126 60.0163 48.909C59.7124 48.921 59.4102 48.8581 59.1365 48.726C58.916 48.6152 58.7313 48.4445 58.6039 48.2336C58.4779 48.009 58.4056 47.7585 58.3927 47.5015C58.3645 46.8662 58.5051 46.2348 58.8004 45.6711C58.944 45.3924 59.1299 45.1374 59.3514 44.9152C59.5644 44.7039 59.8131 44.5316 60.086 44.4063C60.3683 44.2822 60.6739 44.2198 60.9823 44.2233C61.5939 44.2233 62.0292 44.4338 62.29 44.8529C62.5508 45.2721 62.593 45.8853 62.4185 46.6833H58.9896ZM61.9777 46.244C62.0232 46.0423 62.0356 45.8346 62.0145 45.629C62 45.4531 61.9453 45.2828 61.8547 45.1311C61.766 44.988 61.6387 44.8726 61.4874 44.798C61.3053 44.7091 61.1042 44.6658 60.9015 44.6717C60.6854 44.6698 60.4716 44.7154 60.2752 44.8053C60.0836 44.8898 59.9079 45.0062 59.7555 45.1494C59.5986 45.2971 59.4632 45.4659 59.3532 45.651C59.2406 45.8404 59.1494 46.0418 59.0814 46.2513L61.9777 46.244Z" fill="#757471"/>
<path d="M63.3675 47.3824C63.3675 47.7668 63.4649 48.0359 63.6394 48.1951C63.8138 48.3544 64.0967 48.4294 64.4842 48.4294C64.6538 48.4308 64.8228 48.4074 64.9856 48.3598C65.1166 48.3177 65.2405 48.256 65.3529 48.1768C65.4529 48.104 65.5398 48.0149 65.61 47.9132C65.6737 47.8191 65.718 47.7134 65.7404 47.6021C65.7688 47.5194 65.7737 47.4305 65.7546 47.3453C65.7355 47.26 65.6931 47.1816 65.6321 47.1189C65.4955 46.9992 65.3325 46.9133 65.1564 46.8681C64.9422 46.8048 64.7245 46.754 64.5044 46.7162C64.2841 46.6758 64.0691 46.6107 63.8634 46.5222C63.6801 46.4476 63.5234 46.3201 63.4134 46.1561C63.357 46.0532 63.3218 45.9401 63.3101 45.8235C63.2985 45.7068 63.3105 45.589 63.3455 45.477C63.4231 45.1081 63.6368 44.7815 63.9442 44.5619C64.3 44.3081 64.7303 44.1794 65.1674 44.1958C65.5613 44.1679 65.9522 44.2816 66.2694 44.5161C66.521 44.7302 66.6367 45.0908 66.5889 45.5942H66.0655C66.0857 45.2501 66.0067 45.0066 65.8231 44.862C65.6012 44.7138 65.3368 44.6418 65.0701 44.657C64.7902 44.6442 64.5131 44.7177 64.2767 44.8675C64.0874 44.9962 63.9557 45.1931 63.9093 45.4166C63.8918 45.4775 63.8866 45.5412 63.8942 45.6041C63.9018 45.667 63.9219 45.7277 63.9534 45.7827C64.0226 45.8858 64.1175 45.9691 64.2289 46.0243C64.3633 46.0915 64.5042 46.1448 64.6495 46.1835L65.1417 46.3098C65.3107 46.3538 65.4723 46.4032 65.6302 46.4581C65.7775 46.5113 65.9152 46.588 66.038 46.6851C66.1529 46.7823 66.2392 46.9089 66.2877 47.0511C66.3365 47.2254 66.3365 47.4095 66.2877 47.5838C66.2463 47.7889 66.1604 47.9826 66.0361 48.1512C65.9107 48.3158 65.7549 48.455 65.577 48.5612C65.382 48.6748 65.1708 48.7581 64.9507 48.8083C64.7094 48.8615 64.4631 48.8885 64.216 48.8888C63.9867 48.8954 63.7582 48.8568 63.5439 48.7753C63.3711 48.7098 63.2176 48.6021 63.0976 48.462C62.9775 48.3219 62.8948 48.154 62.857 47.9736C62.8125 47.7783 62.8069 47.5762 62.8404 47.3788L63.3675 47.3824Z" fill="#757471"/>
<path d="M69.4323 46.165C69.5278 46.1522 69.6472 46.1357 69.7868 46.1119C69.9087 46.0945 70.0283 46.0632 70.1431 46.0186C70.1885 46.0002 70.2298 45.9729 70.2645 45.9383C70.2992 45.9037 70.3266 45.8626 70.3451 45.8172C70.3817 45.7315 70.4106 45.6427 70.4314 45.5518C70.461 45.4321 70.4666 45.3077 70.4479 45.1858C70.4325 45.08 70.3858 44.9813 70.3139 44.9021C70.2317 44.8162 70.1285 44.7532 70.0145 44.719C69.8557 44.6652 69.6879 44.6428 69.5205 44.6531C69.2013 44.6456 68.8854 44.7186 68.6021 44.8655C68.3133 45.0463 68.1049 45.3306 68.02 45.6598H67.4928C67.5567 45.4172 67.6657 45.1887 67.8143 44.9863C67.9473 44.8038 68.1136 44.6479 68.3046 44.5268C68.4966 44.4088 68.7061 44.3217 68.9254 44.2688C69.1539 44.2135 69.3882 44.1858 69.6233 44.1864C69.8301 44.1828 70.0364 44.2068 70.2367 44.2578C70.4062 44.2986 70.5644 44.3768 70.6996 44.4866C70.8261 44.5993 70.9146 44.7483 70.953 44.9131C71.0016 45.1288 71.0016 45.3526 70.953 45.5683L70.4314 47.9972C70.3855 48.2004 70.3928 48.3248 70.4534 48.3797C70.5141 48.4347 70.661 48.4218 70.8979 48.3413L70.8116 48.7477L70.6279 48.7989C70.5514 48.8201 70.4723 48.8312 70.3928 48.8318C70.3181 48.8321 70.2436 48.8241 70.1706 48.808C70.0053 48.7788 69.9098 48.7019 69.8878 48.5719C69.8622 48.4309 69.8622 48.2865 69.8878 48.1455C69.635 48.3754 69.345 48.561 69.0301 48.6946C68.7289 48.8158 68.4072 48.8779 68.0824 48.8776C67.8959 48.8793 67.7102 48.8534 67.5314 48.8007C67.3728 48.7558 67.2273 48.6736 67.1072 48.561C66.9921 48.4525 66.9094 48.3144 66.8684 48.1619C66.8212 47.9763 66.8212 47.7819 66.8684 47.5964C67.019 46.8386 67.6306 46.3901 68.705 46.251L69.4323 46.165ZM70.2459 46.4213C70.0216 46.5102 69.7872 46.5716 69.548 46.6043C69.3221 46.6336 69.0962 46.6537 68.8685 46.6739C68.5251 46.6884 68.1896 46.781 67.8877 46.9447C67.7636 47.0166 67.6568 47.1146 67.5746 47.2319C67.4925 47.3492 67.437 47.4829 67.412 47.6238C67.3831 47.7415 67.3863 47.8647 67.4212 47.9807C67.4546 48.0776 67.5128 48.1641 67.5902 48.2315C67.6719 48.2988 67.7671 48.3481 67.8693 48.3761C67.981 48.408 68.0966 48.424 68.2128 48.4237C68.4191 48.422 68.6244 48.3956 68.8244 48.345C69.0238 48.2952 69.2141 48.2142 69.3882 48.1052C69.5621 48.0001 69.7147 47.8636 69.8382 47.7025C69.9676 47.5292 70.0579 47.33 70.1027 47.1186L70.2459 46.4213Z" fill="#757471"/>
<path d="M78.2904 42.5483H78.8047L77.5081 48.7514H76.9938L77.1554 47.968H77.1389C77.0361 48.1162 76.9124 48.2487 76.7716 48.3616C76.6333 48.4696 76.4843 48.5634 76.3271 48.6416C76.177 48.7125 76.0209 48.7701 75.8606 48.8137C75.714 48.854 75.5627 48.8749 75.4107 48.8759C75.1057 48.8863 74.8027 48.8236 74.5273 48.6928C74.3097 48.583 74.13 48.4109 74.0112 48.1987C73.8909 47.9681 73.8244 47.7135 73.8165 47.4537C73.8051 47.1465 73.8322 46.839 73.8973 46.5385C73.9639 46.2283 74.0662 45.9267 74.2022 45.6398C74.3319 45.3623 74.5069 45.1081 74.7201 44.8875C74.9294 44.6695 75.1788 44.4937 75.4547 44.3695C75.7423 44.2364 76.0559 44.1683 76.373 44.17C76.6734 44.1665 76.9698 44.2389 77.2344 44.3805C77.4915 44.5106 77.6887 44.734 77.7854 45.0047L78.2904 42.5483ZM77.4603 46.4982C77.5105 46.2632 77.5259 46.0221 77.5062 45.7826C77.4914 45.5743 77.4339 45.3712 77.3372 45.1859C77.2474 45.0211 77.1157 44.8829 76.9552 44.785C76.7752 44.6798 76.5688 44.6278 76.3602 44.6349C76.1058 44.6307 75.8541 44.6866 75.6255 44.7978C75.4082 44.9033 75.2141 45.0508 75.0544 45.2316C74.8841 45.4225 74.7458 45.6394 74.6448 45.8741C74.5343 46.1262 74.4565 46.3913 74.4134 46.663C74.3592 46.9069 74.3474 47.1582 74.3785 47.4061C74.4008 47.6026 74.4701 47.7909 74.5805 47.9552C74.6818 48.1041 74.8231 48.2214 74.9882 48.2938C75.1705 48.3732 75.3679 48.4119 75.5668 48.4073C75.799 48.4094 76.0288 48.3593 76.239 48.2609C76.4455 48.1617 76.6322 48.0259 76.7899 47.86C76.9577 47.682 77.0955 47.478 77.1977 47.256C77.3166 47.0153 77.4048 46.7608 77.4603 46.4982Z" fill="#757471"/>
<path d="M79.3463 46.632C79.296 46.8571 79.2793 47.0884 79.2967 47.3184C79.3087 47.5146 79.3652 47.7055 79.462 47.8767C79.5544 48.0362 79.6891 48.1673 79.8514 48.2556C80.043 48.3539 80.2567 48.4017 80.4721 48.3947C80.798 48.3977 81.1175 48.3048 81.3904 48.1274C81.6729 47.9414 81.895 47.6775 82.0296 47.3678H82.6007C82.4974 47.5755 82.3744 47.7729 82.2334 47.9572C82.096 48.138 81.9333 48.2982 81.7504 48.4331C81.563 48.5697 81.3554 48.6765 81.1351 48.7497C80.8885 48.8263 80.6313 48.864 80.3729 48.8614C80.0697 48.8725 79.7684 48.8097 79.495 48.6784C79.2732 48.5677 79.0882 48.3954 78.9624 48.1823C78.8343 47.9585 78.7613 47.7076 78.7494 47.4502C78.7201 46.8119 78.8608 46.1773 79.1571 45.6107C79.3021 45.3334 79.4878 45.0792 79.7081 44.8566C79.9206 44.6447 80.1694 44.4724 80.4427 44.3477C80.7249 44.2236 81.0306 44.1612 81.339 44.1647C81.9506 44.1647 82.3859 44.3752 82.6467 44.7962C82.9075 45.2171 82.9515 45.8285 82.7752 46.6265L79.3463 46.632ZM82.3363 46.1982C82.3796 45.995 82.392 45.7865 82.373 45.5796C82.3562 45.4035 82.3018 45.2331 82.2132 45.0799C82.1223 44.9381 81.9957 44.8226 81.8459 44.7449C81.6636 44.6589 81.4635 44.6169 81.2619 44.6223C81.0448 44.6208 80.83 44.6657 80.6319 44.7541C80.442 44.8395 80.2675 44.9558 80.1158 45.0982C79.9598 45.2467 79.8246 45.4153 79.7136 45.5997C79.5986 45.7899 79.5074 45.9933 79.4418 46.2055L82.3363 46.1982Z" fill="#757471"/>
<path d="M83.2144 48.733L84.511 42.5317H85.0252L83.7396 48.733H83.2144Z" fill="#757471"/>
<path d="M90.267 46.0113L90.3698 45.5134H93.009L92.3387 48.7165H91.8428L92.0613 47.6604C91.7805 48.0275 91.425 48.3312 91.0181 48.5518C90.5499 48.79 90.0284 48.9053 89.503 48.8868C89.1472 48.8946 88.7939 48.8259 88.4671 48.6854C88.1681 48.5548 87.9131 48.3414 87.7325 48.0704C87.5384 47.7591 87.4202 47.4068 87.3872 47.0418C87.3425 46.5578 87.3747 46.0698 87.4827 45.5958C87.5734 45.1552 87.7209 44.7283 87.9217 44.3255C88.1076 43.9444 88.3559 43.5968 88.6563 43.2968C88.9666 42.9932 89.3344 42.7542 89.7383 42.5936C90.1422 42.433 90.5742 42.3541 91.009 42.3615C91.3096 42.355 91.6093 42.3945 91.8979 42.4787C92.1496 42.5524 92.3834 42.677 92.5848 42.8447C92.7778 43.0109 92.9294 43.2196 93.0274 43.4542C93.1359 43.7298 93.1889 44.024 93.1835 44.32H92.5829C92.5862 44.1055 92.5417 43.893 92.4525 43.6977C92.3721 43.5205 92.2529 43.3635 92.1036 43.2383C91.9524 43.1126 91.7785 43.0169 91.5912 42.9564C91.3847 42.8902 91.169 42.8568 90.952 42.8576C90.577 42.854 90.2054 42.9288 89.8611 43.0772C89.5398 43.2202 89.2516 43.4277 89.0144 43.6867C88.761 43.9641 88.5545 44.2806 88.4028 44.6239C88.2319 45.0102 88.1038 45.4141 88.0208 45.8282C87.9492 46.1501 87.9294 46.4812 87.9621 46.8093C87.989 47.098 88.0807 47.3769 88.2302 47.6256C88.372 47.8603 88.5735 48.0535 88.8142 48.1857C89.092 48.3287 89.4017 48.3986 89.7142 48.3889C89.8912 48.3862 90.0677 48.3672 90.2413 48.3322C90.4313 48.2921 90.6161 48.2307 90.7923 48.1491C90.983 48.0563 91.1629 47.9428 91.3285 47.8105C91.5109 47.6657 91.67 47.4941 91.8005 47.3017C91.9397 47.1148 92.0522 46.9097 92.1348 46.6922C92.2156 46.4711 92.2837 46.2456 92.3387 46.0168L90.267 46.0113Z" fill="#757471"/>
<path d="M93.9859 48.7056H93.4717L94.4028 44.245H94.9171L94.7334 45.0796H94.75C94.9177 44.7744 95.1619 44.5178 95.4589 44.3347C95.7506 44.1857 96.0752 44.1121 96.4029 44.1205L96.2835 44.6788C96.031 44.671 95.78 44.7198 95.5489 44.8216C95.3467 44.9151 95.1661 45.049 95.0181 45.2151C94.869 45.3934 94.7482 45.5934 94.66 45.8081C94.5663 46.0378 94.4938 46.2755 94.4432 46.5183L93.9859 48.7056Z" fill="#757471"/>
<path d="M100.023 44.2305H100.539L99.6045 48.6929H99.0921L99.2188 48.0706C99.1325 48.1511 99.0352 48.2371 98.9378 48.3232C98.8298 48.4121 98.7136 48.4905 98.5907 48.5574C98.4554 48.6344 98.3119 48.6958 98.1628 48.7405C97.9917 48.7906 97.814 48.8153 97.6357 48.8137C97.3896 48.825 97.144 48.7832 96.9157 48.6911C96.7457 48.6197 96.6015 48.4984 96.5025 48.3433C96.4086 48.1861 96.3556 48.0081 96.3482 47.8253C96.3382 47.607 96.358 47.3885 96.407 47.1755L97.0149 44.236H97.531L96.9212 47.1645C96.8404 47.5507 96.8698 47.8436 97.0039 48.0468C97.138 48.2499 97.4079 48.3524 97.8138 48.3524C98.0195 48.3528 98.2229 48.3098 98.4107 48.2261C98.5963 48.1403 98.7644 48.0212 98.9066 47.8747C99.0556 47.7162 99.1794 47.536 99.2739 47.3403C99.3823 47.1241 99.4613 46.8945 99.509 46.6575L100.023 44.2305Z" fill="#757471"/>
<path d="M100.844 50.4445H100.332L101.617 44.2213H102.133L101.972 45.0047H101.988C102.093 44.8599 102.216 44.7294 102.355 44.6167C102.493 44.506 102.642 44.4109 102.8 44.333C102.95 44.2569 103.107 44.1956 103.268 44.1499C103.414 44.1105 103.565 44.0896 103.716 44.0877C104.021 44.0754 104.325 44.1383 104.6 44.2707C104.818 44.3781 104.998 44.5492 105.116 44.7613C105.235 44.9921 105.302 45.2466 105.311 45.5062C105.321 45.8133 105.295 46.1207 105.232 46.4214C105.164 46.731 105.061 47.0319 104.925 47.3183C104.795 47.5954 104.621 47.8495 104.409 48.0706C104.199 48.2881 103.95 48.4644 103.674 48.5904C103.386 48.7229 103.073 48.7898 102.756 48.7862C102.455 48.7916 102.158 48.7197 101.893 48.5776C101.637 48.4459 101.44 48.2231 101.342 47.9534L100.844 50.4445ZM101.674 46.4763C101.625 46.7115 101.609 46.9525 101.628 47.192C101.643 47.4007 101.702 47.604 101.801 47.7887C101.894 47.9529 102.027 48.0908 102.188 48.1895C102.368 48.2964 102.575 48.3485 102.783 48.3396C103.034 48.3437 103.282 48.2885 103.507 48.1785C103.725 48.0733 103.92 47.9258 104.08 47.7447C104.248 47.5526 104.384 47.3359 104.486 47.1023C104.597 46.8501 104.674 46.5842 104.714 46.3116C104.828 45.7515 104.776 45.3195 104.554 45.0175C104.44 44.8674 104.291 44.7478 104.119 44.6695C103.948 44.5912 103.76 44.5567 103.571 44.5691C103.339 44.5666 103.109 44.6173 102.899 44.7173C102.692 44.8149 102.505 44.9503 102.348 45.1164C102.18 45.2969 102.041 45.5018 101.935 45.724C101.817 45.9629 101.729 46.2156 101.674 46.4763Z" fill="#757471"/>
<path d="M107.395 48.7955C107.131 48.794 106.871 48.7412 106.627 48.6399C106.408 48.5459 106.217 48.3948 106.076 48.2024C105.921 47.9857 105.822 47.7342 105.788 47.4703C105.744 47.129 105.761 46.7826 105.838 46.4471C105.901 46.129 106.008 45.821 106.155 45.5319C106.296 45.2545 106.482 45.0027 106.706 44.787C106.922 44.5735 107.175 44.4016 107.454 44.28C107.75 44.154 108.07 44.0917 108.392 44.0969C108.692 44.0872 108.991 44.15 109.261 44.28C109.483 44.3933 109.669 44.5664 109.797 44.7797C109.93 45.0072 110.007 45.2622 110.023 45.5246C110.045 45.8313 110.023 46.1394 109.957 46.4398C109.89 46.7769 109.772 47.102 109.608 47.4044C109.458 47.6807 109.264 47.9315 109.035 48.1475C108.819 48.3531 108.565 48.5159 108.288 48.6271C108.004 48.7393 107.701 48.7964 107.395 48.7955ZM109.395 46.438C109.443 46.1969 109.465 45.9515 109.461 45.7058C109.46 45.4995 109.413 45.296 109.325 45.1091C109.247 44.9416 109.119 44.8023 108.958 44.7101C108.753 44.6033 108.524 44.5533 108.293 44.5655C108.043 44.5605 107.796 44.6151 107.571 44.7247C107.36 44.8294 107.169 44.9721 107.009 45.1457C106.848 45.3266 106.716 45.5309 106.616 45.7516C106.515 45.9769 106.438 46.2126 106.387 46.4544C106.332 46.7043 106.313 46.9607 106.33 47.2159C106.34 47.4248 106.396 47.6291 106.493 47.8144C106.583 47.9771 106.719 48.1105 106.883 48.1988C107.075 48.2964 107.289 48.3437 107.505 48.3361C107.756 48.3413 108.004 48.2861 108.229 48.175C108.438 48.0686 108.625 47.9239 108.78 47.7485C108.939 47.5666 109.07 47.3625 109.169 47.1427C109.27 46.9168 109.346 46.6805 109.395 46.438Z" fill="#757471"/>
<path d="M112.389 48.6635L113.686 42.4623L117.662 42.4531L117.559 42.9528H114.165L113.691 45.1913H116.777L116.674 45.691H113.592L112.973 48.6635H112.389Z" fill="#757471"/>
<path d="M119.501 46.0423C119.599 46.0314 119.716 46.0131 119.869 45.9911C119.99 45.9731 120.109 45.9412 120.223 45.8959C120.269 45.8775 120.31 45.8502 120.345 45.8156C120.379 45.781 120.407 45.7399 120.425 45.6946C120.458 45.608 120.485 45.5193 120.506 45.4292C120.532 45.3089 120.537 45.1849 120.519 45.0631C120.505 44.9583 120.459 44.8601 120.388 44.7812C120.305 44.6925 120.201 44.6263 120.085 44.589C119.927 44.5408 119.761 44.5185 119.595 44.5231C119.275 44.5159 118.958 44.5922 118.677 44.7446C118.385 44.9204 118.176 45.2041 118.094 45.5335H117.575C117.638 45.2914 117.746 45.063 117.892 44.8599C118.026 44.6777 118.192 44.5219 118.383 44.4005C118.576 44.2829 118.786 44.1953 119.005 44.1406C119.234 44.0859 119.468 44.0589 119.703 44.0601C119.909 44.0558 120.115 44.0792 120.315 44.1296C120.486 44.169 120.646 44.2488 120.78 44.3621C120.905 44.4754 120.994 44.6241 121.033 44.7885C121.082 45.0037 121.082 45.2269 121.033 45.442L120.524 47.869C120.482 48.0704 120.489 48.1967 120.548 48.2534C120.607 48.3102 120.756 48.2937 120.991 48.2131L120.906 48.6195L120.723 48.6689C120.646 48.6915 120.567 48.7032 120.488 48.7037C120.412 48.7038 120.337 48.6958 120.264 48.6799C120.098 48.6488 120.005 48.5737 119.983 48.4438C119.956 48.3028 119.956 48.1582 119.983 48.0173C119.73 48.2487 119.438 48.4345 119.121 48.5664C118.822 48.6939 118.5 48.7599 118.175 48.7604C117.989 48.763 117.803 48.7377 117.624 48.6854C117.467 48.638 117.322 48.5561 117.2 48.4456C117.086 48.3359 117.003 48.1983 116.959 48.0466C116.913 47.8602 116.913 47.6655 116.959 47.4792C117.112 46.7232 117.72 46.2748 118.796 46.132L119.501 46.0423ZM120.317 46.3004C120.092 46.3885 119.858 46.45 119.619 46.4835C119.395 46.5127 119.169 46.5365 118.937 46.553C118.594 46.5666 118.259 46.6587 117.957 46.8221C117.833 46.8944 117.727 46.9926 117.646 47.1099C117.564 47.2271 117.509 47.3606 117.485 47.5011C117.452 47.621 117.452 47.7474 117.485 47.8672C117.518 47.9636 117.576 48.0496 117.654 48.1161C117.735 48.1828 117.83 48.232 117.931 48.2607C118.043 48.2928 118.16 48.3082 118.276 48.3065C118.483 48.3073 118.688 48.2815 118.888 48.2296C119.086 48.1758 119.277 48.0958 119.454 47.9917C119.626 47.8842 119.778 47.7466 119.902 47.5853C120.031 47.4126 120.122 47.2141 120.168 47.0033L120.317 46.3004Z" fill="#757471"/>
<path d="M121.548 48.6379L122.845 42.4385H123.357L122.063 48.6379H121.548Z" fill="#757471"/>
<path d="M126.938 45.5704C126.939 45.2832 126.832 45.0061 126.637 44.7943C126.532 44.6959 126.407 44.6201 126.271 44.5719C126.135 44.5237 125.991 44.5041 125.847 44.5143C125.601 44.5106 125.357 44.5672 125.138 44.679C124.928 44.7886 124.741 44.9371 124.587 45.1165C124.425 45.2988 124.293 45.505 124.194 45.7278C124.095 45.9481 124.018 46.1773 123.963 46.4124C123.915 46.6391 123.895 46.8708 123.902 47.1024C123.909 47.3101 123.956 47.5146 124.04 47.7046C124.119 47.8778 124.247 48.0246 124.407 48.1274C124.604 48.2434 124.831 48.2982 125.059 48.2848C125.416 48.2935 125.765 48.1805 126.049 47.9645C126.336 47.7384 126.551 47.4337 126.666 47.0878H127.217C127.123 47.3272 127 47.554 126.85 47.7632C126.713 47.9631 126.546 48.1414 126.356 48.2922C126.165 48.439 125.951 48.5534 125.722 48.6308C125.474 48.714 125.213 48.756 124.951 48.7552C124.648 48.7657 124.346 48.7029 124.073 48.5722C123.852 48.4625 123.667 48.2916 123.54 48.0798C123.412 47.8522 123.339 47.5976 123.327 47.3367C123.311 47.0296 123.337 46.7217 123.404 46.4215C123.466 46.1111 123.572 45.8109 123.718 45.5301C123.861 45.251 124.047 44.9959 124.269 44.7742C124.486 44.5571 124.74 44.3804 125.019 44.2526C125.307 44.1212 125.62 44.0543 125.937 44.0567C126.449 44.0567 126.841 44.1757 127.105 44.4228C127.37 44.6699 127.489 45.0524 127.456 45.5777L126.938 45.5704Z" fill="#757471"/>
<path d="M127.673 48.6251L128.971 42.4238H129.484L128.677 46.2841L131.296 44.1572H132L129.998 45.7716L131.265 48.6196H130.69L129.546 46.134L128.543 46.9375L128.189 48.6233L127.673 48.6251Z" fill="#757471"/>
</g>
<defs>
<linearGradient id="paint0_linear_2742_4753" x1="1.77596e-07" y1="19.8263" x2="79.7837" y2="19.8263" gradientUnits="userSpaceOnUse">
<stop offset="0.01" stop-color="#D91F26"/>
<stop offset="0.05" stop-color="#DA2526"/>
<stop offset="0.12" stop-color="#DD3725"/>
<stop offset="0.2" stop-color="#E25424"/>
<stop offset="0.28" stop-color="#EA7D22"/>
<stop offset="0.33" stop-color="#EE9621"/>
<stop offset="0.45" stop-color="#F7C314"/>
<stop offset="0.57" stop-color="#9EBA3B"/>
<stop offset="0.78" stop-color="#249AD1"/>
<stop offset="0.84" stop-color="#247EB6"/>
<stop offset="1" stop-color="#25356F"/>
</linearGradient>
<clipPath id="clip0_2742_4753">
<rect width="132" height="50.5672" fill="white"/>
</clipPath>
</defs>
</svg>
