<svg xmlns="http://www.w3.org/2000/svg" version="1.1" xmlns:xlink="http://www.w3.org/1999/xlink" xmlns:svgjs="http://svgjs.com/svgjs" viewBox="0 0 40 40" height="40" width="40"><title>Exported from Streamline App (https://app.streamlineicons.com)</title><g transform="matrix(1.6666666666666667,0,0,1.6666666666666667,0,0)"><path d="M 22.775,8.664c0.239-0.138,0.321-0.444,0.183-0.683l-2-3.464c-0.065-0.114-0.173-0.198-0.3-0.233 c-0.128-0.034-0.264-0.016-0.379,0.05L14.5,7.669V1c0-0.276-0.224-0.5-0.5-0.5h-4C9.724,0.5,9.5,0.724,9.5,1v6.668L3.725,4.334 C3.486,4.196,3.18,4.278,3.042,4.517l-2,3.464C0.904,8.22,0.986,8.526,1.225,8.664L7,12l-5.775,3.334 c-0.239,0.138-0.321,0.444-0.183,0.683l2,3.464c0.138,0.239,0.444,0.321,0.683,0.183L9.5,16.329V23c0,0.276,0.224,0.5,0.5,0.5h4 c0.276,0,0.5-0.224,0.5-0.5v-6.671l5.776,3.335c0.115,0.066,0.251,0.084,0.379,0.05c0.127-0.035,0.235-0.119,0.3-0.233l2-3.464 c0.138-0.239,0.056-0.545-0.183-0.683L17,12L22.775,8.664z" stroke="#ff1e2d" fill="none" stroke-width="1" stroke-linecap="round" stroke-linejoin="round"></path></g></svg>