<svg width="43" height="42" viewBox="0 0 43 42" fill="none" xmlns="http://www.w3.org/2000/svg">
<path d="M29.7767 25.2017L35.5079 29.3406C35.6767 29.4176 35.8616 29.4501 36.0458 29.4352C36.2299 29.4202 36.4075 29.3583 36.5624 29.255C36.7173 29.1518 36.8446 29.0104 36.9327 28.8439C37.0209 28.6773 37.067 28.4908 37.067 28.3013V14.5979C37.067 14.4084 37.0209 14.2218 36.9327 14.0553C36.8446 13.8887 36.7173 13.7474 36.5624 13.6441C36.4075 13.5409 36.2299 13.4789 36.0458 13.464C35.8616 13.449 35.6767 13.4815 35.5079 13.5585L29.7767 17.6974C29.6313 17.8024 29.5127 17.9416 29.4308 18.1035C29.349 18.2653 29.3062 18.445 29.3062 18.6273V24.2719C29.3062 24.4542 29.349 24.6339 29.4308 24.7957C29.5127 24.9575 29.6313 25.0968 29.7767 25.2017Z" stroke="#666666" stroke-width="2" stroke-linecap="round" stroke-linejoin="round"/>
<path d="M22.3192 30.3517H8.90251C7.89778 30.3489 6.93503 29.9572 6.22458 29.2622C5.51413 28.5672 5.11373 27.6253 5.11084 26.6425V15.8001C5.11373 14.8172 5.51413 13.8754 6.22458 13.1804C6.93503 12.4853 7.89778 12.0936 8.90251 12.0908H22.3542C23.3496 12.0938 24.3033 12.482 25.0071 13.1705C25.711 13.8591 26.1078 14.7921 26.1108 15.7658V26.6425C26.108 27.6253 25.7076 28.5672 24.9971 29.2622C24.2866 29.9572 23.3239 30.3489 22.3192 30.3517Z" stroke="#666666" stroke-width="2" stroke-miterlimit="10"/>
</svg>
