<svg width="69" height="58" viewBox="0 0 69 58" fill="none" xmlns="http://www.w3.org/2000/svg">
<g clip-path="url(#clip0_6331_32926)">
<path d="M31.5 58.14C47.2401 58.14 60 44.9011 60 28.57C60 12.2389 47.2401 -1 31.5 -1C15.7599 -1 3 12.2389 3 28.57C3 44.9011 15.7599 58.14 31.5 58.14Z" fill="#E1F7FF"/>
<path d="M50 39.6C60.4934 39.6 69 30.8472 69 20.05C69 9.25283 60.4934 0.5 50 0.5C39.5066 0.5 31 9.25283 31 20.05C31 30.8472 39.5066 39.6 50 39.6Z" fill="#E7F9FF"/>
<path d="M12.5 57.6401C19.4036 57.6401 25 51.8063 25 44.6101C25 37.4138 19.4036 31.5801 12.5 31.5801C5.59644 31.5801 0 37.4138 0 44.6101C0 51.8063 5.59644 57.6401 12.5 57.6401Z" fill="#E7F9FF"/>
<path d="M38.15 38.0898H22.29" stroke="#046AAF" stroke-width="1.5" stroke-linecap="round" stroke-linejoin="round"/>
<path d="M30.75 18H36.26C37.0556 18 37.8187 18.3161 38.3813 18.8787C38.9439 19.4413 39.26 20.2044 39.26 21V32.73" stroke="#046AAF" stroke-width="1.5" stroke-linecap="round" stroke-linejoin="round"/>
<path d="M39.1398 41.9101C39.0283 42.5997 38.6796 43.2289 38.1538 43.6889C37.6281 44.149 36.9582 44.4111 36.2598 44.4301H25.2598C24.4781 44.4092 23.7355 44.084 23.1901 43.5236C22.6446 42.9632 22.3396 42.212 22.3398 41.4301V28.5701" stroke="#046AAF" stroke-width="1.5" stroke-linecap="round" stroke-linejoin="round"/>
<path d="M14.8896 18H16.9996" stroke="#3FBFEB" stroke-width="1.5" stroke-linecap="round" stroke-linejoin="round"/>
<path d="M25.4596 18H23.3496" stroke="#3FBFEB" stroke-width="1.5" stroke-linecap="round" stroke-linejoin="round"/>
<path d="M20.1797 21.1699V23.2899" stroke="#3FBFEB" stroke-width="1.5" stroke-linecap="round" stroke-linejoin="round"/>
<path d="M20.1797 12.71V14.83" stroke="#3FBFEB" stroke-width="1.5" stroke-linecap="round" stroke-linejoin="round"/>
<path d="M43.3699 44.4299L39.1999 41.9999C38.8241 41.7441 38.5269 41.3889 38.3415 40.9739C38.156 40.5589 38.0897 40.1004 38.1499 39.6499V36.9999L36.6599 35.4399C36.4755 35.25 36.3324 35.0241 36.2394 34.7763C36.1465 34.5285 36.1058 34.2642 36.1199 33.9999C36.1494 33.7133 36.2441 33.4373 36.3966 33.1929C36.5491 32.9486 36.7555 32.7423 36.9999 32.5899V32.5899C37.3588 32.3515 37.7893 32.2452 38.2179 32.2889C38.6465 32.3327 39.0466 32.5239 39.3499 32.8299L41.4999 34.9999" stroke="#046AAF" stroke-width="1.5" stroke-linecap="round" stroke-linejoin="round"/>
<path d="M39.21 22.8499L44.37 30.0899C45.1405 31.1657 45.5533 32.4565 45.55 33.7799V36.8399C45.5573 37.728 45.917 38.5769 46.55 39.1999" stroke="#046AAF" stroke-width="1.5" stroke-linecap="round" stroke-linejoin="round"/>
<path d="M30.8299 30.69C31.5617 30.69 32.277 30.473 32.8855 30.0665C33.494 29.6599 33.9682 29.0821 34.2482 28.406C34.5283 27.7299 34.6016 26.9859 34.4588 26.2682C34.316 25.5505 33.9636 24.8912 33.4462 24.3737C32.9287 23.8563 32.2694 23.5039 31.5517 23.3611C30.834 23.2184 30.09 23.2916 29.414 23.5717C28.7379 23.8517 28.16 24.326 27.7534 24.9344C27.3469 25.5429 27.1299 26.2583 27.1299 26.99C27.1299 27.9713 27.5197 28.9125 28.2136 29.6063C28.9075 30.3002 29.8486 30.69 30.8299 30.69V30.69Z" stroke="#046AAF" stroke-width="1.5" stroke-linecap="round" stroke-linejoin="round"/>
<path d="M38.1493 38.09H24.4893C24.488 37.2566 24.651 36.4311 24.969 35.6607C25.287 34.8903 25.7538 34.1902 26.3427 33.6005C26.9315 33.0107 27.6309 32.5428 28.4007 32.2235C29.1706 31.9043 29.9958 31.74 30.8293 31.74" stroke="#046AAF" stroke-width="1.5" stroke-linecap="round" stroke-linejoin="round"/>
</g>
<defs>
<clipPath id="clip0_6331_32926">
<rect width="69" height="59.14" fill="white" transform="translate(0 -1)"/>
</clipPath>
</defs>
</svg>
