<svg width="18" height="20" viewBox="0 0 18 20" fill="none" xmlns="http://www.w3.org/2000/svg">
<path d="M11.0848 0.467969C10.4484 0.174609 9.74648 0 9 0C6.90273 0 5.11328 1.29414 4.3707 3.125H7.54219L11.0848 0.467969ZM13.6293 3.125C13.3207 2.36445 12.8219 1.71094 12.2039 1.19062L9.62461 3.125H13.6293ZM9 10C11.7613 10 14 7.76133 14 5C14 4.78594 13.9629 4.58203 13.9371 4.375H4.06289C4.03672 4.58203 4 4.78594 4 5C4 7.76133 6.23867 10 9 10ZM3.375 11.707V20H8.38516L4.53945 11.3469C4.1385 11.4208 3.74765 11.5416 3.375 11.707ZM0.25 18.125C0.25 19.1605 1.08945 20 2.125 20V12.5094C0.9875 13.4723 0.25 14.893 0.25 16.5V18.125ZM10.25 16.25H8.08672L9.75352 20H10.25C11.284 20 12.125 19.159 12.125 18.125C12.125 17.091 11.284 16.25 10.25 16.25ZM12.5 11.25H11.8473C10.9785 11.6477 10.016 11.875 9 11.875C7.98398 11.875 7.02148 11.6477 6.15273 11.25H5.86484L7.53164 15H10.25C11.973 15 13.375 16.402 13.375 18.125C13.375 18.8312 13.1305 19.4762 12.734 20H15.875C16.9105 20 17.75 19.1605 17.75 18.125V16.5C17.75 13.6004 15.3996 11.25 12.5 11.25Z" fill="#046AAF"/>
</svg>
