<svg width="15" height="20" viewBox="0 0 15 20" fill="none" xmlns="http://www.w3.org/2000/svg">
<path d="M12.8023 2.47821H9.75417C9.75417 1.11132 8.66063 0 7.31563 0C5.97062 0 4.87708 1.11132 4.87708 2.47821H1.82891C0.819198 2.47821 0 3.31074 0 4.33687V17.967C0 18.9932 0.819198 19.8257 1.82891 19.8257H12.8023C13.8121 19.8257 14.6313 18.9932 14.6313 17.967V4.33687C14.6313 3.31074 13.8121 2.47821 12.8023 2.47821ZM7.31563 1.54888C7.82239 1.54888 8.23008 1.96321 8.23008 2.47821C8.23008 2.99322 7.82239 3.40754 7.31563 3.40754C6.80887 3.40754 6.40117 2.99322 6.40117 2.47821C6.40117 1.96321 6.80887 1.54888 7.31563 1.54888ZM10.9734 13.3204C10.9734 13.4908 10.8363 13.6302 10.6686 13.6302H8.5349V15.7986C8.5349 15.969 8.39773 16.1084 8.23008 16.1084H6.40117C6.23352 16.1084 6.09635 15.969 6.09635 15.7986V13.6302H3.96263C3.79498 13.6302 3.65781 13.4908 3.65781 13.3204V11.4617C3.65781 11.2914 3.79498 11.152 3.96263 11.152H6.09635V8.98352C6.09635 8.81314 6.23352 8.67374 6.40117 8.67374H8.23008C8.39773 8.67374 8.5349 8.81314 8.5349 8.98352V11.152H10.6686C10.8363 11.152 10.9734 11.2914 10.9734 11.4617V13.3204ZM10.9734 5.88575C10.9734 6.05613 10.8363 6.19553 10.6686 6.19553H3.96263C3.79498 6.19553 3.65781 6.05613 3.65781 5.88575V5.2662C3.65781 5.09582 3.79498 4.95642 3.96263 4.95642H10.6686C10.8363 4.95642 10.9734 5.09582 10.9734 5.2662V5.88575Z" fill="#CCCCCC"/>
</svg>
