<svg width="18" height="20" viewBox="0 0 18 20" fill="none" xmlns="http://www.w3.org/2000/svg">
<path d="M11.5 5.3125V0H3.6875C3.16797 0 2.75 0.417969 2.75 0.9375V10H0.5625C0.390625 10 0.25 10.1406 0.25 10.3125V10.9375C0.25 11.1094 0.390625 11.25 0.5625 11.25H6.06641C6.18359 11.25 6.29297 11.3164 6.34766 11.4219L7.125 12.9766L9.34375 8.53516C9.45703 8.30469 9.78906 8.30469 9.90234 8.53516L11.2578 11.25H14C14.3438 11.25 14.625 11.5312 14.625 11.875C14.625 12.2188 14.3438 12.5 14 12.5H10.4883L9.625 10.7734L7.40625 15.2148C7.29297 15.4453 6.96094 15.4453 6.84766 15.2148L5.48828 12.5H2.75V19.0625C2.75 19.582 3.16797 20 3.6875 20H16.8125C17.332 20 17.75 19.582 17.75 19.0625V6.25H12.4375C11.9219 6.25 11.5 5.82812 11.5 5.3125ZM17.4766 4.10156L13.6523 0.273438C13.4766 0.0976562 13.2383 0 12.9883 0H12.75V5H17.75V4.76172C17.75 4.51563 17.6523 4.27734 17.4766 4.10156Z" fill="#046AAF"/>
</svg>
