<svg width="70" height="58" viewBox="0 0 70 58" fill="none" xmlns="http://www.w3.org/2000/svg">
<g clip-path="url(#clip0_2173_5347)">
<path fill-rule="evenodd" clip-rule="evenodd" d="M69.5 19.46C69.5171 16.9478 69.0393 14.4568 68.0937 12.1293C67.1481 9.80178 65.7533 7.68331 63.989 5.89484C62.2247 4.10637 60.1254 2.68294 57.8109 1.70582C55.4965 0.728691 53.0122 0.217014 50.5 0.2C47.6292 0.19595 44.796 0.852919 42.22 2.12C38.816 0.71985 35.1708 -0.00036054 31.49 1.354e-07C23.8994 0.0396889 16.635 3.0911 11.2929 8.4838C5.95086 13.8765 2.9681 21.1694 3.00001 28.76C3.00271 31.1195 3.29148 33.47 3.86001 35.76C2.63721 36.9431 1.66523 38.3604 1.00205 39.9272C0.338873 41.4941 -0.00191834 43.1785 8.12214e-06 44.88C0.042214 48.3174 1.4442 51.5981 3.89923 54.0045C6.35427 56.4108 9.66246 57.7467 13.1 57.72C15.7977 57.7266 18.4326 56.9064 20.65 55.37C24.3634 56.9019 28.3592 57.6294 32.3742 57.5047C36.3891 57.3801 40.3321 56.406 43.9433 54.6467C47.5544 52.8874 50.7518 50.3829 53.3247 47.2981C55.8975 44.2133 57.7875 40.6183 58.87 36.75C62.0728 35.1396 64.7638 32.669 66.6413 29.6152C68.5188 26.5613 69.5087 23.0448 69.5 19.46Z" fill="#E1F7FF"/>
<path d="M49.2901 43.7897L49.4201 42.3697C49.4929 41.452 49.2283 40.5393 48.676 39.8028C48.1236 39.0663 47.3215 38.5568 46.4201 38.3697L41.8101 37.3697V30.0497C41.8101 29.4211 41.5605 28.8183 41.116 28.3738C40.6715 27.9294 40.0687 27.6797 39.4401 27.6797C38.8116 27.6797 38.2088 27.9294 37.7643 28.3738C37.3198 28.8183 37.0701 29.4211 37.0701 30.0497V41.6697L35.2101 40.2697C34.834 40.0076 34.3773 39.8872 33.9209 39.9298C33.4644 39.9724 33.0379 40.1753 32.7167 40.5024C32.3956 40.8295 32.2007 41.2598 32.1665 41.7169C32.1324 42.174 32.2612 42.6285 32.5301 42.9997L33.1301 43.7997" stroke="#046AAF" stroke-width="1.5" stroke-linecap="round" stroke-linejoin="round"/>
<path d="M47.54 34.3096V17.2496C47.54 16.7457 47.3398 16.2624 46.9835 15.9061C46.6272 15.5498 46.1439 15.3496 45.64 15.3496H22.9C22.3961 15.3496 21.9128 15.5498 21.5565 15.9061C21.2002 16.2624 21 16.7457 21 17.2496V38.0996C21 38.6035 21.2002 39.0868 21.5565 39.4431C21.9128 39.7994 22.3961 39.9996 22.9 39.9996H28.58" stroke="#046AAF" stroke-width="1.5" stroke-linecap="round" stroke-linejoin="round"/>
<path d="M21 20.9995H47.54" stroke="#046AAF" stroke-width="1.5" stroke-linecap="round" stroke-linejoin="round"/>
<path d="M24.79 25.7795C24.7897 25.5228 24.8882 25.2757 25.065 25.0895C25.2419 24.9034 25.4836 24.7924 25.74 24.7795H31.43C31.6865 24.7924 31.9282 24.9034 32.105 25.0895C32.2819 25.2757 32.3804 25.5228 32.38 25.7795V31.4695C32.3655 31.7158 32.2605 31.948 32.0851 32.1215C31.9098 32.2951 31.6765 32.3976 31.43 32.4095H25.74C25.4936 32.3976 25.2603 32.2951 25.085 32.1215C24.9096 31.948 24.8046 31.7158 24.79 31.4695V25.7795Z" fill="#F29400"/>
<path d="M24.79 36.2097H32.38" stroke="#046AAF" stroke-width="1.5" stroke-linecap="round" stroke-linejoin="round"/>
<path d="M36.1699 24.8296H43.7399" stroke="#046AAF" stroke-width="1.5" stroke-linecap="round" stroke-linejoin="round"/>
<g clip-path="url(#clip1_2173_5347)">
<path d="M31.5402 59.14C47.33 59.14 60.1302 45.9011 60.1302 29.57C60.1302 13.2389 47.33 0 31.5402 0C15.7504 0 2.9502 13.2389 2.9502 29.57C2.9502 45.9011 15.7504 59.14 31.5402 59.14Z" fill="#E1F7FF"/>
<path d="M49.7796 40.41C60.3945 40.41 68.9996 31.5855 68.9996 20.7C68.9996 9.81446 60.3945 0.98999 49.7796 0.98999C39.1647 0.98999 30.5596 9.81446 30.5596 20.7C30.5596 31.5855 39.1647 40.41 49.7796 40.41Z" fill="#E1F7FF"/>
<path d="M12.32 58.15C19.1241 58.15 24.64 52.4148 24.64 45.34C24.64 38.2653 19.1241 32.53 12.32 32.53C5.51585 32.53 0 38.2653 0 45.34C0 52.4148 5.51585 58.15 12.32 58.15Z" fill="#E1F7FF"/>
<path d="M43 31.1301C43.8434 31.1321 44.6684 30.8837 45.3705 30.4163C46.0726 29.949 46.6201 29.2838 46.9438 28.505C47.2675 27.7261 47.3527 26.8688 47.1886 26.0415C47.0246 25.2142 46.6186 24.4542 46.0223 23.8578C45.4259 23.2615 44.6659 22.8555 43.8386 22.6915C43.0113 22.5274 42.154 22.6126 41.3752 22.9363C40.5963 23.26 39.9311 23.8075 39.4638 24.5096C38.9965 25.2117 38.748 26.0367 38.75 26.8801C38.75 28.0073 39.1978 29.0883 39.9948 29.8853C40.7918 30.6823 41.8728 31.1301 43 31.1301Z" stroke="#046AAF" stroke-width="1.5" stroke-linecap="round" stroke-linejoin="round"/>
<path d="M48.3398 38.57C48.3445 37.5815 48.0727 36.6113 47.5549 35.7692C47.0372 34.9271 46.2943 34.2465 45.4101 33.8044C44.526 33.3623 43.5358 33.1763 42.5514 33.2674C41.5671 33.3585 40.6279 33.7231 39.8398 34.32" stroke="#046AAF" stroke-width="1.5" stroke-linecap="round" stroke-linejoin="round"/>
<path d="M23.9004 31.1301C24.7438 31.1321 25.5688 30.8837 26.2709 30.4163C26.973 29.949 27.5205 29.2838 27.8442 28.505C28.1679 27.7261 28.2531 26.8688 28.089 26.0415C27.925 25.2142 27.519 24.4542 26.9227 23.8578C26.3263 23.2615 25.5663 22.8555 24.739 22.6915C23.9117 22.5274 23.0544 22.6126 22.2755 22.9363C21.4967 23.26 20.8315 23.8075 20.3642 24.5096C19.8968 25.2117 19.6484 26.0367 19.6504 26.8801C19.6504 28.0073 20.0982 29.0883 20.8952 29.8853C21.6922 30.6823 22.7732 31.1301 23.9004 31.1301V31.1301Z" stroke="#046AAF" stroke-width="1.5" stroke-linecap="round" stroke-linejoin="round"/>
<path d="M18.5801 38.5701C18.5815 37.5829 18.8575 36.6157 19.3772 35.7764C19.897 34.9372 20.64 34.2591 21.5231 33.8181C22.4063 33.3771 23.3947 33.1904 24.3778 33.2791C25.361 33.3677 26.3001 33.7282 27.0901 34.3201" stroke="#046AAF" stroke-width="1.5" stroke-linecap="round" stroke-linejoin="round"/>
<path d="M33.4603 35.38C34.0916 35.382 34.7094 35.1966 35.2353 34.8472C35.7612 34.4979 36.1716 34.0004 36.4146 33.4177C36.6575 32.835 36.7221 32.1933 36.6002 31.5738C36.4782 30.9543 36.1752 30.385 35.7295 29.9379C35.2838 29.4907 34.7154 29.1859 34.0963 29.062C33.4772 28.9381 32.8353 29.0007 32.2518 29.2419C31.6684 29.483 31.1696 29.8919 30.8186 30.4167C30.4676 30.9415 30.2803 31.5586 30.2803 32.19C30.2803 33.0343 30.615 33.8442 31.2111 34.4421C31.8071 35.0401 32.616 35.3773 33.4603 35.38Z" stroke="#046AAF" stroke-width="1.5" stroke-linecap="round" stroke-linejoin="round"/>
<path d="M33.4598 37.5C32.4262 37.5022 31.4155 37.805 30.5508 38.3714C29.6862 38.9377 29.0049 39.7433 28.5898 40.69" stroke="#046AAF" stroke-width="1.5" stroke-linecap="round" stroke-linejoin="round"/>
<path d="M33.46 37.5C34.8709 37.5 36.2241 38.0605 37.2218 39.0582C38.2195 40.0559 38.78 41.409 38.78 42.82" stroke="#046AAF" stroke-width="1.5" stroke-linecap="round" stroke-linejoin="round"/>
<path d="M29.0703 17.2H37.8403" stroke="#3FBFEB" stroke-width="3" stroke-linecap="round" stroke-linejoin="round"/>
<path d="M33.3203 12.8301V21.5701" stroke="#3FBFEB" stroke-width="3" stroke-linecap="round" stroke-linejoin="round"/>
</g>
</g>
<defs>
<clipPath id="clip0_2173_5347">
<rect width="69.5" height="57.72" fill="white"/>
</clipPath>
<clipPath id="clip1_2173_5347">
<rect width="69" height="59.14" fill="white"/>
</clipPath>
</defs>
</svg>
