<svg width="28" height="28" viewBox="0 0 28 28" fill="none" xmlns="http://www.w3.org/2000/svg">
<path d="M17.876 2.97388C19.8963 3.49138 21.7164 4.59949 23.1037 6.1566C24.4911 7.71371 25.3827 9.6491 25.6646 11.7155C25.9465 13.7818 25.6059 15.8853 24.6863 17.7571C23.7667 19.629 22.31 21.1841 20.5021 22.2239V27.1239" stroke="#FF1E2D" stroke-width="1.5" stroke-linecap="round" stroke-linejoin="round"/>
<path d="M15.251 17.5C17.6672 17.5 19.626 15.5412 19.626 13.125C19.626 10.7088 17.6672 8.75 15.251 8.75C12.8347 8.75 10.876 10.7088 10.876 13.125C10.876 15.5412 12.8347 17.5 15.251 17.5Z" stroke="#FF1E2D" stroke-width="1.5" stroke-linecap="round" stroke-linejoin="round"/>
<path d="M12.626 9.625V1.75C12.626 1.51794 12.7182 1.29538 12.8823 1.13128C13.0464 0.967187 13.2689 0.875 13.501 0.875H17.001C17.233 0.875 17.4556 0.967187 17.6197 1.13128C17.7838 1.29538 17.876 1.51794 17.876 1.75V9.625" stroke="#FF1E2D" stroke-width="1.5" stroke-linecap="round" stroke-linejoin="round"/>
<path d="M4.75208 18.3879L3.66008 18.1149C3.38809 18.0468 3.13644 17.9144 2.92631 17.7287C2.71619 17.5431 2.55374 17.3097 2.45266 17.0482C2.35157 16.7867 2.3148 16.5047 2.34544 16.226C2.37609 15.9473 2.47325 15.68 2.62874 15.4467L4.75208 12.2629V11.3879C4.75208 7.25555 8.09807 3.79172 12.6259 2.87122" stroke="#FF1E2D" stroke-width="1.5" stroke-linecap="round" stroke-linejoin="round"/>
<path d="M10.0021 27.125V24.5128L8.82731 24.7077C8.34458 24.7895 7.84999 24.7685 7.37598 24.6458" stroke="#FF1E2D" stroke-width="1.5" stroke-linecap="round" stroke-linejoin="round"/>
<path d="M15.251 13.125C15.251 15.4456 14.3291 17.6712 12.6882 19.3122C11.0472 20.9531 8.82162 21.875 6.50098 21.875H4.75098" stroke="#FF1E2D" stroke-width="1.5" stroke-linecap="round" stroke-linejoin="round"/>
</svg>
