<svg xmlns="http://www.w3.org/2000/svg" version="1.1" xmlns:xlink="http://www.w3.org/1999/xlink" xmlns:svgjs="http://svgjs.com/svgjs" viewBox="0 0 40 40" width="40" height="40"><title>Exported from Streamline App (https://app.streamlineicons.com)</title><g transform="matrix(1.6666666666666667,0,0,1.6666666666666667,0,0)"><path d="M 7.5,3.5c2.347,0,4.25,1.903,4.25,4.25S9.847,12,7.5,12s-4.25-1.903-4.25-4.25S5.153,3.5,7.5,3.5z " stroke="#ff1e2d" fill="none" stroke-width="1" stroke-linecap="round" stroke-linejoin="round"></path><path d="M 0.5,20.5 c0-3.866,3.134-7,7-7s7,3.134,7,7H0.5z " stroke="#ff1e2d" fill="none" stroke-width="1" stroke-linecap="round" stroke-linejoin="round"></path><path d="M 16.5,20.5h7c0-3.038-2.463-5.5-5.5-5.5c-0.879,0-1.746,0.211-2.527,0.615 " stroke="#ff1e2d" fill="none" stroke-width="1" stroke-linecap="round" stroke-linejoin="round"></path><path d="M 17.944,7 c1.795,0,3.25,1.455,3.25,3.25s-1.455,3.25-3.25,3.25s-3.25-1.455-3.25-3.25S16.149,7,17.944,7z" stroke="#ff1e2d" fill="none" stroke-width="1" stroke-linecap="round" stroke-linejoin="round"></path></g></svg>