<svg width="16" height="20" viewBox="0 0 16 20" fill="none" xmlns="http://www.w3.org/2000/svg">
<path d="M13.625 2.5H10.5C10.5 1.12109 9.37891 0 8 0C6.62109 0 5.5 1.12109 5.5 2.5H2.375C1.33984 2.5 0.5 3.33984 0.5 4.375V18.125C0.5 19.1602 1.33984 20 2.375 20H13.625C14.6602 20 15.5 19.1602 15.5 18.125V4.375C15.5 3.33984 14.6602 2.5 13.625 2.5ZM8 1.5625C8.51953 1.5625 8.9375 1.98047 8.9375 2.5C8.9375 3.01953 8.51953 3.4375 8 3.4375C7.48047 3.4375 7.0625 3.01953 7.0625 2.5C7.0625 1.98047 7.48047 1.5625 8 1.5625ZM11.75 13.4375C11.75 13.6094 11.6094 13.75 11.4375 13.75H9.25V15.9375C9.25 16.1094 9.10938 16.25 8.9375 16.25H7.0625C6.89062 16.25 6.75 16.1094 6.75 15.9375V13.75H4.5625C4.39062 13.75 4.25 13.6094 4.25 13.4375V11.5625C4.25 11.3906 4.39062 11.25 4.5625 11.25H6.75V9.0625C6.75 8.89062 6.89062 8.75 7.0625 8.75H8.9375C9.10938 8.75 9.25 8.89062 9.25 9.0625V11.25H11.4375C11.6094 11.25 11.75 11.3906 11.75 11.5625V13.4375ZM11.75 5.9375C11.75 6.10938 11.6094 6.25 11.4375 6.25H4.5625C4.39062 6.25 4.25 6.10938 4.25 5.9375V5.3125C4.25 5.14062 4.39062 5 4.5625 5H11.4375C11.6094 5 11.75 5.14062 11.75 5.3125V5.9375Z" fill="#046AAF"/>
</svg>
