<svg width="15" height="15" viewBox="0 0 15 15" fill="none" xmlns="http://www.w3.org/2000/svg">
<path d="M0.745977 6.7644L13.876 6.7644C14.0732 6.76439 14.2624 6.84203 14.4028 6.98053C14.5432 7.11902 14.6233 7.30723 14.626 7.5044C14.626 7.70425 14.5473 7.89606 14.4069 8.0383C14.2666 8.18054 14.0758 8.26177 13.876 8.2644L0.745976 8.2644C0.647483 8.2631 0.550211 8.2424 0.459715 8.2035C0.369219 8.1646 0.287272 8.10826 0.218555 8.03768C0.149838 7.96711 0.0956965 7.88369 0.0592223 7.79219C0.022748 7.70069 0.00465494 7.6029 0.00597674 7.5044C0.00597676 7.30814 0.0839406 7.11992 0.222717 6.98114C0.361494 6.84237 0.549716 6.7644 0.745977 6.7644Z" fill="#076BAE"/>
<path d="M6.87566 0.634431C6.9742 0.633965 7.07184 0.653186 7.16285 0.690965C7.25387 0.728744 7.33642 0.784319 7.40566 0.854431C7.54611 0.995056 7.625 1.18568 7.625 1.38443C7.625 1.58318 7.54611 1.77381 7.40566 1.91443L1.81566 7.50443L7.40566 13.1044C7.53814 13.2466 7.61026 13.4347 7.60683 13.629C7.60341 13.8233 7.52469 14.0086 7.38728 14.1461C7.24987 14.2835 7.06448 14.3622 6.87018 14.3656C6.67588 14.369 6.48784 14.2969 6.34566 14.1644L0.215661 8.04443C0.0769649 7.90086 -0.000557318 7.70905 -0.0005573 7.50943C-0.000557283 7.30981 0.076965 7.118 0.215661 6.97443L6.34566 0.854431C6.41491 0.784319 6.49746 0.728743 6.58847 0.690965C6.67948 0.653186 6.77712 0.633965 6.87566 0.634431Z" fill="#076BAE"/>
</svg>
