<svg width="15" height="15" viewBox="0 0 15 15" fill="none" xmlns="http://www.w3.org/2000/svg">
<path d="M13.88 8.2356H0.75C0.552808 8.23561 0.363543 8.15797 0.223174 8.01947C0.082806 7.88098 0.00262923 7.69277 2.85177e-09 7.4956C-1.72974e-05 7.29575 0.0786798 7.10394 0.219052 6.9617C0.359424 6.81946 0.550173 6.73823 0.75 6.7356H13.88C13.9785 6.7369 14.0758 6.75759 14.1663 6.7965C14.2568 6.8354 14.3387 6.89174 14.4074 6.96232C14.4761 7.03289 14.5303 7.11631 14.5668 7.20781C14.6032 7.29931 14.6213 7.3971 14.62 7.4956C14.62 7.69186 14.542 7.88008 14.4033 8.01885C14.2645 8.15763 14.0763 8.2356 13.88 8.2356Z" fill="#076BAE"/>
<path d="M7.75032 14.3656C7.65178 14.366 7.55414 14.3468 7.46312 14.309C7.37211 14.2713 7.28956 14.2157 7.22032 14.1456C7.07987 14.0049 7.00098 13.8143 7.00098 13.6156C7.00098 13.4168 7.07987 13.2262 7.22032 13.0856L12.8103 7.49557L7.22032 1.89557C7.08784 1.75339 7.01571 1.56535 7.01914 1.37105C7.02257 1.17675 7.10128 0.99136 7.23869 0.853947C7.37611 0.716534 7.56149 0.637822 7.75579 0.634394C7.9501 0.630966 8.13814 0.703089 8.28032 0.835569L14.4103 6.95557C14.549 7.09913 14.6265 7.29095 14.6265 7.49057C14.6265 7.69019 14.549 7.882 14.4103 8.02557L8.28032 14.1456C8.21107 14.2157 8.12852 14.2713 8.03751 14.309C7.9465 14.3468 7.84886 14.366 7.75032 14.3656Z" fill="#076BAE"/>
</svg>
