<svg xmlns="http://www.w3.org/2000/svg" version="1.1" xmlns:xlink="http://www.w3.org/1999/xlink" xmlns:svgjs="http://svgjs.com/svgjs" viewBox="0 0 40 40" height="40" width="40"><title>Exported from Streamline App (https://app.streamlineicons.com)</title><g transform="matrix(1.6666666666666667,0,0,1.6666666666666667,0,0)"><path d="M 6.5,6c0-3.038,2.462-5.5,5.5-5.5s5.5,2.462,5.5,5.5v3.5 " stroke="#ff1e2d" fill="none" stroke-width="1" stroke-linecap="round" stroke-linejoin="round"></path><path d="M 20.5,11.5c0-1.105-0.895-2-2-2h-13 c-1.105,0-2,0.895-2,2v10c0,1.105,0.895,2,2,2h13c1.105,0,2-0.895,2-2V11.5z " stroke="#ff1e2d" fill="none" stroke-width="1" stroke-linecap="round" stroke-linejoin="round"></path><path d="M 12,15.25c0.69,0,1.25,0.56,1.25,1.25 c0,0.69-0.56,1.25-1.25,1.25s-1.25-0.56-1.25-1.25C10.75,15.81,11.31,15.25,12,15.25z" stroke="#ff1e2d" fill="none" stroke-width="1" stroke-linecap="round" stroke-linejoin="round"></path></g></svg>