<svg width="70" height="60" viewBox="0 0 70 60" fill="none" xmlns="http://www.w3.org/2000/svg">
<g clip-path="url(#clip0_4280_26086)">
<path fill-rule="evenodd" clip-rule="evenodd" d="M118.66 -279.32C118.69 -280.63 118.205 -281.898 117.309 -282.854C116.414 -283.81 115.179 -284.376 113.87 -284.43C113.198 -284.425 112.536 -284.274 111.928 -283.987C111.32 -283.7 110.782 -283.285 110.35 -282.77C109.921 -283.285 109.384 -283.7 108.778 -283.987C108.172 -284.273 107.511 -284.425 106.84 -284.43C105.53 -284.378 104.292 -283.813 103.395 -282.857C102.497 -281.902 102.01 -280.631 102.04 -279.32C102.169 -277.353 102.841 -275.459 103.98 -273.85C104.11 -273.668 104.191 -273.456 104.216 -273.233C104.24 -273.011 104.207 -272.786 104.12 -272.58C103.586 -271.266 103.314 -269.859 103.32 -268.44V-266.84C103.333 -266.425 103.508 -266.03 103.806 -265.741C104.105 -265.452 104.504 -265.29 104.92 -265.29C105.335 -265.292 105.733 -265.455 106.032 -265.744C106.33 -266.033 106.505 -266.425 106.52 -266.84C106.477 -267.866 106.83 -268.868 107.506 -269.641C108.182 -270.413 109.128 -270.896 110.15 -270.99C110.704 -271.025 111.26 -270.94 111.778 -270.739C112.295 -270.539 112.764 -270.229 113.15 -269.83C113.535 -269.437 113.83 -268.965 114.016 -268.448C114.203 -267.93 114.276 -267.378 114.23 -266.83C114.243 -266.415 114.418 -266.02 114.716 -265.731C115.015 -265.442 115.414 -265.28 115.83 -265.28C116.245 -265.282 116.643 -265.445 116.942 -265.734C117.24 -266.023 117.415 -266.415 117.43 -266.83V-268.43C117.43 -269.94 117.12 -271.434 116.52 -272.82C116.417 -273.029 116.372 -273.262 116.39 -273.494C116.407 -273.726 116.487 -273.949 116.62 -274.14C117.796 -275.628 118.506 -277.43 118.66 -279.32ZM-210.43 109.73C-209.577 108.344 -209.089 106.765 -209.01 105.14C-209.01 102.39 -210.81 100.07 -213.01 100.07C-215.21 100.07 -215.16 101 -215.88 101C-216.6 101 -216.6 100.07 -218.76 100.07C-220.92 100.07 -222.76 102.38 -222.76 105.14C-222.68 106.785 -222.181 108.382 -221.31 109.78" fill="#F29400"/>
<path d="M32.0402 59.5697C47.83 59.5697 60.6302 46.3307 60.6302 29.9997C60.6302 13.6686 47.83 0.429688 32.0402 0.429688C16.2504 0.429688 3.4502 13.6686 3.4502 29.9997C3.4502 46.3307 16.2504 59.5697 32.0402 59.5697Z" fill="#E1F7FF"/>
<path d="M50.2801 40.8399C60.895 40.8399 69.5001 32.0155 69.5001 21.1299C69.5001 10.2444 60.895 1.41992 50.2801 1.41992C39.6651 1.41992 31.0601 10.2444 31.0601 21.1299C31.0601 32.0155 39.6651 40.8399 50.2801 40.8399Z" fill="#E1F7FF"/>
<path d="M12.82 58.58C19.6241 58.58 25.14 52.8447 25.14 45.77C25.14 38.6952 19.6241 32.96 12.82 32.96C6.01585 32.96 0.5 38.6952 0.5 45.77C0.5 52.8447 6.01585 58.58 12.82 58.58Z" fill="#E1F7FF"/>
<path d="M32.4299 23.4097C31.3936 23.4097 30.3805 23.1024 29.5188 22.5266C28.657 21.9508 27.9854 21.1324 27.5888 20.175C27.1922 19.2175 27.0884 18.1639 27.2906 17.1474C27.4928 16.131 27.9919 15.1973 28.7247 14.4645C29.4575 13.7316 30.3912 13.2326 31.4077 13.0304C32.4241 12.8282 33.4777 12.932 34.4352 13.3286C35.3927 13.7252 36.2111 14.3968 36.7868 15.2585C37.3626 16.1202 37.6699 17.1333 37.6699 18.1697C37.6673 19.5586 37.1144 20.8899 36.1323 21.872C35.1501 22.8541 33.8189 23.407 32.4299 23.4097ZM32.4299 14.4097C31.6902 14.4097 30.9672 14.629 30.3521 15.04C29.7371 15.4509 29.2577 16.0351 28.9746 16.7185C28.6916 17.4018 28.6175 18.1538 28.7618 18.8793C28.9061 19.6048 29.2623 20.2712 29.7854 20.7943C30.3084 21.3173 30.9748 21.6735 31.7003 21.8178C32.4258 21.9621 33.1778 21.8881 33.8612 21.605C34.5446 21.3219 35.1287 20.8426 35.5396 20.2275C35.9506 19.6125 36.1699 18.8894 36.1699 18.1497C36.162 17.1621 35.7648 16.2174 35.0646 15.5209C34.3643 14.8244 33.4176 14.4323 32.4299 14.4297V14.4097Z" fill="#046AAF"/>
<path d="M42.9 46.3195C43.6219 46.3195 44.3276 46.1055 44.9278 45.7044C45.5281 45.3033 45.9959 44.7333 46.2722 44.0663C46.5484 43.3994 46.6207 42.6655 46.4799 41.9575C46.339 41.2494 45.9914 40.5991 45.4809 40.0886C44.9705 39.5781 44.3201 39.2305 43.6121 39.0897C42.904 38.9488 42.1702 39.0211 41.5032 39.2974C40.8363 39.5736 40.2662 40.0415 39.8651 40.6417C39.4641 41.2419 39.25 41.9476 39.25 42.6695C39.2526 43.6368 39.638 44.5636 40.322 45.2476C41.0059 45.9315 41.9328 46.3169 42.9 46.3195Z" fill="#EF8987"/>
<path d="M37.5602 37.5197C36.9049 37.5187 36.2645 37.3238 35.7198 36.9595C35.1751 36.5953 34.7504 36.078 34.4991 35.4728C34.2478 34.8676 34.1813 34.2016 34.3078 33.5586C34.4343 32.9157 34.7483 32.3246 35.2102 31.8597L35.7502 31.3197C35.8908 31.1793 36.0814 31.1004 36.2802 31.1004C36.4789 31.1004 36.6695 31.1793 36.8102 31.3197C36.9506 31.4604 37.0295 31.651 37.0295 31.8497C37.0295 32.0485 36.9506 32.2391 36.8102 32.3797L36.2702 32.9097C35.9307 33.2505 35.7405 33.7122 35.7414 34.1933C35.7424 34.6743 35.9344 35.1352 36.2752 35.4747C36.616 35.8142 37.0777 36.0044 37.5587 36.0035C38.0397 36.0025 38.5007 35.8105 38.8402 35.4697L40.1202 34.1897C40.2919 34.0244 40.4277 33.8254 40.5189 33.6051C40.6101 33.3848 40.6548 33.1481 40.6502 32.9097V30.3497C40.6423 29.195 40.1787 28.0901 39.3603 27.2755C38.5419 26.4608 37.4349 26.0023 36.2802 25.9997H28.5802C27.4193 26.0024 26.3068 26.4647 25.4859 27.2855C24.6651 28.1064 24.2028 29.2189 24.2002 30.3797V32.9497C24.2001 33.1874 24.2469 33.4228 24.3378 33.6424C24.4288 33.8621 24.5621 34.0616 24.7302 34.2297L26.0002 35.4797C26.1682 35.6485 26.3679 35.7825 26.5878 35.874C26.8077 35.9656 27.0434 36.013 27.2816 36.0135C27.5198 36.0139 27.7557 35.9675 27.976 35.8767C28.1962 35.786 28.3964 35.6528 28.5652 35.4847C28.7339 35.3166 28.8679 35.117 28.9595 34.8971C29.051 34.6772 29.0984 34.4414 29.0989 34.2033C29.0993 33.9651 29.0529 33.7291 28.9622 33.5089C28.8715 33.2887 28.7382 33.0885 28.5702 32.9197L28.0402 32.3897C27.8997 32.2491 27.8208 32.0585 27.8208 31.8597C27.8208 31.661 27.8997 31.4704 28.0402 31.3297C28.1091 31.259 28.1915 31.2027 28.2825 31.1643C28.3736 31.1259 28.4714 31.1062 28.5702 31.1062C28.6689 31.1062 28.7667 31.1259 28.8578 31.1643C28.9488 31.2027 29.0312 31.259 29.1002 31.3297L29.6302 31.8497C29.9389 32.1573 30.1838 32.5227 30.3509 32.9251C30.5181 33.3275 30.6041 33.759 30.6041 34.1947C30.6041 34.6305 30.5181 35.0619 30.3509 35.4643C30.1838 35.8667 29.9389 36.2322 29.6302 36.5397C29.0003 37.1465 28.1597 37.4855 27.2852 37.4855C26.4106 37.4855 25.57 37.1465 24.9402 36.5397L23.6602 35.2597C23.3473 34.9549 23.0979 34.5913 22.9263 34.1897C22.7547 33.7881 22.6642 33.3565 22.6602 32.9197V30.3497C22.6628 28.7911 23.2831 27.297 24.3853 26.1949C25.4874 25.0927 26.9815 24.4724 28.5402 24.4697H36.2402C37.7979 24.4724 39.2909 25.093 40.3915 26.1955C41.492 27.2979 42.1102 28.792 42.1102 30.3497V32.9197C42.1083 33.3568 42.0189 33.7891 41.8471 34.191C41.6754 34.5929 41.4248 34.9563 41.1102 35.2597L39.9002 36.5397C39.5947 36.8503 39.2305 37.0969 38.8287 37.2651C38.427 37.4334 37.9957 37.5199 37.5602 37.5197Z" fill="#046AAF"/>
<path d="M24 40.8398H34.69C35.4167 40.8398 36.1136 41.1285 36.6275 41.6424C37.1413 42.1562 37.43 42.8532 37.43 43.5798C37.43 44.3065 37.1413 45.0035 36.6275 45.5173C36.1136 46.0312 35.4167 46.3198 34.69 46.3198H24" fill="#EF8987"/>
</g>
<defs>
<clipPath id="clip0_4280_26086">
<rect width="70" height="60" fill="white"/>
</clipPath>
</defs>
</svg>
